<svg width="32" height="33" viewBox="0 0 32 33" fill="none" xmlns="http://www.w3.org/2000/svg">
    <circle cx="16" cy="16.5" r="15.5" fill="white" stroke="#F1F1F1" />
    <path
        d="M20.5737 7.85183L19.9486 7.41315C19.4779 7.08274 18.8958 6.94342 18.3097 7.02093C17.7235 7.09838 17.2058 7.38301 16.8518 7.82234L16.2851 8.5257L16.285 8.52591L16.2848 8.52613L8.70864 17.9297C8.70171 17.9384 8.69506 17.9472 8.68868 17.9562C8.61237 18.0401 8.56436 18.1433 8.5507 18.2526L8.02222 20.7604L8.01798 20.7806L8.01532 20.8009C7.94374 21.3498 8.12518 21.8207 8.51314 22.093C8.73083 22.2458 8.99478 22.3229 9.28092 22.3229C9.50467 22.3229 9.74203 22.2757 9.98122 22.1806L9.98904 22.1775L12.5857 21.064C12.6441 21.0389 12.6979 21.0053 12.7449 20.9644C12.792 20.9319 12.8339 20.8933 12.869 20.8496L21.0122 10.7422C21.7451 9.83252 21.5484 8.53592 20.5737 7.85183ZM18.4783 8.13234C18.7463 8.09692 19.0118 8.16011 19.2259 8.31031L19.851 8.749C20.2956 9.06108 20.3854 9.65262 20.051 10.0676L19.8456 10.3226L17.6076 8.75197L17.8131 8.497C17.974 8.29726 18.2102 8.16776 18.4783 8.13234ZM12.2278 19.7779L9.98982 18.2073L16.8848 9.64912L19.1227 11.2198L12.2278 19.7779ZM9.50322 21.1506C9.34193 21.2134 9.25433 21.2029 9.23607 21.1957C9.22383 21.1816 9.19003 21.1091 9.207 20.9547L9.55442 19.3061L11.1664 20.4374L9.50322 21.1506ZM22.3986 21.2821H13.6338C13.3017 21.2821 13.0324 21.5333 13.0324 21.8433C13.0324 22.1533 13.3016 22.4046 13.6338 22.4046H22.3986C22.7308 22.4046 23 22.1533 23 21.8433C23 21.5333 22.7307 21.2821 22.3986 21.2821ZM16.44 18.0166C16.44 18.3266 16.7092 18.5779 17.0413 18.5779H22.3987C22.7308 18.5779 23 18.3266 23 18.0166C23 17.7066 22.7308 17.4554 22.3987 17.4554H17.0413C16.7092 17.4554 16.44 17.7066 16.44 18.0166Z"
        fill="#323D47" />
</svg>
    