<svg width="32" height="32" viewBox="0 0 32 32" fill="none" xmlns="http://www.w3.org/2000/svg">
    <circle cx="16" cy="16" r="15.5" fill="white" stroke="#F1F1F1" />
    <path
        d="M25.8205 15.6782L24.8822 15.1362C24.6932 13.1411 23.8365 11.1984 22.3123 9.67415C20.8279 8.189 18.9109 7.2926 16.8461 7.09938L16.3069 6.16533C16.1799 5.94489 15.8158 5.94489 15.6888 6.16533L15.1496 7.09938C13.0854 7.2926 11.1699 8.18829 9.68405 9.67276C8.16055 11.1977 7.3039 13.1411 7.11557 15.1362L6.17663 15.6782C6.06641 15.7417 5.99805 15.8596 5.99805 15.9873C5.99805 16.1149 6.06573 16.2328 6.17663 16.2963L7.11557 16.839C7.30529 18.8341 8.16194 20.7775 9.68545 22.3017C11.1699 23.7848 13.0854 24.6805 15.1489 24.8744L15.6895 25.8092C15.753 25.9201 15.8709 25.9878 15.9985 25.9878C16.1262 25.9878 16.2441 25.9194 16.3076 25.8092L16.8475 24.8744C18.9116 24.6805 20.8279 23.7855 22.3123 22.3017C23.8365 20.7768 24.6932 18.8334 24.8822 16.8383L25.8205 16.2963C25.9314 16.2328 25.9991 16.1149 25.9991 15.9873C25.9991 15.8596 25.9307 15.7417 25.8205 15.6782ZM21.3022 21.2917C19.8862 22.7071 18.0027 23.487 15.9992 23.487C13.9951 23.487 12.1116 22.7071 10.6955 21.2917C7.77199 18.3667 7.77128 13.6078 10.6941 10.6829C12.111 9.26677 13.9951 8.48687 15.9985 8.48687C18.002 8.48687 19.8855 9.26745 21.3022 10.6842C24.2265 13.6078 24.2265 18.366 21.3022 21.2917Z"
        fill="#323D47" />
    <path
        d="M21.0065 10.8066C20.9828 10.8066 20.9591 10.8115 20.9375 10.8213L20.9396 10.8192L14.6411 14.598L10.8317 20.9467C10.8156 21.0053 10.824 21.0715 10.8714 21.1169C10.9042 21.149 10.9467 21.1643 10.9893 21.1643C11.0047 21.1643 11.0193 21.1622 11.034 21.1588L17.3903 17.3458L21.1705 11.0452C21.1942 10.9838 21.1803 10.9092 21.1308 10.8583C21.0965 10.8241 21.0512 10.8066 21.0065 10.8066ZM15.1615 15.1191L15.1622 15.1184L16.8692 16.8254L12.6014 19.3855L15.1615 15.1191Z"
        fill="#323D47" />
</svg>
    