<svg width="32" height="32" viewBox="0 0 32 32" fill="none" xmlns="http://www.w3.org/2000/svg">
    <circle cx="16" cy="16" r="15.5" fill="white" stroke="#F1F1F1" />
    <path
        d="M20.4139 15.0463C20.0161 15.0463 19.6934 15.3689 19.6934 15.7667V20.7609H10.8081V11.9644H16.1986C16.5966 11.9644 16.9191 11.6417 16.9191 11.2439C16.9191 10.8461 16.5964 10.5234 16.1986 10.5234H10.0877C9.68969 10.5234 9.36719 10.8461 9.36719 11.2439V21.4816C9.36719 21.8795 9.68984 22.202 10.0877 22.202H20.4139C20.8119 22.202 21.1344 21.8794 21.1344 21.4816V15.7667C21.1344 15.3689 20.8119 15.0463 20.4139 15.0463Z"
        fill="#323D47" />
    <path
        d="M22.4812 10.0838C22.3437 9.90332 22.1133 9.77317 21.9022 9.80051L18.965 9.82754C18.567 9.83145 18.2476 10.1568 18.2512 10.5547C18.2548 10.9502 18.5767 11.2685 18.9717 11.2685H18.9784L19.7872 11.261L14.93 14.9933C14.6144 15.2357 14.5553 15.6882 14.7976 16.0038C14.9394 16.1885 15.1533 16.2852 15.3694 16.2852C15.5228 16.2852 15.6772 16.2366 15.8081 16.136L20.6178 12.4402L20.3512 13.3835C20.2433 13.7666 20.4659 14.1646 20.8487 14.2729C20.9142 14.2911 20.9803 14.3004 21.045 14.3004C21.3595 14.3004 21.6483 14.0929 21.7381 13.7755L22.6022 10.7171C22.6637 10.4985 22.619 10.2639 22.4812 10.0838Z"
        fill="#323D47" />
</svg>
     