<svg width="36" height="18" viewBox="0 0 36 18" fill="none" xmlns="http://www.w3.org/2000/svg">
    <path
        d="M12.87 3.094L13.824 1.906C13.878 1.834 14.076 1.798 14.148 1.924C14.778 2.554 15.012 2.788 15.462 3.292C15.57 3.4 15.552 3.598 15.408 3.598H4.914L3.546 3.814L3.114 3.094H12.87ZM13.572 14.398L9.108 15.01C6.876 15.316 5.562 15.532 3.222 15.946C2.916 16.198 2.736 16.144 2.664 15.928L2.142 14.488C2.088 14.38 2.16 14.254 2.286 14.218C2.664 14.164 3.078 14.128 3.384 13.894C5.076 12.04 6.516 10.204 7.704 8.098L2.61 8.08C2.268 8.08 1.818 8.17 1.314 8.26L0.918 7.576H14.274L15.156 6.334C15.192 6.244 15.426 6.226 15.516 6.334C16.128 7 16.344 7.198 16.866 7.738C16.938 7.846 16.884 8.044 16.74 8.044H8.892C9.216 8.242 9.576 8.404 9.918 8.602C10.026 8.674 10.008 8.8 9.954 8.872C9.792 8.998 9.558 8.998 9.36 9.07C8.64 9.808 7.956 10.618 7.236 11.284C6.21 12.274 5.112 13.192 3.978 14.128H6.786L10.674 14.02C11.502 14.002 12.33 13.912 13.158 13.822C12.33 12.724 11.412 11.626 10.404 10.654L10.602 10.438C11.682 11.068 12.636 11.68 13.554 12.4C14.742 13.318 16.488 14.452 16.11 16.252C16.038 16.576 15.822 16.9 15.516 17.062C15.282 17.08 15.066 16.99 14.976 16.81C14.58 15.964 14.112 15.154 13.572 14.398ZM35.064 3.922C35.154 4.048 35.136 4.246 34.938 4.246H27.684L27.702 6.352H31.446L32.166 5.452C32.184 5.38 32.382 5.344 32.472 5.434C33.012 5.758 33.372 6.082 33.894 6.478C34.002 6.55 33.984 6.712 33.894 6.784C33.642 6.982 33.354 7.162 33.192 7.306L33.174 7.378V9.322C33.21 9.358 33.156 9.43 33.174 9.466L33.156 15.946C33.156 16.792 31.824 17.116 31.014 17.368C30.924 16.198 29.7 15.64 28.782 15.298L28.854 14.92C29.61 15.082 30.366 15.226 31.158 15.262C31.392 15.28 31.608 15.1 31.698 14.884L31.716 14.254V6.874H22.122V12.598L22.14 16.558C22.158 16.738 22.032 16.828 21.438 17.098C21.132 17.242 20.844 17.314 20.682 17.278C20.61 17.224 20.592 17.17 20.592 17.134L20.646 14.29L20.628 7.108L20.574 5.524C21.186 5.776 21.798 6.028 22.41 6.352H26.118C26.118 5.614 26.1 4.93 26.1 4.246H20.376C20.088 4.246 19.71 4.354 19.296 4.426L18.828 3.724H26.082C26.1 2.68 26.1 1.582 26.046 0.465999C26.838 0.682 27.468 0.879999 28.08 1.096C28.152 1.15 28.224 1.258 28.17 1.366C28.08 1.582 27.684 1.69 27.684 1.888L27.666 3.724H32.364L33.228 2.554C33.282 2.482 33.462 2.5 33.534 2.554C34.11 3.058 34.47 3.364 35.064 3.922ZM26.226 8.476C26.352 8.728 26.316 9.214 26.172 9.448C25.938 9.7 25.812 9.88 25.47 9.862C25.326 9.826 25.182 9.682 25.11 9.502C24.786 8.71 24.57 7.99 23.922 7.414L24.084 7.162C24.822 7.486 25.74 7.774 26.226 8.476ZM31.536 10.312C31.59 10.42 31.536 10.564 31.41 10.564L27.378 10.582V12.184H29.106L29.808 11.248C29.88 11.158 30.042 11.158 30.132 11.23C30.564 11.59 30.762 11.788 31.284 12.346C31.302 12.418 31.356 12.526 31.302 12.598L31.158 12.688H27.378V14.182C27.378 14.524 27.414 15.316 27.432 16.036C27.432 16.108 27.432 16.216 27.342 16.288C26.964 16.558 26.622 16.684 26.172 16.81C26.046 16.828 25.92 16.756 25.92 16.648L25.956 12.706H24.138C23.976 12.706 23.526 12.868 23.166 12.94L22.752 12.184H25.956V10.582H23.778C23.544 10.582 23.166 10.708 22.842 10.762L22.428 10.06H27.144C27.666 9.07 28.08 8.026 28.332 6.928C28.872 7.18 29.412 7.432 29.916 7.756C29.988 7.81 30.024 7.9 29.988 7.99C29.808 8.098 29.556 8.116 29.394 8.296C28.908 8.872 28.296 9.52 27.738 10.06H27.9H29.268L29.934 8.998C29.97 8.944 30.15 8.944 30.222 8.998C30.798 9.538 31.104 9.844 31.536 10.312Z"
        fill="#323D47" />
</svg>