<svg width="35" height="18" viewBox="0 0 35 18" fill="none" xmlns="http://www.w3.org/2000/svg">
    <path
        d="M14.148 4.768L14.832 3.652C14.904 3.58 15.084 3.58 15.156 3.652C15.75 4.084 16.128 4.462 16.74 5.002C16.794 5.074 16.794 5.254 16.722 5.29L16.65 5.326H10.692C10.782 6.802 10.98 7.792 11.34 9.574C11.448 10.078 11.574 10.474 11.772 11.032C12.564 9.574 13.104 8.008 13.374 6.352C14.112 6.64 14.76 6.928 15.39 7.342C15.444 7.396 15.444 7.504 15.39 7.558C15.246 7.72 14.994 7.702 14.868 7.864C14.184 9.484 13.518 11.086 12.474 12.562C13.014 13.498 13.986 14.362 14.994 14.722C15.192 14.758 15.336 14.632 15.426 14.488C15.804 13.624 16.164 12.67 16.452 11.788L16.758 11.86C16.47 14.362 16.2 15.442 17.046 16.9C17.046 17.062 16.992 17.242 16.83 17.332C16.344 17.368 15.696 17.152 15.192 16.918C13.734 16.252 12.384 15.244 11.43 13.84C11.088 14.11 10.89 14.308 10.602 14.524C9.072 15.676 7.344 16.432 5.562 17.026L5.364 16.792C7.308 15.64 9.18 14.416 10.728 12.634C9.702 10.312 9.432 7.504 9.198 5.326H4.5C4.482 6.1 4.464 6.442 4.446 7.216L4.428 8.134H6.588L7.2 7.486C7.29 7.432 7.452 7.432 7.542 7.468C8.046 7.792 8.154 7.882 8.712 8.242C8.928 8.458 8.406 8.8 8.226 9.016L8.19 9.232C8.1 10.564 7.956 11.788 7.794 13.084C7.686 14.02 6.786 14.65 5.994 14.902L5.472 15.064C5.382 14.488 5.022 13.912 4.464 13.678L3.888 13.444L3.96 13.102L5.886 13.282C6.012 13.282 6.138 13.264 6.21 13.156C6.39 12.67 6.408 12.13 6.462 11.626C6.57 10.654 6.696 9.7 6.714 8.71H4.374L4.14 11.446C4.122 11.716 4.068 11.914 4.014 12.22C3.69 14.272 2.25 15.838 0.684 17.188C0.594 17.17 0.522 17.098 0.432 17.044C1.098 16.018 1.62 15.28 2.142 13.93C2.412 13.21 2.538 12.346 2.646 11.59C2.682 10.906 2.79 10.276 2.772 9.592L2.79 6.532C2.79 6.514 2.826 6.352 2.772 6.316C2.772 5.506 2.682 4.66 2.628 3.886C3.33 4.066 3.96 4.444 4.608 4.75H9.126L8.874 1.618L8.766 0.735999C9.54 0.879999 10.332 1.024 11.07 1.294C11.142 1.366 11.142 1.492 11.07 1.582C10.872 1.726 10.602 1.816 10.476 2.014C10.44 2.932 10.566 3.904 10.62 4.75L14.148 4.768ZM11.268 1.924L11.376 1.636C12.258 1.744 13.122 1.906 13.842 2.41C14.148 2.68 14.328 3.094 14.22 3.49C14.112 3.904 13.842 4.246 13.41 4.48C13.212 4.534 13.014 4.48 12.924 4.3C12.546 3.418 12.06 2.482 11.268 1.924ZM25.578 14.92H22.68V16.18C22.68 16.306 22.68 16.396 22.536 16.486L21.51 16.864C21.384 16.864 21.258 16.792 21.222 16.702L21.24 15.406L21.276 11.464C21.258 11.428 21.276 11.392 21.24 11.392C20.484 11.896 19.728 12.418 18.99 12.904C18.864 12.904 18.846 12.76 18.738 12.688C19.62 11.878 20.394 11.212 21.258 10.384C21.258 9.808 21.24 9.25 21.204 8.692C21.6 8.782 22.014 8.944 22.446 9.16C22.986 8.656 23.418 8.062 23.868 7.54H20.25C19.962 7.54 19.584 7.612 19.188 7.738L18.738 7.018H22.68L22.698 4.588H21.15C20.916 4.588 20.556 4.678 20.052 4.786L19.656 4.084H22.68C22.68 2.842 22.698 1.798 22.662 0.682C23.328 0.862 23.976 1.042 24.624 1.258C24.678 1.33 24.714 1.42 24.66 1.51C24.534 1.654 24.246 1.654 24.192 1.906V4.084H24.516L25.056 3.202C25.11 3.148 25.218 3.13 25.29 3.166L26.208 3.994C26.514 3.562 26.802 3.022 27.036 2.536H27.126L28.584 3.418C28.674 3.472 28.71 3.634 28.656 3.724C28.386 3.904 27.99 3.886 27.792 4.192C27.162 5.128 26.478 6.1 25.794 7.018H26.496L27.144 6.136C27.198 6.064 27.396 6.064 27.504 6.136C27.954 6.532 28.35 6.82 28.782 7.27C28.818 7.342 28.818 7.468 28.746 7.522L28.512 7.54H25.362C24.858 8.134 24.282 8.782 23.706 9.34H25.398L25.956 8.638C26.01 8.566 26.172 8.548 26.28 8.638C26.784 9.016 27.036 9.232 27.504 9.556C27.576 9.628 27.54 9.754 27.522 9.844C27.342 9.988 27.018 10.024 27.018 10.312V14.128L27.072 15.478C27.054 15.712 26.802 15.73 26.658 15.838L25.866 16.216C25.74 16.252 25.614 16.162 25.578 16.054V14.92ZM23.166 9.88L22.698 10.258V11.77H25.614V9.862L23.166 9.88ZM22.68 12.292V14.38H25.614V12.292H22.68ZM25.758 4.768L25.848 4.588H24.21V7.018H24.282C24.876 6.28 25.344 5.596 25.758 4.768ZM33.822 3.778L33.75 3.922C33.228 5.254 32.58 6.388 31.86 7.81C33.3 8.53 34.794 10.186 34.776 11.572C34.758 12.724 34.002 13.786 32.976 14.308C32.742 14.416 32.544 14.542 32.292 14.596C32.238 13.768 31.41 13.174 30.708 12.922L30.762 12.652C31.302 12.706 31.986 12.724 32.544 12.634C33.084 12.472 33.192 11.878 33.3 11.41C33.426 10.024 32.526 8.8 31.158 8.026C31.716 6.262 32.166 4.984 32.382 3.364H32.274H30.492L30.474 13.912C30.474 14.758 30.528 15.64 30.546 16.522L30.42 16.684C30.024 16.864 29.628 17.062 29.178 17.17C29.106 17.17 29.016 17.134 28.998 17.062L29.07 13.552V10.618V2.644L29.052 2.068C29.538 2.266 30.024 2.536 30.564 2.86H32.274L32.94 2.158C33.03 2.086 33.21 2.086 33.318 2.14C33.786 2.482 34.146 2.716 34.542 3.022C34.596 3.076 34.614 3.184 34.542 3.274C34.254 3.49 34.002 3.49 33.822 3.778Z"
        fill="#323D47" />
</svg>