<svg width="35" height="18" viewBox="0 0 35 18" fill="none" xmlns="http://www.w3.org/2000/svg">
    <path
        d="M9.432 1.24L9.63 0.987999C10.386 1.114 11.07 1.402 11.754 1.726C12.15 1.906 12.546 2.338 12.618 2.788C12.654 3.634 12.168 4.192 11.61 4.336C11.43 4.39 11.214 4.336 11.106 4.138C10.854 3.544 10.728 2.968 10.404 2.392C10.17 1.978 9.828 1.546 9.432 1.24ZM7.344 4.732H14.058C14.508 4.228 14.778 3.814 15.12 3.454C15.264 3.328 15.372 3.382 15.462 3.454C15.984 3.85 16.452 4.444 16.938 4.894C17.064 5.038 17.118 5.236 16.956 5.254L16.812 5.272L9.252 5.254C8.748 5.254 8.154 5.344 7.65 5.38L7.344 4.732ZM12.204 10.078V7.864H10.062V10.978C10.062 12.616 9.666 14.128 8.55 15.334C7.74 16.198 6.732 16.828 5.724 17.386L5.436 17.224C7.362 15.73 8.514 13.624 8.64 11.158C8.658 10.87 8.676 10.6 8.676 10.312L8.658 8.08L8.604 6.406C9.198 6.64 9.738 7.036 10.314 7.342H12.15L12.69 6.586C12.762 6.496 12.924 6.514 13.014 6.586L14.31 7.486C14.382 7.558 14.4 7.684 14.346 7.756C14.112 7.99 13.68 8.098 13.572 8.422V15.19C13.572 15.334 13.68 15.496 13.806 15.55C14.328 15.658 15.318 15.766 15.534 15.1C15.912 13.912 16.002 12.706 16.128 11.446L16.524 11.482C16.434 12.49 16.416 13.588 16.722 14.56C16.884 14.812 17.154 15.028 17.388 15.19C17.226 15.784 16.884 16.522 16.11 16.72C15.03 17.008 13.536 16.936 12.744 16.558C12.312 16.288 12.24 15.82 12.222 15.424L12.204 14.956V10.078ZM0.702 13.858L0.414 13.642C1.854 11.482 3.33 8.008 3.474 6.028H2.214C1.782 6.028 1.404 6.154 1.008 6.262L0.648 5.506H3.816V2.212L3.762 0.825999L5.58 1.438C5.958 1.798 5.292 1.978 5.202 2.266L5.166 2.464V5.506H5.634L6.228 4.588C6.282 4.498 6.372 4.534 6.444 4.588C6.948 5.02 7.326 5.236 7.722 5.758C7.776 5.866 7.74 6.01 7.632 6.028H5.166V7.162C5.94 7.468 6.426 7.594 6.822 7.828C7.236 8.08 7.542 8.494 7.488 8.98C7.452 9.43 7.362 9.844 7.02 9.952C6.822 9.988 6.606 9.97 6.426 9.826C6.228 9.61 6.138 9.214 6.03 8.944C5.85 8.494 5.616 8.17 5.166 7.792V11.734L5.274 16.63C5.292 16.738 5.238 16.828 5.184 16.864C5.004 17.026 4.662 17.17 4.446 17.278C4.248 17.368 4.068 17.44 3.852 17.332L3.78 17.224L3.816 14.11V9.448L3.708 9.664C2.88 11.23 1.854 12.634 0.702 13.858ZM22.554 3.292L22.446 1.15C23.184 1.348 24.066 1.636 24.642 1.852C24.75 1.906 24.75 2.086 24.678 2.194C24.462 2.41 24.03 2.698 24.03 2.842V9.88C24.03 11.806 23.724 13.588 22.446 15.01C21.474 16.09 20.304 16.738 19.098 17.368L18.864 17.08C20.484 15.946 21.87 14.308 22.23 12.418C22.41 11.482 22.554 10.564 22.554 9.574V3.292ZM31.878 3.058L31.752 1.24C32.508 1.474 33.336 1.78 33.912 2.032C34.02 2.104 34.038 2.266 33.948 2.356C33.642 2.662 33.318 2.914 33.318 2.968V6.028V15.424L33.372 16.864C33.318 17.116 33.03 17.17 32.85 17.278L32.04 17.566C31.932 17.566 31.806 17.512 31.806 17.386L31.878 14.308V3.058ZM27 3.922L26.946 2.248C27.72 2.5 28.458 2.716 29.016 2.968C29.088 3.04 29.088 3.256 29.016 3.328C28.8 3.49 28.422 3.706 28.422 3.868L28.44 12.544L28.512 15.046C28.494 15.316 28.278 15.37 28.044 15.478C27.738 15.604 27.18 15.838 27.054 15.766L26.964 15.622L27 12.706V3.922ZM20.61 6.136L21.006 6.082C21.348 7.378 21.888 9.124 20.952 10.33C20.574 10.798 19.854 10.978 19.35 10.798C19.206 10.726 19.134 10.564 19.08 10.438C19.08 9.916 19.548 9.628 19.818 9.232C20.412 8.35 20.772 7.234 20.61 6.136ZM24.228 6.676L24.498 6.532C25.038 6.91 25.578 7.432 26.028 7.954C26.46 8.422 26.748 9.178 26.424 9.826C26.28 10.132 26.028 10.33 25.758 10.546C25.632 10.6 25.47 10.582 25.362 10.51L25.236 10.348C25.128 9.052 24.822 7.81 24.228 6.676ZM28.584 6.748L28.8 6.586C29.358 6.928 29.988 7.378 30.456 7.9C30.87 8.314 31.194 8.8 31.086 9.376C30.996 9.934 30.69 10.222 30.312 10.528C30.168 10.582 29.988 10.546 29.88 10.456C29.682 10.312 29.718 10.06 29.664 9.88C29.484 8.746 29.25 7.684 28.584 6.748Z"
        fill="#323D47" />
</svg>