<svg width="18" height="18" viewBox="0 0 18 18" fill="none" xmlns="http://www.w3.org/2000/svg">
    <path
        d="M9 18C7.78509 18 6.60652 17.762 5.49663 17.2925C4.4249 16.8393 3.4624 16.1903 2.63606 15.3639C1.80972 14.5376 1.16069 13.5751 0.707461 12.5034C0.237962 11.3935 0 10.2149 0 9C0 7.78509 0.237962 6.60652 0.707461 5.49663C1.16069 4.4249 1.80972 3.4624 2.63606 2.63606C3.4624 1.80972 4.4249 1.16069 5.49663 0.707461C6.60652 0.237963 7.78509 0 9 0C10.2149 0 11.3935 0.238163 12.5034 0.707461C13.5751 1.16069 14.5376 1.80972 15.3639 2.63606C16.1903 3.4624 16.8393 4.4249 17.2925 5.49663C17.762 6.60652 18 7.78509 18 9C18 10.2147 17.762 11.3935 17.2925 12.5034C16.8393 13.5751 16.1903 14.5376 15.3639 15.3639C14.5376 16.1903 13.5751 16.8393 12.5034 17.2925C11.3935 17.762 10.2147 18 9 18ZM9 0.769512C4.46165 0.769512 0.769512 4.46165 0.769512 9C0.769512 13.5315 4.46847 17.2305 9 17.2305C13.5384 17.2305 17.2305 13.5384 17.2305 9C17.2305 4.46867 13.5315 0.769512 9 0.769512Z"
        fill="#424A52" />
    <path
        d="M8.94547 6.39988C8.56855 6.39988 8.28681 6.5045 8.10025 6.71335C7.95426 6.87681 7.81108 7.13305 7.74923 7.44511C7.71771 7.60435 7.57593 7.71801 7.41348 7.71801H6.79618C6.59376 7.71801 6.43612 7.54371 6.4546 7.34209C6.51203 6.71817 6.6765 6.19726 7.06205 5.82435C7.52272 5.37915 8.15066 5.15625 8.94527 5.15625C9.7435 5.15625 10.3773 5.35666 10.8466 5.75748C11.3159 6.1583 11.5506 6.69969 11.5506 7.38125C11.5506 7.74432 11.4418 8.0861 11.2243 8.4064C11.0068 8.72669 10.6443 9.05683 10.1375 9.43716C9.93869 9.58797 9.80093 9.76991 9.72382 9.94281C9.67482 10.0529 9.62723 10.1848 9.60173 10.3386C9.57442 10.5035 9.43083 10.6238 9.26376 10.6238H8.64144C8.44545 10.6238 8.29002 10.4597 8.29866 10.2639C8.31312 9.93478 8.36894 9.64701 8.49846 9.40062C8.67317 9.06847 8.9764 8.77147 9.40794 8.47005C9.61357 8.32607 9.75896 8.15377 9.84471 7.99272C9.93025 7.83167 9.97323 7.62785 9.97323 7.38125C9.97323 7.07983 9.88065 6.84006 9.69571 6.66194C9.51056 6.48723 9.26055 6.39988 8.94547 6.39988Z"
        fill="#424A52" />
    <path
        d="M8.50705 11.3691H9.36251C9.55208 11.3691 9.7055 11.5228 9.7055 11.7121V12.4955C9.7055 12.6851 9.55188 12.8385 9.36251 12.8385H8.50705C8.31748 12.8385 8.16406 12.6849 8.16406 12.4955V11.7121C8.16406 11.5228 8.31768 11.3691 8.50705 11.3691Z"
        fill="#424A52" />
</svg>
    