<svg width="375" height="487" viewBox="0 0 375 487" fill="none" xmlns="http://www.w3.org/2000/svg">
    <path
        d="M366.997 341.678C369.071 337.312 370.123 327.808 357.739 324.721C342.26 320.862 338.457 322.112 329.342 308.792C320.226 295.472 308.969 302.857 309.893 308.869C310.817 314.881 308.735 321.359 297.654 324.475C286.573 327.591 310.556 339.708 314.323 346.364C318.091 353.021 322.885 378.814 315.298 378.15C307.711 377.486 296.112 353.407 284.412 353.039C272.712 352.67 265.588 355.016 259.908 352.146C254.228 349.276 252.756 360.813 252.574 366.662C252.392 372.512 241.595 382.899 235.42 384.929C229.245 386.959 230.157 396.136 227.424 407.035C224.69 417.934 222.12 389.301 216.421 391.174C210.721 393.048 221.02 425.982 212.64 426.105C204.259 426.229 209.048 415.18 204.833 402.356C200.617 389.531 195.034 401.366 190.759 402.771C186.484 404.177 190.231 415.576 191.46 424.12C192.69 432.663 189.013 442.293 167.711 431.927C146.408 421.56 101.663 421.536 94.6797 427.512C87.6966 433.487 82.6816 423.034 77.958 418.271C73.2343 413.508 52.6665 416.585 48.0991 412.297C43.5316 408.008 39.6216 397.715 31.5927 389.301C23.5639 380.888 18.8468 374.543 15.425 360.931C12.0031 347.319 3.14751 347.598 -2.68883 344.254C-8.52516 340.909 -15.3444 345.782 -15.9295 334.395C-16.5145 323.009 -5.91503 321.63 -11.9009 316.229C-17.8868 310.828 -24.8293 307.321 -27.952 297.821C-31.0748 288.321 -27.2814 288.653 -27.5542 278.216C-27.8269 267.779 -37.3203 269.321 -39.0378 264.096C-40.7553 258.871 -16.6998 253.595 -13.5752 224.673C-10.4505 195.751 -25.0917 218.459 -33.4065 202.771C-41.7213 187.083 -38.7546 196.108 -43.2826 182.333C-47.8106 168.558 -50.1329 156.69 -60.2574 157.912C-70.3818 159.135 -70.5314 157.079 -71.8971 143.317C-72.9897 132.308 -60.2226 111.585 -53.7024 102.599"
        stroke="#DDEAF4" />
    <path
        d="M188.169 408.344C178.588 402.163 183.665 392.756 175.784 394.456C167.903 396.156 160.999 399.739 151.466 396.72C141.932 393.7 144.419 390.816 135.792 384.937C127.164 379.058 122.866 387.662 117.622 386.001C112.379 384.341 122.16 361.739 100.52 342.298C78.8794 322.857 88.7456 348.009 71.1565 345.586C53.5674 343.162 62.624 346.03 48.8007 341.652C34.9774 337.274 23.9904 332.221 19.0644 341.151C14.1385 350.08 12.3828 349 0.418608 342.064C-9.15275 336.515 -18.5042 314.043 -21.9835 303.5"
        stroke="#DDEAF4" />
    <path
        d="M347.312 422.19L351.226 424.732C351.9 421.294 352.709 418.471 354.332 415.804C355.244 414.309 356.383 413.037 357.288 411.583C358.144 410.21 359.156 409.914 360.352 410.879C361.849 412.086 362.797 411.513 363.602 410.024C364.17 410.235 364.64 410.465 365.136 410.583C367.327 411.109 368.384 410.252 367.604 408.2C366.249 404.633 365.817 401.107 366.747 397.407C366.808 397.16 366.578 396.839 366.392 396.277C364.264 396.61 362.08 396.76 360.012 397.329C357.697 397.966 355.489 398.036 353.299 397.109C350.336 395.856 347.396 396.215 344.513 397.234C342.893 397.806 341.416 397.844 340.105 396.745C337.254 394.356 334.319 393.898 331.147 396.071C331.007 396.167 330.751 396.096 330.333 396.109L326.843 391.28C326.102 391.414 325.599 391.544 325.089 391.592C322.503 391.835 320.569 392.864 319.585 395.488C319.246 396.391 318.26 397.052 317.571 397.825C316.266 399.285 314.652 400.587 315.379 402.96C315.497 403.345 315.124 403.929 314.881 404.366C314.024 405.911 313.14 407.442 312.229 408.956C311.16 410.731 311.138 411.673 312.391 413.151C312.916 413.77 313.619 414.238 314.25 414.782L313.812 417.906L319.689 420.53C318.275 422.59 320.704 423.386 321.321 424.741L320.321 428.287L326.954 431.53C328.07 429.776 329.499 428.385 331.82 428.262C332.304 428.237 332.902 427.618 333.191 427.122C334.544 424.8 336.596 424.464 338.83 425.286C340.958 426.07 342.444 425.415 343.813 423.862C344.824 422.715 346.091 422.096 347.312 422.19Z"
        fill="#DDEAF3" />
    <path
        d="M308.458 381.926C308.351 385 307.106 386.631 304.343 386.648C302.797 386.657 302.597 386.019 302.328 381.692C304.213 380.458 306.104 380.931 308.458 381.926ZM292.488 364.611L291.719 358.68C295.703 362.053 295.757 362.391 292.488 364.611ZM313.031 387.508C311.857 390.276 310.453 389.718 308.708 389.02C309.513 387.037 310.828 387.05 313.031 387.508ZM324.887 378.108L324.73 380.937L323.7 381.019C323.517 380.484 323.227 379.956 323.188 379.411C323.157 378.976 323.435 378.52 323.575 378.073L324.887 378.108ZM327.791 447.058L330.074 445.433L330.623 446.224L328.373 447.893L327.791 447.058ZM322.046 454.085L324.953 451.429L325.636 451.935C325.302 452.551 325.082 453.288 324.596 453.738C324.278 454.031 323.574 453.906 322.046 454.085ZM317.739 458.871C318.819 457.528 319.784 457.131 322.208 457.739L317.726 458.885L317.739 458.871Z"
        fill="#DDEAF4" />
    <path
        d="M342.9 434.815C344.82 437.294 343.745 439.07 343.062 440.78C342.089 443.213 340.743 445.514 339.943 447.996C338.884 451.288 337.939 454.66 337.428 458.07C336.99 461.001 336.443 463.593 333.478 464.945C329.285 461.918 328.782 459.231 331.123 455.026C332.697 452.199 334.533 449.444 333.632 445.719C332.923 442.785 334.315 440.218 336.909 438.519C338.783 437.293 340.716 436.159 342.9 434.815ZM300.106 378.563C295.928 376.802 293.68 373.463 291.538 370.135C291.057 369.386 291.625 367.961 291.747 366.376L296.482 368.333L297.44 364.882C301.689 365.305 302.465 365.874 302.067 369.285C301.708 372.346 300.81 375.342 300.106 378.563ZM320.045 394.074C322.899 391.878 325.67 389.503 328.695 387.514C330.438 386.379 332.4 385.623 334.454 385.293C335.415 385.145 336.602 386.459 337.688 387.112C337.036 387.97 336.559 389.26 335.7 389.613C331.817 391.207 328.064 392.727 325.17 396.111C323.243 398.363 321.815 397.637 320.045 394.074ZM319.473 399.39C322.975 403.089 322.96 404.027 319.319 406.81C318.49 407.444 317.531 407.91 316.637 408.462C315.118 409.399 313.513 410.542 312.222 408.284C311.149 406.406 311.904 404.353 313.906 403.046C315.652 401.905 317.395 400.755 319.473 399.39Z"
        fill="#DDEAF4" />
</svg>