<svg width="56" height="56" viewBox="0 0 56 56" fill="none" xmlns="http://www.w3.org/2000/svg">
    <path fill-rule="evenodd" clip-rule="evenodd" d="M27.803 3.59424C38.1879 3.59424 46.6061 11.9343 46.6061 22.2227C46.6061 25.1506 45.9224 27.9205 44.7086 30.3853C42.5571 35.6333 37.1566 46.7137 27.803 55.0005C18.5234 46.7989 13.0485 35.6331 10.8979 30.3853C9.68247 27.9205 9 25.1506 9 22.2227C9 11.9343 17.4181 3.59424 27.803 3.59424ZM27.8047 37.9998C36.6411 37.9998 43.8047 30.8376 43.8047 22.0001C43.8047 13.1635 36.6413 5.99998 27.8047 5.99982C18.9681 5.99982 11.8047 13.1635 11.8047 22.0001C11.8047 30.8376 18.9681 37.9998 27.8047 37.9998Z" fill="#323D47"/>
    <g clip-path="url(#clip0_1256_18929)">
    <path d="M19.5487 19.715L19.4274 20.1279H18.3288L16.6454 26.2876L16.0303 26.4688L16 26.4081L17.5528 20.1279H16.6454L16.7566 19.715H17.6438C17.9665 18.5961 18.2285 17.7595 19.1561 16.9524C19.4283 16.7106 19.8521 16.4688 20.2346 16.4688C20.4359 16.4688 20.6482 16.5496 20.6482 16.7914C20.6482 16.933 20.5471 17.2751 20.366 17.2751C20.1747 17.2751 19.9624 17.0737 19.7307 17.0737C19.1157 17.0737 18.9345 17.7595 18.793 18.3341L18.44 19.715H19.5487Z" fill="#323D47"/>
    <path d="M20.6484 20.9149C20.9004 20.5417 21.6763 19.5643 22.1709 19.5643C22.4228 19.5643 22.5837 19.6747 22.5837 19.9468C22.5837 20.058 22.5433 20.2493 22.4826 20.4709L22.1001 21.8518H22.1203C22.3925 21.3378 23.3403 19.5635 23.9747 19.5635C24.1862 19.5635 24.2873 19.6848 24.2873 19.9064C24.2873 20.128 24.1761 20.652 23.8635 20.652C23.7431 20.652 23.6116 20.6116 23.4911 20.6116C22.7952 20.6116 22.0799 22.5671 21.7471 23.5958L21.566 24.2412C21.5457 24.312 21.384 24.3221 21.2028 24.3221C21.0722 24.3221 20.8801 24.2311 20.8801 24.1409C20.8801 24.1106 20.8902 24.0803 20.9004 24.05L21.6965 21.2679C21.7471 21.1062 21.8179 20.8239 21.8179 20.6731C21.8179 20.5627 21.7572 20.4111 21.6266 20.4111C21.3545 20.4111 20.9408 20.8846 20.7799 21.0868L20.6493 20.9157L20.6484 20.9149Z" fill="#323D47"/>
    <path d="M28.7408 20.3202C28.7408 20.0582 28.5899 19.8871 28.3271 19.8871C27.5511 19.8871 26.7541 21.2984 26.5931 21.964C27.5208 21.9033 28.7399 21.4197 28.7399 20.321L28.7408 20.3202ZM29.1848 23.0121C28.5192 23.7476 27.7836 24.3222 26.8965 24.3222C26.0093 24.3222 25.6562 23.6372 25.6562 22.9615C25.6562 21.3481 27.0978 19.5645 28.5596 19.5645C29.0129 19.5645 29.5479 19.7262 29.5479 20.2806C29.5479 21.6514 27.6227 22.1257 26.5434 22.226C26.4828 22.488 26.4626 22.74 26.4626 23.002C26.4626 23.5058 26.8156 23.778 27.2891 23.778C27.8738 23.778 28.4686 23.3946 29.0432 22.8402L29.1848 23.0121Z" fill="#323D47"/>
    <path d="M31.2833 22.911C31.3844 23.4856 32.0391 23.7173 32.564 23.7173C32.8462 23.7173 33.4613 23.6474 33.4613 23.264C33.4613 22.5681 31.9894 22.135 31.697 21.4795C31.6271 21.338 31.606 21.1669 31.606 21.0161C31.606 20.4912 32.3121 20.038 32.7047 19.786C32.9768 19.615 33.1276 19.5645 33.4512 19.5645C33.864 19.5645 34.3282 19.6757 34.3282 20.1694C34.3282 20.2907 34.2372 20.6235 34.1168 20.6235H33.9954C33.9145 20.6235 33.8943 20.5527 33.8547 20.4727C33.7637 20.2814 33.361 20.1096 33.0282 20.1096C32.6954 20.1096 32.2725 20.2916 32.2725 20.6842C32.2725 21.5107 34.0569 21.7323 34.0569 22.7812C34.0569 23.1747 33.6635 23.6078 33.4014 23.8597C33.0686 24.1925 32.6651 24.3239 32.2017 24.3239C31.7383 24.3239 30.9219 24.1824 30.9219 23.5378C30.9219 23.3061 31.0424 23.114 31.1536 22.9127H31.285L31.2833 22.911Z" fill="#323D47"/>
    <path d="M37.263 21.8223H37.2832C37.7162 21.1365 39.087 19.5643 40.0248 19.5643C40.5589 19.5643 40.7502 19.9469 40.7502 20.4414C40.7502 21.4592 39.5201 24.1713 38.4821 24.1713C38.2908 24.1713 38.2403 24.0702 38.2403 23.9497C38.2403 23.8891 38.2706 23.8082 38.2908 23.7484L38.5023 23.2546H39.1974C39.51 22.6295 39.943 21.46 39.943 20.7649C39.943 20.422 39.8419 20.1701 39.5395 20.1701C38.8435 20.1701 37.6547 21.7128 37.3615 22.2672C37.0186 22.9126 36.9487 23.2251 36.7566 23.991C36.7364 24.082 36.6656 24.1519 36.3227 24.1519C36.1913 24.1519 36 24.1014 36 23.9809C36 23.8798 36.0396 23.7694 36.0598 23.6683L37.653 17.1454L37.1585 16.8632L37.1888 16.7326C37.3497 16.7124 37.6016 16.682 37.8544 16.6416C38.0962 16.6012 38.3279 16.5405 38.5706 16.4697L38.6818 16.5102L37.2604 21.8232L37.263 21.8223Z" fill="#323D47"/>
    </g>
    <defs>
    <clipPath id="clip0_1256_18929">
    <rect width="24.7493" height="10" fill="white" transform="translate(16 16.4688)"/>
    </clipPath>
    </defs>
    </svg>
    