<svg width="115" height="41" viewBox="0 0 115 41" fill="none" xmlns="http://www.w3.org/2000/svg">
    <path d="M95.1493 15.4921C95.8117 14.3441 95.4189 12.8761 94.2709 12.2137C93.1229 11.5513 91.6549 11.9441 90.9925 13.0921L86.9925 20.0201C83.6789 25.7593 85.6453 33.0985 91.3845 36.4121C97.1237 39.7257 104.463 37.7593 107.776 32.0201L110.976 26.4777C111.639 25.3297 111.246 23.8617 110.098 23.1993C108.95 22.5369 107.482 22.9297 106.82 24.0777L107.62 22.6921C108.282 21.5441 107.889 20.0761 106.741 19.4137C105.593 18.7513 104.125 19.1441 103.463 20.2921L104.263 18.9065C104.925 17.7585 104.532 16.2905 103.384 15.6281C102.236 14.9657 100.768 15.3585 100.106 16.5065L105.706 6.80726C106.368 5.65926 105.976 4.19126 104.828 3.52886C103.68 2.86646 102.212 3.25926 101.549 4.40726L92.3493 20.3425L95.1493 15.4921Z" stroke="white" stroke-width="1.4" stroke-miterlimit="10" stroke-linecap="round" stroke-linejoin="round"/>
    <path d="M96.544 5.16195C90.5424 2.09875 83.1504 2.70515 77.6992 6.98035" stroke="#81D2F5" stroke-width="2" stroke-miterlimit="10" stroke-linecap="round" stroke-linejoin="round"/>
    <path d="M96.8992 2.44531V5.64531L93.6992 6.44531" stroke="#81D2F5" stroke-width="2" stroke-miterlimit="10" stroke-linecap="round" stroke-linejoin="round"/>
    <path d="M12.8237 22.3143C12.1613 21.1663 10.6933 20.7727 9.54532 21.4359C8.39732 22.0983 8.00375 23.5663 8.66695 24.7143L12.667 31.6423C15.9806 37.3815 23.3197 39.3487 29.0589 36.0343C34.7981 32.7207 36.7653 25.3815 33.4509 19.6423L30.2509 14.0999C29.5885 12.9519 28.1205 12.5583 26.9725 13.2215C25.8245 13.8839 25.4317 15.3519 26.0941 16.4999L25.2941 15.1143C24.6317 13.9663 23.1637 13.5727 22.0157 14.2359C20.8677 14.8983 20.4742 16.3663 21.1374 17.5143L20.3374 16.1287C19.675 14.9807 18.2069 14.5871 17.0589 15.2503C15.9109 15.9127 15.5173 17.3807 16.1805 18.5287L10.5805 8.82949C9.91813 7.68149 8.45016 7.28789 7.30216 7.95109C6.15416 8.61349 5.76054 10.0815 6.42374 11.2295L15.6237 27.1647L12.8237 22.3143Z" stroke="white" stroke-width="1.4" stroke-miterlimit="10" stroke-linecap="round" stroke-linejoin="round"/>
    <path d="M13.4609 5.16228C20.0729 1.78708 28.373 2.86628 33.9058 8.39908" stroke="#81D2F5" stroke-width="2" stroke-miterlimit="10" stroke-linecap="round" stroke-linejoin="round"/>
    <path d="M13.4609 2.44531V5.64531L16.6609 6.44531" stroke="#81D2F5" stroke-width="2" stroke-miterlimit="10" stroke-linecap="round" stroke-linejoin="round"/>
    </svg>
    