<svg width="12" height="12" viewBox="0 0 12 12" fill="none" xmlns="http://www.w3.org/2000/svg">
    <path
        d="M4.71806 5.68781L0.256458 1.46366C0.090753 1.30302 -0.00138767 1.08701 1.58009e-05 0.862469C0.00141927 0.63793 0.0962538 0.422965 0.263955 0.264188C0.431657 0.105412 0.658706 0.015625 0.895867 0.0142962C1.13303 0.0129674 1.36118 0.100204 1.53086 0.25709L5.99246 4.48124L10.4541 0.25709C10.5374 0.17632 10.6368 0.112007 10.7465 0.0678781C10.8563 0.0237496 10.9742 0.000683038 11.0935 1.4941e-05C11.2127 -0.000653155 11.3309 0.0210907 11.4412 0.0639863C11.5515 0.106882 11.6517 0.170076 11.736 0.249907C11.8204 0.329738 11.8871 0.424619 11.9324 0.529051C11.9777 0.633483 12.0007 0.74539 12 0.858286C11.9993 0.971183 11.9749 1.08282 11.9283 1.18674C11.8817 1.29066 11.8138 1.38478 11.7285 1.46366L7.26686 5.68781L11.7285 9.91196C11.8942 10.0726 11.9863 10.2886 11.9849 10.5132C11.9835 10.7377 11.8887 10.9527 11.721 11.1114C11.5533 11.2702 11.3262 11.36 11.0891 11.3613C10.8519 11.3627 10.6237 11.2754 10.4541 11.1185L5.99246 6.89439L1.53086 11.1185C1.36118 11.2754 1.13303 11.3627 0.895867 11.3613C0.658706 11.36 0.431657 11.2702 0.263955 11.1114C0.0962538 10.9527 0.00141927 10.7377 1.58009e-05 10.5132C-0.00138767 10.2886 0.090753 10.0726 0.256458 9.91196L4.71806 5.68781Z"
        fill="#424A52" />
</svg>
    