<svg width="26" height="22" viewBox="0 0 26 22" fill="none" xmlns="http://www.w3.org/2000/svg">
  <path d="M13 21.1852C12.8377 21.1852 12.6754 21.1288 12.5448 21.0174L2.44608 12.3312C0.999286 11.087 0.135608 9.36643 0.0145834 7.4888C-0.106441 5.61117 0.528939 3.7993 1.80383 2.38738C3.07871 0.975468 4.84045 0.132614 6.76447 0.0145067C8.68711 -0.104942 10.5451 0.516461 11.9919 1.76061L12.9986 2.62628L14.0053 1.76061C15.4535 0.515119 17.3101 -0.1036 19.2342 0.0145067C21.1582 0.132614 22.9213 0.975468 24.1962 2.38738C25.4711 3.7993 26.1064 5.61117 25.9854 7.4888C25.8644 9.36643 25.0007 11.087 23.5539 12.3312L13.4552 21.0174C13.3259 21.1288 13.1637 21.1852 13 21.1852ZM7.22656 1.34187C7.10141 1.34187 6.97626 1.34589 6.85111 1.35395C5.29292 1.44924 3.86675 2.13238 2.83529 3.27453C1.80383 4.41668 1.28947 5.88362 1.38712 7.40425C1.48476 8.92487 2.18478 10.3167 3.35514 11.3232L13 19.6189L22.6449 11.3232C23.8152 10.3167 24.5152 8.92353 24.6129 7.40425C24.7105 5.88362 24.1962 4.41668 23.1647 3.27453C22.1332 2.13104 20.7057 1.44924 19.1489 1.35395C17.5921 1.25866 16.0875 1.76061 14.9171 2.7672L13.4552 4.02478C13.1953 4.24891 12.8061 4.24891 12.5462 4.02478L11.0842 2.7672C10.0074 1.84114 8.64998 1.34187 7.22794 1.34187H7.22656Z" fill="#424A52"/>
</svg>
  