<svg width="26" height="22" viewBox="0 0 26 22" fill="none" xmlns="http://www.w3.org/2000/svg">
  <path d="M12.5448 21.0174C12.6754 21.1288 12.8377 21.1852 13 21.1852C13.1637 21.1852 13.3259 21.1288 13.4552 21.0174L23.5539 12.3312C25.0007 11.087 25.8644 9.36643 25.9854 7.4888C26.1064 5.61117 25.4711 3.7993 24.1962 2.38738C22.9213 0.975468 21.1582 0.132614 19.2342 0.0145067C17.3101 -0.1036 15.4535 0.515119 14.0053 1.76061L12.9986 2.62628L11.9919 1.76061C10.5451 0.516461 8.68712 -0.104942 6.76447 0.0145067C4.84045 0.132614 3.07871 0.975468 1.80383 2.38738C0.528939 3.7993 -0.106441 5.61117 0.0145834 7.4888C0.135608 9.36643 0.999286 11.087 2.44608 12.3312L12.5448 21.0174Z" fill="#424A52"/>
</svg>
  