<svg width="20" height="16" viewBox="0 0 20 16" fill="none" xmlns="http://www.w3.org/2000/svg">
  <path d="M10.2599 16H10.2577C9.97997 16 9.70773 15.9037 9.49234 15.7303C9.49234 15.7303 9.49125 15.7292 9.49015 15.7282L5.24364 12.2608C5.1507 12.1838 5.04137 12.1335 4.92438 12.1142H1.1983C0.880135 12.1142 0.580561 11.9933 0.354241 11.7729C0.126827 11.5524 0 11.257 0 10.9445V4.96126C0 4.31381 0.536828 3.78622 1.1983 3.78515H4.96374C4.98124 3.78515 4.99873 3.78515 5.01622 3.78729C5.0534 3.79157 5.09057 3.77659 5.11572 3.74983C5.119 3.74662 5.12228 3.74234 5.12556 3.73913C5.15836 3.70595 5.19444 3.67385 5.23161 3.64496L9.50655 0.260026C10.0215 -0.146636 10.7781 -0.0674441 11.1936 0.435533C11.3652 0.644215 11.4593 0.905335 11.4593 1.17288V14.8239C11.4571 15.2787 11.1859 15.695 10.7683 15.8887C10.6086 15.9615 10.4337 16 10.2588 16H10.2599ZM10.1888 14.9052C10.2085 14.9213 10.2336 14.9298 10.2599 14.9298C10.2784 14.9277 10.2916 14.9266 10.3058 14.9202C10.3419 14.9031 10.367 14.8646 10.3681 14.8217V1.17395C10.3681 1.1504 10.3594 1.12686 10.344 1.10867C10.3069 1.06372 10.2402 1.0573 10.1954 1.09261L5.91932 4.47968C5.91932 4.47968 5.91713 4.48182 5.91604 4.48289C5.66676 4.74294 5.30596 4.88099 4.94406 4.85531H1.20158C1.14144 4.85531 1.09334 4.9024 1.09334 4.96019V10.9392C1.09334 10.9767 1.11083 11.0002 1.12504 11.0141C1.13926 11.028 1.16331 11.0441 1.19939 11.0441H4.96484C4.9878 11.0441 5.01076 11.0451 5.03372 11.0484C5.37156 11.0901 5.68753 11.226 5.94775 11.4422L10.1888 14.9052ZM15.8665 14.7265H15.8588C15.5571 14.7244 15.3133 14.4836 15.3154 14.1882C15.3176 13.8939 15.5614 13.6563 15.8621 13.6563C15.8632 13.6563 15.8643 13.6563 15.8665 13.6563C15.8807 13.6563 15.8938 13.6521 15.9048 13.6456C16.5258 13.2764 17.0539 12.8024 17.4803 12.2352C18.4424 10.9285 18.9497 9.31683 18.9049 7.70195C18.9049 7.69553 18.9049 7.68911 18.9049 7.68268C18.9191 6.17054 18.356 4.72047 17.3206 3.59894C16.8396 3.06065 16.2666 2.63686 15.6139 2.334C15.3406 2.20772 15.2247 1.88882 15.3537 1.62127C15.4827 1.35373 15.8085 1.2403 16.0819 1.36658C16.8713 1.73257 17.5623 2.24411 18.1373 2.88728C19.3488 4.20037 20.0113 5.90514 19.9971 7.68268C20.0463 9.52765 19.4657 11.3683 18.3637 12.8655C17.8498 13.5504 17.2168 14.1187 16.4788 14.5574C16.2994 14.6676 16.0852 14.7276 15.8654 14.7276L15.8665 14.7265ZM13.7312 12.4727C13.5366 12.4727 13.3485 12.3711 13.2501 12.1913C13.1069 11.9312 13.2053 11.607 13.471 11.4668C13.8865 11.2474 14.2516 10.9552 14.5534 10.6C15.2083 9.82194 15.556 8.83525 15.5308 7.82395C15.5308 7.81967 15.5308 7.81432 15.5308 7.81003C15.533 6.86401 15.134 5.94581 14.4364 5.29087C14.4331 5.28766 14.4309 5.28552 14.4277 5.28231C14.0953 4.95698 13.7072 4.70121 13.2731 4.52249C12.9921 4.42511 12.8423 4.12439 12.9385 3.84722C13.0347 3.56683 13.3453 3.41701 13.6306 3.51118L13.6569 3.51975C13.6645 3.52189 13.6722 3.5251 13.6787 3.52831C14.2484 3.76053 14.7589 4.09442 15.1952 4.52142C16.1037 5.37541 16.6231 6.57185 16.622 7.80468C16.6515 9.06962 16.2153 10.3046 15.3942 11.2816C15.0006 11.745 14.5282 12.1228 13.9892 12.4075C13.9061 12.4513 13.8176 12.4717 13.7301 12.4717L13.7312 12.4727Z" fill="#424A52"/>
</svg>
  