<svg width="10" height="10" viewBox="0 0 10 10" fill="none" xmlns="http://www.w3.org/2000/svg">
<path fill-rule="evenodd" clip-rule="evenodd" d="M8.31256 0.000211763C7.92628 0.00666744 7.53865 0.160521 7.24205 0.457107L6.74499 0.954133L0.62072 7.07751C0.588134 7.11024 0.565357 7.15144 0.554962 7.19644L0.00665174 9.49543C-0.00307769 9.53655 -0.00211994 9.57948 0.009434 9.62012C0.0209879 9.66076 0.0427532 9.69778 0.0726582 9.72763C0.102563 9.75749 0.139612 9.77919 0.180279 9.79068C0.220945 9.80216 0.263875 9.80305 0.304982 9.79326L2.60557 9.24498C2.64989 9.23426 2.69038 9.2115 2.72258 9.17923L8.84637 3.05537L9.34342 2.55835C9.93663 1.96518 9.95688 1.00864 9.37437 0.426166C9.08311 0.134927 8.69883 -0.00624485 8.31256 0.000211763ZM8.31789 0.492402C8.57612 0.487631 8.83132 0.582744 9.02528 0.776694C9.4132 1.16459 9.4061 1.79801 8.99434 2.20975L8.67183 2.53224L7.27107 1.12964L7.59261 0.80812C7.7985 0.60225 8.05967 0.497188 8.31789 0.492402ZM6.92002 1.48065L8.32175 2.88035L3.05041 8.15278L1.64965 6.75067L6.92002 1.48065ZM1.2991 7.1012L2.70082 8.50283L2.4228 8.78083L0.582524 9.21742L1.02108 7.3792L1.2991 7.1012Z" fill="white"/>
</svg>
