<svg width="20" height="19" viewBox="0 0 20 19" fill="none" xmlns="http://www.w3.org/2000/svg">
  <path d="M19.8079 17.1796L13.6839 11.7322C14.4806 10.5329 14.947 9.09205 14.947 7.54235C14.947 3.38346 11.5944 0 7.47351 0C3.35258 0 0 3.38346 0 7.54235C0 11.7012 3.35258 15.0847 7.47351 15.0847C9.65144 15.0847 11.6137 14.1386 12.9813 12.6336L19.0577 18.0386C19.1656 18.1349 19.2995 18.1818 19.4323 18.1818C19.59 18.1818 19.7455 18.1165 19.8579 17.9882C20.0656 17.7512 20.0429 17.3892 19.8079 17.1796ZM7.47351 13.9393C3.97793 13.9393 1.13493 11.0701 1.13493 7.54235C1.13493 4.01457 3.97793 1.14538 7.47351 1.14538C10.9691 1.14538 13.8121 4.01457 13.8121 7.54235C13.8121 11.0701 10.9691 13.9393 7.47351 13.9393Z" fill="#424A52"/>
</svg>
  