<svg width="46" height="46" viewBox="0 0 46 46" fill="none" xmlns="http://www.w3.org/2000/svg">
    <circle cx="22.7246" cy="22.7246" r="21.7246" stroke="#323D47" stroke-opacity="0.3"
        stroke-width="2" />
    <g opacity="0.2">
        <path
            d="M19.3221 30.947C18.9926 30.947 18.663 30.8205 18.4125 30.57L11.3777 23.5352C10.8741 23.0316 10.8741 22.2169 11.3777 21.7133C11.8813 21.2096 12.6961 21.2096 13.1997 21.7133L20.2344 28.7507C20.7381 29.2543 20.7381 30.069 20.2344 30.5726C19.9813 30.8231 19.6517 30.947 19.3221 30.947Z"
            fill="#323D47" />
        <path
            d="M19.3221 30.947C18.9926 30.947 18.663 30.8205 18.4125 30.57C17.9089 30.0664 17.9089 29.2516 18.4125 28.748L32.4846 14.6785C32.9883 14.1749 33.803 14.1749 34.3066 14.6785C34.8102 15.1821 34.8102 15.9969 34.3066 16.5005L20.2344 30.57C19.9813 30.8231 19.6517 30.947 19.3221 30.947Z"
            fill="#323D47" />
    </g>
</svg>
    