<svg width="45" height="35" viewBox="0 0 45 35" fill="none" xmlns="http://www.w3.org/2000/svg">
    <path
        d="M1.78602 23.2759C1.22121 21.3819 0.681924 19.5102 0.656416 17.5458C0.598114 12.7274 2.60589 8.83201 6.217 5.88541C13.3991 0.0292876 21.4959 -1.54965 30.1903 1.56744C39.7701 5.00328 42.6525 15.4183 37.4198 23.9319C33.6046 30.1364 27.778 33.424 20.8437 34.6842C13.8109 35.9629 8.13372 33.2869 3.52782 27.9497C2.32533 26.556 1.26129 25.055 0.324808 23.4612C0.142613 23.1536 -0.188987 22.7978 0.138965 22.4679C0.499712 22.1084 0.78758 22.5568 1.07181 22.7384C1.31959 22.8978 1.54552 23.0943 1.78237 23.2759H1.78602ZM22.6984 2.57928C16.7078 2.57928 11.7084 4.32872 7.77296 7.67191C5.00723 10.0218 3.05045 12.9424 2.89741 16.697C2.5403 25.3552 8.71674 31.6116 17.0941 31.9711C21.0878 32.1416 24.7937 30.8666 28.2335 28.8355C31.9357 26.6487 34.9456 23.7837 36.436 19.5917C38.4219 13.9987 36.8514 8.10925 31.4183 4.94768C28.4886 3.24273 25.3038 2.65712 22.6984 2.58299V2.57928Z"
        fill="#E2EFF8" />
    <path
        d="M12.7539 29.92C12.145 29.8517 11.655 29.2836 11.4172 28.3895C10.4371 24.6816 9.05714 21.2524 7.92576 17.6497C7.6231 16.6819 7.10065 15.3986 8.01223 14.7412C8.92382 14.0838 9.16525 15.6038 9.51835 16.4242C10.5993 18.9277 11.6514 21.4575 12.6783 24.0136C12.9701 24.7395 13.1611 24.8657 13.6115 24.2398C21.477 13.3369 31.0865 7.53573 41.4706 4.02766C42.393 3.71735 43.3262 3.44912 44.2558 3.20719C44.5225 3.13881 44.908 2.99681 44.9909 3.57536C45.0593 4.04345 44.7278 4.18019 44.49 4.32219C43.0956 5.14793 41.7012 5.97893 40.3032 6.77837C34.4806 10.1129 28.7481 13.7261 23.3795 18.4754C20.2268 21.2629 17.3839 24.6132 14.7572 28.3738C13.979 29.4888 13.3917 29.9516 12.7467 29.9253L12.7539 29.92Z"
        fill="#E2EFF8" />
</svg>
    