<svg width="46" height="46" viewBox="0 0 46 46" fill="none" xmlns="http://www.w3.org/2000/svg">
    <circle cx="22.7246" cy="22.7246" r="22.7246" fill="#323D47" />
    <path
        d="M18.9628 30.947C18.6332 30.947 18.3036 30.8205 18.0531 30.57L11.0183 23.5352C10.5147 23.0316 10.5147 22.2169 11.0183 21.7133C11.5219 21.2096 12.3367 21.2096 12.8403 21.7133L19.8751 28.7507C20.3787 29.2543 20.3787 30.069 19.8751 30.5726C19.6219 30.8231 19.2924 30.947 18.9628 30.947Z"
        fill="white" />
    <path
        d="M18.9628 30.947C18.6332 30.947 18.3036 30.8205 18.0531 30.57C17.5495 30.0664 17.5495 29.2516 18.0531 28.748L32.1253 14.6785C32.6289 14.1749 33.4436 14.1749 33.9472 14.6785C34.4509 15.1821 34.4509 15.9969 33.9472 16.5005L19.8751 30.57C19.6219 30.8231 19.2924 30.947 18.9628 30.947Z"
        fill="white" />
</svg>
    