<svg width="50" height="50" viewBox="0 0 50 50" fill="none" xmlns="http://www.w3.org/2000/svg">
    <circle cx="25" cy="25" r="25" fill="#E2EFF8" />
    <path
        d="M8.72 36.23L8.61 35.93H12.82L13.19 35.41L13.96 36.04C14.0067 36.08 14.01 36.1167 13.97 36.15L13.64 36.42C13.5867 37.3733 13.5067 38.3733 13.4 39.42C13.3467 39.8933 13.2267 40.2433 13.04 40.47C12.8533 40.6967 12.5133 40.89 12.02 41.05C11.94 41.0833 11.8933 41.06 11.88 40.98C11.86 40.7533 11.78 40.57 11.64 40.43C11.5 40.29 11.1967 40.1333 10.73 39.96L10.75 39.8L12.01 39.99C12.2233 40.0233 12.3833 39.9833 12.49 39.87C12.59 39.75 12.6567 39.5267 12.69 39.2C12.7967 38.3733 12.88 37.3633 12.94 36.17H10.91C10.77 37.67 10.4333 38.76 9.9 39.44C9.36667 40.1133 8.46 40.6667 7.18 41.1L7.11 40.95C8.12333 40.41 8.85667 39.81 9.31 39.15C9.76333 38.49 10.05 37.4967 10.17 36.17H9.2L8.72 36.23ZM11.95 31.84L12.77 32.11C12.8233 32.1233 12.83 32.1533 12.79 32.2L12.48 32.45C13.0533 34.1433 14.17 35.2833 15.83 35.87L15.8 36.01C15.5133 36.03 15.31 36.08 15.19 36.16C15.0633 36.2333 14.95 36.3767 14.85 36.59C14.0833 36.0567 13.4833 35.43 13.05 34.71C12.61 33.99 12.2433 33.0333 11.95 31.84ZM10 32.09L10.93 32.68C10.9767 32.7267 10.9667 32.7633 10.9 32.79C10.6867 32.85 10.51 33.0133 10.37 33.28C9.97 34.1067 9.51667 34.8067 9.01 35.38C8.49667 35.9533 7.86 36.5033 7.1 37.03L7 36.9C7.61333 36.28 8.13 35.68 8.55 35.1C8.96333 34.52 9.31333 33.8967 9.6 33.23C9.77333 32.8633 9.90667 32.4833 10 32.09ZM18.23 34.86V33.74L19.03 34.13H22.39L22.74 33.64L23.5 34.16C23.5467 34.1867 23.5467 34.22 23.5 34.26L23.19 34.52V34.7C23.1967 35.1067 23.2033 35.51 23.21 35.91C23.0433 36.0433 22.81 36.1233 22.51 36.15V35.71H18.91V36.01C18.7167 36.1633 18.48 36.2433 18.2 36.25C18.2133 35.79 18.2233 35.3267 18.23 34.86ZM21.19 40.25C21.19 40.6233 20.8433 40.9167 20.15 41.13C20.0767 41.17 20.03 41.1467 20.01 41.06C19.95 40.82 19.85 40.6433 19.71 40.53C19.5633 40.41 19.2633 40.2833 18.81 40.15L18.85 39.98L19.99 40.12C20.1567 40.14 20.2767 40.12 20.35 40.06C20.4167 39.9933 20.45 39.8667 20.45 39.68V38.65H17.06L16.54 38.71L16.43 38.41H20.45V37.38L21.12 37.73L22.63 36.79H18.1L17.64 36.85L17.52 36.55H22.69L23.24 36.2L23.9 37.01C23.94 37.0633 23.9333 37.0967 23.88 37.11L23.37 37.14L21.19 37.97V38.41H23.75L24.3 37.72L25.2 38.56L25.15 38.65H21.19V40.25ZM22.51 34.37H18.91V35.47H22.51V34.37ZM20.11 31.75C20.47 31.8767 20.7667 32.01 21 32.15C21.2 32.2767 21.2967 32.4167 21.29 32.57C21.27 32.8033 21.1667 32.9833 20.98 33.11H23.64L24.13 32.47L25.02 33.26L24.97 33.35H17.33L16.82 33.41L16.71 33.11H20.68C20.64 33.0633 20.61 33.0033 20.59 32.93C20.4767 32.5167 20.29 32.15 20.03 31.83L20.11 31.75ZM33.64 32.82L34.52 33.64L34.47 33.73H29.84C29.5867 34.27 29.3133 34.7733 29.02 35.24L29.16 35.31H32.03L32.39 34.77L33.19 35.34C33.23 35.3667 33.23 35.4033 33.19 35.45L32.88 35.73V40.22C32.88 40.4067 32.8033 40.57 32.65 40.71C32.4967 40.85 32.2433 40.9767 31.89 41.09C31.8167 41.13 31.77 41.1067 31.75 41.02C31.71 40.8 31.62 40.6333 31.48 40.52C31.34 40.4 31.0733 40.2867 30.68 40.18L30.71 40.02L31.77 40.14C31.91 40.1533 32.01 40.13 32.07 40.07C32.13 40.0033 32.16 39.88 32.16 39.7V38.55H29.07V40.82C28.8633 41.0067 28.6133 41.1 28.32 41.1C28.3533 40.3533 28.37 39.23 28.37 37.73V36.16C27.6967 37.0067 26.87 37.7833 25.89 38.49L25.8 38.35C27.22 36.9633 28.3067 35.4233 29.06 33.73H26.62L26.1 33.79L25.98 33.49H29.16C29.24 33.2967 29.32 33.1 29.4 32.9C29.5467 32.52 29.6567 32.1533 29.73 31.8L30.68 32.31C30.7267 32.35 30.72 32.3833 30.66 32.41C30.4667 32.4567 30.3233 32.61 30.23 32.87C30.1367 33.0767 30.0433 33.2833 29.95 33.49H33.11L33.64 32.82ZM32.16 35.55H29.07V36.84H32.16V35.55ZM29.07 37.08V38.31H32.16V37.08H29.07ZM41.48 32.48L41.14 32.77V39.6C41.14 39.78 41.1667 39.8967 41.22 39.95C41.2733 40.0033 41.3833 40.03 41.55 40.03H42.42C42.68 40.03 42.8633 39.99 42.97 39.91C43.07 39.83 43.1367 39.6933 43.17 39.5L43.46 38.05L43.61 38.08L43.66 39.44C43.6667 39.5933 43.6933 39.7067 43.74 39.78C43.78 39.8533 43.8667 39.92 44 39.98C43.9 40.2733 43.75 40.4767 43.55 40.59C43.3433 40.6967 43.0133 40.75 42.56 40.75H41.39C41.0233 40.75 40.77 40.6733 40.63 40.52C40.49 40.3667 40.42 40.0867 40.42 39.68V31.87L41.47 32.36C41.5367 32.3933 41.54 32.4333 41.48 32.48ZM38.4 33.68L39.14 34.36C39.18 34.4067 39.1767 34.44 39.13 34.46L38.73 34.64C38.4567 35.0933 38.18 35.5033 37.9 35.87V36.03C38.4933 36.3233 38.9433 36.6067 39.25 36.88C39.3833 36.9933 39.45 37.1233 39.45 37.27C39.45 37.4167 39.3967 37.5667 39.29 37.72C39.1767 37.8667 39.0767 37.94 38.99 37.94C38.9033 37.94 38.8233 37.85 38.75 37.67C38.5567 37.15 38.2733 36.6767 37.9 36.25V40.85C37.7133 41.0233 37.4733 41.1167 37.18 41.13C37.2 40.0767 37.2167 39.0233 37.23 37.97V36.67C36.6633 37.2833 35.97 37.8733 35.15 38.44L35.06 38.31C36.3467 37.0367 37.3467 35.73 38.06 34.39H35.85L35.37 34.45L35.26 34.15H38L38.4 33.68ZM36.87 31.9C37.3033 32.1333 37.6533 32.3833 37.92 32.65C38.0267 32.7633 38.08 32.8867 38.08 33.02C38.08 33.1533 38.0233 33.2933 37.91 33.44C37.79 33.58 37.68 33.65 37.58 33.65C37.4667 33.65 37.39 33.5533 37.35 33.36C37.2567 32.86 37.0767 32.3967 36.81 31.97L36.87 31.9Z"
        fill="black" />
    <path
        d="M31.5174 17.8078C31.0201 17.8078 30.6168 18.2111 30.6168 18.7084V24.9512H19.5102V13.9555H26.2482C26.7457 13.9555 27.1488 13.5521 27.1488 13.0549C27.1488 12.5576 26.7455 12.1543 26.2482 12.1543H18.6096C18.1121 12.1543 17.709 12.5576 17.709 13.0549V25.852C17.709 26.3494 18.1123 26.7525 18.6096 26.7525H31.5174C32.0148 26.7525 32.418 26.3492 32.418 25.852V18.7084C32.418 18.2111 32.0148 17.8078 31.5174 17.8078Z"
        fill="#323C48" />
    <path
        d="M34.1015 11.6047C33.9297 11.3792 33.6416 11.2165 33.3777 11.2506L29.7062 11.2844C29.2088 11.2893 28.8095 11.6959 28.814 12.1934C28.8185 12.6877 29.2209 13.0856 29.7146 13.0856H29.723L30.734 13.0762L24.6625 17.7417C24.2679 18.0446 24.1941 18.6102 24.497 19.0047C24.6742 19.2356 24.9416 19.3565 25.2117 19.3565C25.4035 19.3565 25.5965 19.2958 25.7601 19.17L31.7722 14.5502L31.439 15.7293C31.3041 16.2083 31.5824 16.7057 32.0609 16.8411C32.1427 16.8639 32.2254 16.8754 32.3062 16.8754C32.6994 16.8754 33.0603 16.6161 33.1726 16.2194L34.2527 12.3963C34.3297 12.1231 34.2738 11.8299 34.1015 11.6047Z"
        fill="#323C48" />
</svg>
    