<svg width="40" height="40" viewBox="0 0 40 40" fill="none" xmlns="http://www.w3.org/2000/svg">
    <path
        d="M12.8 17.5984C12.8 16.2728 11.7256 15.1984 10.4 15.1984C9.0744 15.1984 8 16.2728 8 17.5984V25.5984C8 32.2256 13.3728 37.5984 20 37.5984C26.6272 37.5984 32 32.2256 32 25.5984V19.9984C32 18.6728 30.9256 17.5984 29.6 17.5984C28.2744 17.5984 27.2 18.6728 27.2 19.9984V18.3984C27.2 17.0728 26.1256 15.9984 24.8 15.9984C23.4744 15.9984 22.4 17.0728 22.4 18.3984V16.7984C22.4 15.4728 21.3256 14.3984 20 14.3984C18.6744 14.3984 17.6 15.4728 17.6 16.7984V4.79844C17.6 3.47284 16.5256 2.39844 15.2 2.39844C13.8744 2.39844 12.8 3.47284 12.8 4.79844V24.7984V17.5984V17.5984Z"
        stroke="white" stroke-width="1.4" stroke-miterlimit="10" stroke-linecap="round"
        stroke-linejoin="round" />
</svg>
    