<svg width="33" height="33" viewBox="0 0 33 33" fill="none" xmlns="http://www.w3.org/2000/svg">
    <path
        d="M25.4734 14.4297C25.4734 10.1915 22.5329 6.64358 18.5708 5.70485V4.76609C18.5708 3.62028 17.6459 2.69531 16.5 2.69531C15.3542 2.69531 14.4292 3.62025 14.4292 4.76609V5.70485C10.4671 6.64361 7.52667 10.1915 7.52667 14.4297V22.0225L4.76562 24.7836V26.1641H28.2344V24.7836L25.4734 22.0225V14.4297ZM16.5 30.3057C16.6933 30.3057 16.8728 30.2919 17.0522 30.2504C17.9496 30.071 18.695 29.4497 19.0402 28.6214C19.1782 28.2901 19.2611 27.9312 19.2611 27.5446H13.739C13.739 29.0632 14.9814 30.3057 16.5 30.3057Z"
        fill="#323D47" />
</svg>
    