<svg width="211" height="72" viewBox="0 0 211 72" fill="none" xmlns="http://www.w3.org/2000/svg">
    <path
        d="M11.5047 59.98V60.44C11.5047 60.54 11.4847 60.6 11.3847 60.66C10.9447 60.88 10.5247 61.12 10.0247 61.22C9.94469 61.2 9.88469 61.14 9.86469 61.06L9.88469 57.92C9.88469 56.74 9.86469 55.58 9.82469 54.42C10.5247 54.64 11.1447 55 11.8247 55.28H15.2647L15.9047 54.42C15.9647 54.36 16.1847 54.34 16.2847 54.42L17.6247 55.36C18.0247 55.64 17.3247 55.98 17.1647 56.34L17.1047 56.66C17.1047 57.92 17.0847 59.04 17.1647 60.26C17.1847 60.4 17.0047 60.5 16.8247 60.6C16.4047 60.72 16.0247 61 15.6447 60.98C15.5647 60.96 15.4447 60.9 15.4247 60.82V59.98H15.3447H11.5047ZM15.4447 59.36V55.9H11.5247V59.36H15.4447ZM1.36469 67.78L1.08469 67.5C3.20469 65.1 4.62469 62.38 4.72469 59.14H2.98469C2.72469 59.14 2.34469 59.16 1.86469 59.3L1.22469 58.52H4.76469C4.80469 57.26 4.80469 55.9 4.80469 54.88H4.08469C3.40469 56.08 2.60469 57.28 1.64469 58.38L1.32469 58.16C2.64469 55.6 3.56469 52.84 3.94469 49.9C4.74469 50.16 5.50469 50.5 6.26469 50.86C6.38469 50.94 6.38469 51.08 6.32469 51.2C6.04469 51.38 5.62469 51.34 5.46469 51.74C5.10469 52.56 4.82469 53.28 4.40469 54.26H6.62469L7.32469 53.1C7.38469 53.02 7.62469 53.04 7.66469 53.08C8.16469 53.52 8.70469 54.08 9.10469 54.6C9.16469 54.68 9.10469 54.88 8.96469 54.88H6.62469C6.56469 56.08 6.50469 57.04 6.44469 58.52H6.94469L7.86469 57.28C7.90469 57.2 8.10469 57.18 8.18469 57.26C8.76469 57.72 9.28469 58.28 9.72469 58.82C9.78469 58.94 9.70469 59.1 9.58469 59.14H6.40469C6.32469 59.88 6.22469 60.48 6.06469 61.14C6.32469 61.32 6.68469 61.42 6.96469 61.58C7.70469 62.02 8.70469 62.38 8.98469 63.3C9.08469 64.04 8.80469 64.72 8.20469 65.1C7.98469 65.12 7.76469 65.08 7.68469 64.92C7.26469 63.78 6.86469 62.62 5.98469 61.7C5.20469 64.06 3.44469 66.16 1.36469 67.78ZM15.7847 52L16.7247 50.58C16.7847 50.48 17.0247 50.48 17.0847 50.58C17.7647 51.18 18.2447 51.68 18.7647 52.24C18.8647 52.42 18.8047 52.62 18.5847 52.62H10.3447C9.86469 52.62 9.32469 52.74 8.82469 52.8L8.20469 52H11.0247H15.7847ZM16.2847 66.46L17.3447 65.02C17.4247 64.92 17.6047 64.94 17.7047 65.02C18.2847 65.54 18.9447 66.1 19.4847 66.74C19.5247 66.84 19.5047 67.04 19.2847 67.04H9.46469C8.96469 67.04 8.48469 67.14 8.02469 67.22L7.54469 66.48L13.3647 66.46C14.0247 64.7 14.5647 62.94 14.6647 60.94C15.4447 61.18 16.1447 61.58 16.8647 61.9C16.9647 62 17.0247 62.12 16.9447 62.24C16.7447 62.46 16.4247 62.36 16.2647 62.6C15.7047 63.84 14.9647 65.22 14.1447 66.44L16.2847 66.46ZM10.2647 61.52L10.5847 61.32C11.3847 61.96 12.3847 62.7 12.7647 63.68C12.9847 64.28 12.6647 64.82 12.3247 65.28C11.9047 65.68 11.6847 65.72 11.4847 65.62C11.3447 65.52 11.1847 65.3 11.1447 65.14C11.0047 63.82 10.9647 62.62 10.2647 61.52ZM22.6447 51.88H28.1847V64.9H22.6447V63.54H26.7847V53.24H22.6447V51.88ZM22.7247 57.62H27.3047V58.96H22.7247V57.62ZM21.9247 51.88H23.3447V66.5H21.9247V51.88ZM29.0847 54.22H39.5247V55.7H29.0847V54.22ZM35.5847 50.32H37.1047V66.34C37.1047 67.44 36.8047 67.9 36.0847 68.14C35.3647 68.38 34.1047 68.42 32.0847 68.4C32.0047 67.98 31.7647 67.3 31.5447 66.88C33.1047 66.92 34.5647 66.92 35.0047 66.9C35.4247 66.88 35.5847 66.76 35.5847 66.34V50.32ZM29.7647 57.96L31.0047 57.32C32.0847 58.84 33.4647 60.88 34.1447 62.08L32.8247 62.86C32.1847 61.64 30.8447 59.5 29.7647 57.96ZM58.7647 52.46C58.9247 52.78 58.5447 52.78 58.3847 52.98C58.0647 53.12 57.9647 53.48 57.9647 53.8V61.24L57.9447 66.52C57.6647 67.58 56.5247 68 55.6847 68.42H55.6047C55.4847 67.94 55.3447 67.4 54.8847 67.08C54.3647 66.74 53.7447 66.5 53.1647 66.28L53.2847 65.92C54.1847 66.04 55.2247 66.2 56.2047 66.14C56.7047 65.92 56.3647 65.3 56.4647 64.84V52.68H50.3247L48.8047 52.82L48.4247 52.1L56.2447 52.08C56.4847 51.78 56.7647 51.44 57.0447 51.2C57.4047 51.26 57.6847 51.54 57.9647 51.74L58.7647 52.46ZM47.4247 52.38C47.4847 52.9 47.3047 53.36 47.0047 53.76C46.9047 53.9 46.7447 53.94 46.6047 53.96C46.4047 53.94 46.2047 53.8 46.1447 53.6C45.6447 52.36 44.9447 51.14 43.8247 50.24C44.3247 49.64 44.9047 50.32 45.4047 50.46C46.1647 50.88 47.2047 51.44 47.4247 52.38ZM54.5247 56.08C54.4047 56.42 53.7647 56.5 53.8447 56.92V63.34C53.8447 63.9 54.1047 64.68 53.4047 64.96C53.1247 65.12 52.8647 65.24 52.5647 65.28C52.4647 65.22 52.3047 65.18 52.3047 65.02L52.3447 64H47.9247C47.8647 64.48 48.1247 65.2 47.5447 65.46C47.2247 65.6 46.9247 65.8 46.5447 65.76C46.4847 65.7 46.3447 65.66 46.3647 65.54C46.3847 65.02 46.4247 64.44 46.4247 63.96V56.08L46.3847 54.94C46.9247 55.14 47.4047 55.46 47.9047 55.76L52.1647 55.78C52.3847 55.48 52.5847 55.16 52.8447 54.9C52.9847 54.86 53.1047 54.96 53.2047 55L54.1447 55.66C54.2647 55.82 54.5047 55.88 54.5247 56.08ZM44.7447 54.06C44.5047 54.4 44.0047 54.44 43.8447 54.82V65.5L43.8847 67.3C43.7247 67.9 43.1247 68.02 42.6247 68.18C42.4447 68.22 42.2847 68.12 42.2647 67.94L42.3247 64.5V56.28C42.3247 55.2 42.2847 54.02 42.2247 52.88C43.1047 53.08 43.9247 53.4 44.7047 53.82C44.7647 53.88 44.7647 53.98 44.7447 54.06ZM52.3647 59.7V56.38H47.9447V59.7H52.3647ZM52.3447 63.4V60.3H47.9447V63.4H52.3447ZM64.3247 65.06V66.22C64.2847 66.44 64.1247 66.44 64.0047 66.54C63.6247 66.74 63.2247 66.92 62.8047 67.04C62.7247 67.04 62.6247 67 62.5847 66.9L62.6447 63.22V55.9C62.6447 55.22 62.6247 54.46 62.5247 53.76C63.2047 54.06 63.8047 54.36 64.4847 54.78H64.6047C64.9847 53.36 65.3247 51.84 65.3447 50.34C66.2047 50.56 66.9847 50.94 67.7647 51.34C67.8247 51.42 67.8647 51.54 67.7847 51.62C67.5447 51.78 67.2447 51.84 67.0247 52.04C66.4447 52.92 66.0047 53.64 65.3447 54.74L67.5247 54.78L68.2447 53.78C68.3247 53.68 68.4847 53.7 68.5847 53.78C69.1847 54.2 69.6047 54.5 70.1447 54.94C70.3247 55.16 69.9247 55.32 69.5447 55.7L69.4247 55.82V57.46V63.84L69.4847 65.64C69.5047 65.98 68.6847 66.24 67.9847 66.48C67.8647 66.5 67.7047 66.48 67.7047 66.36V65.06H64.3247ZM67.7847 55.38H64.3647V59.4L67.7847 59.42V55.38ZM64.3447 64.46H67.7447V60H64.3447V64.46ZM76.1647 54.86L76.8847 53.86C76.9647 53.82 77.0647 53.82 77.1447 53.84C77.7247 54.24 78.2647 54.64 78.8647 55.1V55.26C78.6047 55.52 78.1847 55.68 78.0847 56.06L78.0047 59.16L77.8647 62.86C77.8047 64.42 77.7647 66.18 77.2247 67.06C76.6047 67.78 75.7247 68.1 74.9047 68.42H74.7247C74.7047 67.32 73.5447 66.6 72.6447 66.34L71.7447 66.08L71.7847 65.62C72.9247 65.82 74.0847 65.96 75.2647 66C75.5047 65.96 75.7447 65.84 75.8647 65.62L75.9847 65.24L76.2847 61.36L76.4047 57.02V55.46H72.8447C72.0447 56.9 71.2047 58.32 70.0447 59.6L69.7647 59.42L70.4047 57.96L71.4847 55.16C72.1047 53.54 72.5047 51.84 72.7047 50.04C73.5247 50.36 74.3847 50.74 75.1047 51.16C75.1847 51.26 75.2447 51.44 75.0647 51.52C74.8047 51.68 74.5447 51.72 74.4047 52C73.9647 52.92 73.5647 53.92 73.1247 54.86H76.1647ZM71.5647 58.42L71.7247 58.1C72.7447 58.58 73.8647 59.08 74.5247 60.06C75.0447 61.02 74.3047 61.94 73.7647 62.66C73.6447 62.74 73.4647 62.72 73.3447 62.68C73.0847 62.52 73.1247 62.22 73.0247 61.98C72.7647 60.68 72.3247 59.52 71.5647 58.42ZM91.0047 52.52H93.3647C93.7247 52.16 93.8047 52.06 94.1047 51.82C94.1847 51.72 94.2647 51.76 94.3447 51.84C94.8647 52.18 95.3647 52.52 95.9047 52.92C96.0247 53.02 95.9847 53.16 95.9447 53.24C95.8047 53.44 95.5047 53.32 95.3047 53.34C94.6647 53.4 94.2047 54.02 93.7247 54.44L92.9447 55.14L95.2047 55.2C95.5247 54.88 95.7447 54.6 96.0047 54.36C96.1047 54.28 96.2447 54.28 96.3847 54.4C96.7647 54.66 97.2047 54.98 97.5847 55.3C97.7047 55.42 97.6847 55.58 97.5847 55.68C97.0847 55.98 96.9847 56.3 97.0647 56.9C97.0647 57.64 97.0647 58.38 97.1047 59.06C96.9847 59.4 96.5847 59.42 96.3047 59.58C96.0647 59.64 95.8047 59.8 95.5647 59.7C95.4047 59.42 95.5047 59.18 95.5047 58.88H92.5447L92.4847 59.08C92.8847 59.24 93.1847 59.32 93.6647 59.52C93.9847 59.7 93.4647 59.96 93.4047 60.14V63.22C93.4047 63.74 93.8047 63.72 94.0447 63.74C94.8647 63.8 95.8247 63.76 96.6447 63.6C97.2047 63.48 97.3447 62.32 97.4447 61.58L97.6247 60.3L98.0447 60.34C98.0047 61.16 98.0047 62.04 98.3447 62.76C98.4847 63.06 98.8447 63.2 99.1047 63.4C98.8447 64.28 98.1047 64.92 97.1847 65.02C95.6847 65.18 93.8847 65.42 92.7647 64.98C92.1247 64.66 91.9847 64 91.9847 62.44V60.54C91.0847 62.74 88.9047 64.22 86.8247 65.2L86.5247 64.88C87.8847 63.94 89.0247 62.86 89.9447 61.56C90.5247 60.74 90.9247 59.84 91.1247 58.88H89.2247V59.42C89.2047 59.5 89.1647 59.58 89.0847 59.66C88.7047 59.88 88.3647 60.08 87.9047 60.24C87.8047 60.2 87.7047 60.18 87.7047 60.02L87.7847 58.7V56.3C87.2247 56.74 86.7447 56.98 86.1247 57.36L85.8847 57.1C87.8247 54.9 89.4647 52.86 90.2847 50.14C90.9447 50.38 91.5847 50.68 92.1847 50.98C92.3047 51.04 92.3647 51.16 92.3047 51.28C92.1047 51.5 91.7447 51.42 91.6047 51.72L91.0047 52.52ZM89.2247 55.78V58.28H91.2047C91.3447 57.46 91.3847 56.66 91.3847 55.78H89.2247ZM95.5247 58.3V55.76L93.0247 55.78C92.9447 56.6 92.8447 57.56 92.6647 58.3H95.5247ZM93.2847 53.1L90.6047 53.08C90.0647 53.8 89.4447 54.5 88.8247 55.2H92.0047C92.4847 54.56 93.0247 53.86 93.2847 53.1ZM93.9047 60L94.0247 59.78C94.6047 59.98 95.7847 60.26 96.2447 60.72C96.5447 61.04 96.4847 61.54 96.3647 61.92C96.2447 62.16 96.0447 62.42 95.7647 62.54C95.6047 62.56 95.4447 62.58 95.3447 62.4C95.0047 61.56 94.6247 60.68 93.9047 60ZM82.2647 51.08L82.4847 50.76C83.6647 51.06 84.6247 51.44 85.5447 52.3C85.9647 52.68 86.1047 53.36 85.9247 53.94C85.7847 54.28 85.6247 54.76 85.1847 54.84C84.6047 54.82 84.4647 54.08 84.2047 53.58C83.8847 52.96 83.4647 52.36 83.1847 51.98C82.9047 51.6 82.6447 51.34 82.2647 51.08ZM80.9247 57.72H83.5647C83.8647 57.34 84.2647 56.94 84.6047 56.62C85.0647 56.7 85.3247 57.06 85.7047 57.32C85.9447 57.58 86.1047 57.62 86.2447 57.9C86.2047 58.18 85.8647 58.18 85.7047 58.38C85.3047 58.86 85.4047 59.68 85.4047 60.42V64.06C86.0847 65 87.0447 65.8 88.1447 66C88.9647 66.14 89.7247 66.28 90.5647 66.28H94.0047L98.5847 66.08L99.6647 66L99.5247 66.44C98.7247 66.64 97.7647 67 97.5647 67.92L91.4447 67.94C88.7847 67.94 86.1047 67.1 84.7047 64.62L82.6647 67.08C82.4047 67.38 82.2447 67.72 82.0847 68C81.8247 68.18 81.6047 67.62 81.4847 67.42C81.2647 67.04 80.9847 66.56 80.7647 66.14C81.5647 65.74 82.9047 64.88 83.8847 64.18V58.36C83.0847 58.28 82.1647 58.38 81.5047 58.52L80.9247 57.72ZM110.025 58.62H108.685C108.505 61.24 108.185 63.86 106.685 65.98C106.085 66.84 105.265 67.78 104.405 68.4L104.165 68.2C106.005 65.98 106.905 63.4 107.105 60.48C107.225 58.86 107.325 57.16 107.245 55.5H106.745C106.425 55.5 106.125 55.58 105.825 55.66L105.385 54.92H109.545L110.405 54.06C110.505 53.96 110.725 53.98 110.825 54.06C111.225 54.4 111.565 54.7 111.985 55.08C112.665 53.58 113.105 51.96 113.385 50.28C114.105 50.58 114.785 50.86 115.445 51.24C115.505 51.32 115.545 51.44 115.485 51.52C115.285 51.74 115.025 51.86 114.825 52.08C114.465 52.7 114.185 53.24 113.825 53.88L113.725 54.06H116.585L117.405 52.96C117.505 52.88 117.625 52.86 117.765 52.94C118.265 53.34 118.765 53.76 119.385 54.32C119.425 54.36 119.425 54.48 119.385 54.54C119.305 54.64 119.185 54.64 118.925 54.64H113.405C112.745 55.58 112.005 56.52 111.205 57.36L110.905 57.18C111.225 56.64 111.525 56.12 111.785 55.5H108.725L108.685 58.02H109.725L110.325 57.2C110.405 57.12 110.585 57.1 110.745 57.22L112.025 58.16C112.385 58.58 111.685 58.68 111.545 58.98C111.485 59.34 111.485 59.66 111.485 60.06V60.9H114.185V60.08L114.145 58.84L115.105 59.16C115.465 58.48 115.965 57.84 116.245 57.14H113.605C113.245 57.18 112.805 57.24 112.465 57.32L112.045 56.54L116.285 56.56L116.845 55.9H117.085C117.585 56.3 118.105 56.64 118.545 57.16C118.785 57.52 117.965 57.48 117.625 57.6C116.885 58.1 116.225 58.72 115.545 59.32L116.225 59.6C116.365 59.68 116.325 59.84 116.245 59.92C116.105 60.04 115.925 60.18 115.825 60.3C115.765 60.36 115.725 60.4 115.725 60.46V60.9H117.005L117.825 59.8C117.865 59.72 117.985 59.72 118.065 59.8L119.465 61.12C119.525 61.2 119.585 61.42 119.445 61.46L115.725 61.48V67.02C115.725 68.06 114.545 68.54 113.705 68.78C113.565 68.14 113.285 67.24 112.605 66.94C112.305 66.8 112.065 66.68 111.705 66.54L111.825 66.22C112.485 66.36 113.145 66.46 113.825 66.48C114.065 66.44 114.145 66.34 114.165 65.98L114.185 65.7V61.48H113.025C112.645 61.52 112.205 61.6 111.865 61.68L111.505 61.14L111.305 64.72C111.265 65.48 111.265 66.12 110.805 66.92C110.285 67.8 109.585 68.12 109.065 68.24L108.825 68.3C108.705 67.76 108.605 66.84 108.085 66.52C107.745 66.32 107.445 66.16 107.065 66.02L107.165 65.74C107.845 65.8 108.545 66 109.225 65.86C109.565 65.74 109.785 65.82 109.865 63.46L109.925 61.6C109.965 60.62 110.025 59.58 110.025 58.62ZM106.725 50.74L106.925 50.54C107.725 50.9 109.165 51.54 109.625 52.32C109.865 52.72 109.705 53.3 109.465 53.64C109.225 53.92 108.965 54.26 108.525 54.12C108.105 53.92 108.205 53.52 108.045 53.02C107.785 52.16 107.305 51.5 106.725 50.74ZM102.725 51.06L102.965 50.88C103.845 51.24 104.905 51.74 105.665 52.42C105.925 52.72 106.045 53.06 106.005 53.4C105.885 53.86 105.645 54.64 105.025 54.46C104.485 54.22 104.505 53.6 104.205 53.16C103.845 52.4 103.385 51.8 102.725 51.06ZM101.065 55.08L101.225 54.86C102.065 55.22 103.505 55.7 104.105 56.46C104.385 56.9 104.265 57.46 104.025 57.88C103.825 58.24 103.345 58.74 103.025 58.28L102.965 58.14C102.505 57.06 101.945 55.96 101.065 55.08ZM106.365 56.04L105.245 59.5C104.805 60.86 104.285 62.26 104.305 63.78C104.345 64.98 104.405 66.22 104.345 67.4C104.325 67.62 104.185 67.74 104.005 67.82C103.485 67.98 103.025 67.58 102.705 67.26C102.525 67.04 102.325 66.78 102.365 66.44C102.545 65.62 102.945 64.88 102.925 64C102.905 63.36 102.865 62.68 102.185 62.28C101.865 62.08 101.565 61.98 101.265 61.88L101.325 61.48C101.965 61.54 102.825 61.82 103.365 61.24C103.985 60.58 104.245 59.76 104.645 59C105.145 58.02 105.645 56.92 106.045 55.9L106.365 56.04ZM146.755 55.44L147.635 54.22C147.715 54.16 147.835 54.08 147.955 54.16C148.435 54.56 149.015 55.08 149.655 55.74C149.755 55.88 149.715 56.08 149.515 56.08H146.235L147.995 56.72C148.095 56.8 148.115 56.92 148.095 57.02C147.875 57.24 147.575 57.26 147.435 57.58C146.895 59.88 146.315 62.16 145.135 64.2C146.535 65.68 148.275 66.38 150.075 67L149.995 67.34C149.035 67.34 148.075 67.76 147.455 68.46C146.275 67.64 145.095 66.7 144.155 65.54C142.615 67.08 140.555 67.86 138.595 68.6L137.995 68.76C137.875 68.66 137.755 68.56 137.655 68.44C139.695 67.4 141.875 66.3 143.335 64.3C142.395 62.64 142.175 60.66 142.035 58.64C141.495 59.42 140.995 60.24 140.395 61C140.295 60.94 140.215 60.86 140.135 60.78L141.255 57.92C142.195 55.52 142.895 52.96 142.895 50.2C143.695 50.42 144.555 50.76 145.355 51.14C145.435 51.22 145.455 51.32 145.395 51.44C145.235 51.64 144.815 51.62 144.675 51.94C144.315 53.1 143.995 54.32 143.535 55.44H146.755ZM145.595 56.08H143.295L142.515 57.76C142.735 59.58 143.175 61.3 144.115 62.84C144.955 60.74 145.495 58.52 145.595 56.08ZM137.835 52.4C138.055 52.72 138.095 53.22 137.895 53.58C137.575 54 137.175 54.78 136.535 54.54C136.255 54.44 136.275 54.12 136.155 53.94C135.775 52.8 135.235 51.7 134.375 50.76C134.355 50.66 134.515 50.56 134.575 50.44C135.755 50.88 136.975 51.36 137.835 52.4ZM131.695 68.4L131.375 68.18C132.495 66.38 133.655 64.44 134.095 62.32C134.535 60.14 134.735 57.94 134.675 55.6L133.355 55.62C132.875 55.62 132.395 55.7 131.935 55.78L131.555 55H138.695L139.655 53.76C139.735 53.68 139.975 53.64 140.095 53.78C140.695 54.28 141.075 54.7 141.615 55.22C141.755 55.38 141.655 55.62 141.435 55.62L140.915 55.6L136.575 55.62V55.74L136.395 58.12H138.215L138.835 57.34C138.935 57.22 139.115 57.2 139.275 57.34L140.675 58.34C140.755 58.42 140.755 58.6 140.655 58.66C140.355 58.92 140.035 58.98 139.955 59.38L139.795 62.56C139.575 63.92 139.735 65.42 139.075 66.64C138.535 67.28 137.755 67.66 136.975 67.9C136.855 67.16 136.375 66.46 135.635 66.18L134.995 65.94C135.035 65.8 135.055 65.68 135.075 65.54C135.815 65.62 136.555 65.72 137.335 65.76C137.515 65.74 137.715 65.66 137.795 65.46C137.955 64.66 138.055 63.82 138.115 62.98L138.355 59.26V58.72H136.315C136.095 60.32 135.915 62.18 135.395 63.44C134.635 65.3 133.255 66.98 131.695 68.4ZM166.035 56.56L165.655 56.3C165.975 55.54 166.335 54.88 166.555 54.12H154.875C154.835 55 154.735 55.9 153.935 56.44C153.515 56.74 152.835 56.92 152.355 56.62C152.175 56.5 152.075 56.32 152.055 56.1C152.035 55.78 152.295 55.58 152.495 55.36C153.315 54.46 154.195 53.48 154.155 52.1L154.555 52.12L154.855 53.46H160.475C159.975 52.36 159.455 51.22 158.495 50.32L158.695 50.02C159.615 50.32 160.555 50.64 161.375 51.22C161.695 51.44 161.995 51.84 161.955 52.22C161.895 52.72 161.595 53.14 161.235 53.46H166.515L167.395 52.48C167.515 52.36 167.715 52.4 167.835 52.48C168.495 52.92 169.155 53.46 169.735 54.06C169.795 54.16 169.755 54.28 169.675 54.36C169.075 54.48 168.495 54.54 167.995 54.88C167.295 55.36 166.655 55.88 166.035 56.56ZM157.835 55.1L157.955 55.14C158.575 55.62 159.175 56.14 159.755 56.68C159.835 56.76 159.815 56.84 159.795 56.94C159.615 57.18 159.255 56.98 159.015 57.1C158.275 57.4 157.715 58 157.055 58.44C155.635 59.4 154.255 60.38 152.675 60.98L152.415 60.68C154.455 59.18 156.515 57.24 157.835 55.1ZM166.275 66.76L167.255 65.4C167.295 65.32 167.495 65.32 167.595 65.38C168.335 66.06 168.635 66.34 169.275 67.02C169.335 67.1 169.395 67.28 169.275 67.36L169.155 67.42H153.995C153.395 67.42 152.935 67.58 152.635 67.68L152.015 66.76H159.775V61.88H156.635C156.195 61.88 155.795 61.94 155.475 62.1L154.875 61.22H163.955L164.995 60.04C165.055 59.96 165.195 59.94 165.295 60.04C165.855 60.52 166.575 61.14 166.935 61.6C166.995 61.7 166.935 61.82 166.835 61.86L166.655 61.88H161.475V66.76H166.275ZM161.335 55.66L161.535 55.32C163.175 55.82 164.315 56.16 165.495 56.84C166.415 57.38 167.975 58.04 168.155 59.22C168.235 59.8 168.095 60.3 167.695 60.68C167.595 60.76 167.355 60.78 167.275 60.7C165.615 58.76 163.715 57.02 161.335 55.66ZM176.555 66.08V67.46C176.555 67.7 176.375 67.9 175.755 68.22C175.515 68.34 175.115 68.52 174.855 68.44C174.635 68.38 174.735 68.02 174.755 67.2L174.795 65.8L174.815 59.78V59.1L174.775 55.48L174.675 52.6C175.455 52.9 176.095 53.2 176.935 53.58H178.075C178.535 52.4 178.895 51.14 179.075 49.84C179.855 50.12 180.615 50.4 181.335 50.8C181.435 50.86 181.415 51.06 181.255 51.18C180.955 51.42 180.715 51.4 180.455 51.74C179.915 52.46 179.515 52.98 179.055 53.58H183.935L184.975 52.66C185.055 52.58 185.275 52.56 185.415 52.66C185.855 52.96 186.395 53.36 186.775 53.66C187.095 53.9 186.495 54.14 186.295 54.66L186.255 55.24L186.275 59.44L186.295 64.86L186.395 67.44C186.275 67.7 185.875 67.84 185.635 67.92C185.375 68.04 184.935 68.12 184.795 68.16C184.655 68.2 184.535 68.12 184.535 68.02V66.08H176.555ZM176.515 57.94V61.2H184.535V57.94H176.515ZM184.515 54.2H176.495V57.32H184.495L184.515 54.2ZM176.535 61.82V65.46H184.535C184.515 65.4 184.555 65.36 184.535 65.32V61.96V61.82H176.535ZM207.675 60.82L208.055 60.84C208.055 61.88 207.955 63.22 208.215 64.26C208.375 64.7 208.775 65.08 209.155 65.4C208.715 66.1 208.255 66.92 207.075 67.12C205.595 67.38 204.495 67.36 202.515 67.34L198.595 67.32C197.195 67.32 195.775 67.34 194.695 66.64C194.195 66.32 194.135 65.98 194.135 65.08L194.155 59.4L194.035 56.28C194.755 56.52 195.355 56.78 196.115 57.16H204.115V52.74L195.195 52.68C194.655 52.68 194.295 52.8 193.655 52.92L193.015 52.08H203.875L204.655 51.12C204.775 51.02 204.955 51.04 205.095 51.16C205.395 51.36 205.975 51.74 206.575 52.2C206.755 52.34 206.675 52.5 206.575 52.56C206.315 52.82 205.835 53.06 205.835 53.24V56.26L205.915 58.58C205.795 58.96 205.355 59.08 205.055 59.22C204.595 59.42 204.115 59.54 204.115 59.2V57.76H195.935V61.08V64.84C195.935 65.36 196.675 65.56 197.175 65.58L199.215 65.66L204.675 65.64L205.535 65.6L206.195 65.48C206.915 65.18 207.015 64.1 207.395 62.56L207.455 62.32L207.675 60.82Z"
        fill="#323C48" />
    <path
        d="M31.5585 9.984V13.736C31.5585 14.632 31.5585 16.704 31.8385 17.46C32.2025 18.412 33.3505 18.412 34.2465 18.412V19.056C32.9025 19.028 31.5305 18.944 30.1865 18.944C28.7865 18.944 27.3585 19.028 25.9865 19.056V18.412C26.8825 18.412 28.0305 18.412 28.3945 17.46C28.6745 16.704 28.6745 14.632 28.6745 13.736V5.84C28.6745 4.944 28.6745 2.872 28.3945 2.116C28.0305 1.164 26.8825 1.164 25.9865 1.164V0.519999C27.3025 0.547999 28.6465 0.631999 29.9905 0.631999C31.4185 0.631999 32.8185 0.547999 34.2465 0.519999V1.164C33.3505 1.164 32.2025 1.164 31.8385 2.116C31.5585 2.872 31.5585 4.944 31.5585 5.84V9.088H41.5545V5.84C41.5545 4.944 41.5545 2.872 41.2745 2.116C40.9105 1.164 39.7625 1.164 38.8665 1.164V0.519999C40.2385 0.547999 41.5825 0.631999 42.9545 0.631999C44.3545 0.631999 45.7265 0.547999 47.1265 0.519999V1.164C46.2305 1.164 45.0825 1.164 44.7185 2.116C44.4385 2.872 44.4385 4.944 44.4385 5.84V13.736C44.4385 14.632 44.4385 16.704 44.7185 17.46C45.0825 18.412 46.2305 18.412 47.1265 18.412V19.056C45.7825 19.028 44.4105 18.944 43.0665 18.944C41.6665 18.944 40.2665 19.028 38.8665 19.056V18.412C39.7625 18.412 40.9105 18.412 41.2745 17.46C41.5545 16.704 41.5545 14.632 41.5545 13.736V9.984H31.5585ZM53.6433 13.736V5.84C53.6433 4.944 53.6433 2.872 53.3633 2.116C52.9993 1.164 51.8513 1.164 50.9552 1.164V0.519999C52.2993 0.547999 53.6433 0.631999 54.9873 0.631999C56.4153 0.631999 57.8153 0.547999 59.2153 0.519999V1.164C58.3193 1.164 57.1713 1.164 56.8073 2.116C56.5273 2.872 56.5273 4.944 56.5273 5.84V13.736C56.5273 14.632 56.5273 16.704 56.8073 17.46C57.1713 18.412 58.3193 18.412 59.2153 18.412V19.056C57.8993 19.028 56.5273 18.944 55.1833 18.944C53.7833 18.944 52.3553 19.028 50.9552 19.056V18.412C51.8513 18.412 52.9993 18.412 53.3633 17.46C53.6433 16.704 53.6433 14.632 53.6433 13.736ZM65.5371 13.736V5.896C65.5371 5 65.5371 2.928 65.2851 2.172C64.9771 1.192 63.8011 1.22 62.9051 1.22V0.519999C64.0531 0.547999 65.2571 0.631999 66.4331 0.631999C67.9451 0.631999 69.4571 0.547999 70.9691 0.519999C76.8771 0.407999 81.3571 4.104 81.3571 10.18C81.3571 16.116 77.4651 19.196 71.6971 19.056C70.0451 19.028 68.3651 18.944 66.7131 18.944C65.4251 18.944 64.1651 19.028 62.9051 19.056V18.412C63.8011 18.412 64.9771 18.412 65.2851 17.46C65.5371 16.704 65.5371 14.632 65.5371 13.736ZM68.4211 2.34V14.128C68.4211 15.08 68.3091 16.424 68.8691 17.236C69.5131 18.188 70.9411 18.3 72.0051 18.3C76.9051 18.3 77.8571 14.772 77.8571 10.628C77.8571 5.084 76.2611 1.276 70.2691 1.276C69.9331 1.276 68.8411 1.22 68.5891 1.472C68.4211 1.64 68.4211 2.116 68.4211 2.34ZM88.2637 13.68V5.952C88.2637 5.056 88.2637 2.984 87.9837 2.228C87.6197 1.276 86.4717 1.276 85.5757 1.276V0.519999H99.4917V4.748H98.8477C98.3157 1.472 96.8597 1.276 93.8917 1.276H91.8757C91.4557 1.276 91.2597 1.248 91.1757 1.388C91.1197 1.5 91.1477 1.808 91.1477 2.424V9.06C94.9837 9.228 95.5437 7.632 95.7117 5.616H96.3557C96.3277 6.876 96.2157 8.164 96.2437 9.424C96.2157 10.572 96.3277 11.748 96.3557 12.896H95.7117C95.3197 9.956 93.8357 9.816 91.1477 9.816V14.408C91.1477 15.248 91.1477 16.564 91.6517 17.236C92.3797 18.216 94.1157 18.272 95.2357 18.244C98.1477 18.188 100.052 17.824 100.416 14.492H101.06L100.808 19H85.5757V18.356C86.4717 18.356 87.6197 18.356 87.9837 17.404C88.2637 16.648 88.2637 14.576 88.2637 13.68ZM108.887 12.28L108.635 12.98C108.243 14.044 107.291 16.116 107.291 17.208C107.291 18.412 108.719 18.328 109.559 18.412V19.056C108.523 19.028 107.515 18.944 106.479 18.944C105.499 18.944 104.547 19.028 103.567 19.056V18.412C105.079 18.244 105.667 17.796 106.255 16.424C107.011 14.632 107.879 12.896 108.579 11.076L112.863 0.0719984H113.815L119.471 14.296C119.779 15.052 120.423 16.732 120.927 17.376C121.543 18.188 122.383 18.3 123.335 18.412V19.056C122.019 19.028 120.675 18.944 119.359 18.944C118.015 18.944 116.643 19.028 115.299 19.056V18.412C116.083 18.384 117.455 18.44 117.455 17.348C117.455 16.648 117.147 15.808 116.895 15.164L115.803 12.28H108.887ZM109.251 11.384H115.439L112.359 3.488L109.251 11.384ZM141.971 19.56L137.603 5.252H137.547L135.335 12.868C134.663 15.136 133.795 17.32 133.039 19.56H132.087L127.187 4.496C126.963 3.852 126.543 2.396 126.151 1.892C125.647 1.276 124.947 1.22 124.135 1.164V0.519999C125.479 0.547999 126.823 0.631999 128.167 0.631999C129.539 0.631999 130.939 0.547999 132.311 0.519999V1.164C131.415 1.248 129.791 1.248 129.791 2.536C129.791 3.18 130.407 5.252 130.631 5.952L133.571 15.556H133.627L138.023 0.519999H138.919L143.511 15.332H143.567L145.471 9.228C145.863 7.996 146.955 4.132 146.955 3.04C146.955 1.304 145.947 1.304 144.547 1.164V0.519999C145.555 0.547999 146.563 0.631999 147.571 0.631999C148.551 0.631999 149.503 0.547999 150.483 0.519999V1.164C148.411 1.108 148.047 3.292 147.571 4.86L142.951 19.56H141.971ZM156.582 12.28L156.33 12.98C155.938 14.044 154.986 16.116 154.986 17.208C154.986 18.412 156.414 18.328 157.254 18.412V19.056C156.218 19.028 155.21 18.944 154.174 18.944C153.194 18.944 152.242 19.028 151.262 19.056V18.412C152.774 18.244 153.362 17.796 153.95 16.424C154.706 14.632 155.574 12.896 156.274 11.076L160.558 0.0719984H161.51L167.166 14.296C167.474 15.052 168.118 16.732 168.622 17.376C169.238 18.188 170.078 18.3 171.03 18.412V19.056C169.714 19.028 168.37 18.944 167.054 18.944C165.71 18.944 164.338 19.028 162.994 19.056V18.412C163.778 18.384 165.15 18.44 165.15 17.348C165.15 16.648 164.842 15.808 164.59 15.164L163.498 12.28H156.582ZM156.946 11.384H163.134L160.054 3.488L156.946 11.384ZM181.015 11.664V15.388C181.015 18.048 181.099 18.188 183.787 18.412V19.056C182.387 19.028 180.987 18.944 179.587 18.944C178.159 18.944 176.731 19.028 175.303 19.056V18.412C178.019 18.188 178.131 18.02 178.131 15.388V11.916L175.555 7.464C175.247 6.904 173.091 2.676 172.139 1.668C171.635 1.164 171.187 1.276 170.515 1.164V0.519999C171.775 0.547999 173.063 0.631999 174.323 0.631999C175.639 0.631999 176.955 0.547999 178.271 0.519999V1.164C177.655 1.164 176.171 1.108 176.171 2.06C176.171 2.788 176.563 3.404 176.899 4.02L180.539 10.768L182.331 7.912C182.947 6.932 185.103 3.348 185.103 2.34C185.103 1.276 183.843 1.248 183.087 1.164V0.519999C184.095 0.547999 185.075 0.631999 186.083 0.631999C187.007 0.631999 187.903 0.547999 188.827 0.519999V1.164C187.203 1.304 186.615 2.396 185.859 3.656L181.015 11.664Z"
        fill="#323D47" />
</svg>