<svg width="164" height="100" viewBox="0 0 164 100" fill="none" xmlns="http://www.w3.org/2000/svg">
    <path
        d="M19.75 9.86H24.73V13.532H19.75V9.86ZM23.902 12.74V10.664H20.59V12.74H23.902ZM23.722 13.964L24.586 14.204C24.298 15.212 23.95 16.124 23.542 16.928H25.498V17.768H18.79V16.928H22.678C23.074 16.112 23.422 15.128 23.722 13.964ZM20.77 14.036C21.058 14.72 21.322 15.5 21.562 16.376L20.782 16.58C20.578 15.788 20.326 15.02 20.014 14.288L20.77 14.036ZM16.126 9.788C15.874 10.412 15.586 10.952 15.274 11.408L14.65 10.832C15.25 9.872 15.694 8.684 15.97 7.244L16.798 7.46C16.678 8.012 16.546 8.516 16.402 8.984H19.09V9.788H17.842C17.83 10.652 17.794 11.432 17.722 12.14H19.114V12.932H17.614C17.566 13.268 17.506 13.58 17.446 13.88V13.892C18.046 14.444 18.658 15.068 19.282 15.764L18.778 16.52C18.166 15.716 17.65 15.092 17.242 14.636C16.834 15.896 16.138 16.952 15.142 17.804L14.59 17.12C15.61 16.232 16.282 15.104 16.618 13.748C16.678 13.484 16.726 13.208 16.774 12.932H14.65V12.14H16.882C16.954 11.42 16.99 10.64 17.002 9.788H16.126ZM19.234 7.844H25.294V8.66H19.234V7.844ZM30.442 8.096V16.94H29.602V16.136H27.826V17.228H26.986V8.096H30.442ZM27.826 15.332H29.602V12.44H27.826V15.332ZM27.826 11.636H29.602V8.888H27.826V11.636ZM32.17 11.672C32.914 12.8 33.49 13.784 33.886 14.624L33.166 15.128C32.746 14.228 32.182 13.22 31.462 12.116L32.17 11.672ZM34.906 18.08H32.806L32.626 17.24C33.322 17.264 33.982 17.288 34.618 17.288C34.966 17.288 35.146 17.096 35.146 16.724V10.232H30.994V9.404H35.146V7.292H36.022V9.404H37.498V10.232H36.022V16.94C36.022 17.696 35.65 18.08 34.906 18.08ZM41.674 10.448H46.234V16.04H41.674V10.448ZM45.43 15.272V13.628H42.49V15.272H45.43ZM42.49 12.86H45.43V11.216H42.49V12.86ZM47.578 18.104H46.57L46.354 17.3L47.398 17.324C47.758 17.324 47.95 17.072 47.95 16.592V8.6H43.294V7.796H48.79V16.832C48.79 17.672 48.382 18.104 47.578 18.104ZM39.19 9.188H40.03V18.212H39.19V9.188ZM40.93 7.088C41.482 7.748 41.974 8.468 42.394 9.26L41.626 9.668C41.17 8.828 40.678 8.084 40.138 7.436L40.93 7.088ZM54.85 9.272V17.456H54.01V16.772H51.826V17.804H50.986V9.272H52.102C52.342 8.6 52.51 7.904 52.618 7.184L53.482 7.304C53.338 8.012 53.158 8.672 52.918 9.272H54.85ZM51.826 15.968H54.01V13.34H51.826V15.968ZM51.826 12.56H54.01V10.088H51.826V12.56ZM56.938 12.056C57.802 13.052 58.45 13.928 58.906 14.672L58.222 15.152C57.73 14.36 57.07 13.472 56.242 12.488L56.938 12.056ZM61.054 9.284C61.054 13.268 60.994 15.74 60.874 16.676C60.754 17.588 60.202 18.056 59.194 18.056C58.954 18.056 58.546 18.032 57.97 18.008L57.766 17.216C58.27 17.24 58.702 17.252 59.074 17.252C59.638 17.252 59.962 16.94 60.058 16.328C60.13 15.656 60.178 13.58 60.202 10.124H56.902C56.566 10.88 56.17 11.564 55.702 12.176L55.186 11.492C56.026 10.316 56.59 8.876 56.902 7.172L57.754 7.28C57.61 7.988 57.442 8.66 57.226 9.284H61.054ZM66.706 10.484C66.478 10.664 66.262 10.832 66.046 10.976L65.542 10.352C66.79 9.548 67.81 8.492 68.614 7.184L69.406 7.364C69.214 7.676 69.034 7.976 68.842 8.252H71.398V8.84C71.074 9.296 70.75 9.692 70.438 10.016H72.406V12.86H70.246V14.96C70.246 15.248 70.378 15.392 70.654 15.392H72.07C72.274 15.392 72.418 15.332 72.49 15.212C72.586 15.068 72.658 14.624 72.706 13.904L73.414 14.144C73.342 15.092 73.21 15.668 73.018 15.872C72.85 16.04 72.574 16.136 72.214 16.136H70.426C69.79 16.136 69.478 15.8 69.478 15.128V13.268C69.358 13.592 69.226 13.88 69.082 14.12C68.542 14.972 67.642 15.704 66.382 16.328L65.842 15.656C67.018 15.128 67.858 14.492 68.362 13.772C68.53 13.508 68.662 13.208 68.782 12.86H66.706V10.484ZM68.29 8.948C67.966 9.332 67.618 9.68 67.258 10.016H69.43C69.766 9.704 70.09 9.356 70.426 8.948H68.29ZM71.602 12.14V10.712H69.946C69.898 11.24 69.838 11.708 69.766 12.14H71.602ZM68.974 12.14C69.07 11.708 69.13 11.228 69.178 10.712H67.486V12.14H68.974ZM71.074 13.28C71.518 13.628 71.89 13.976 72.19 14.324L71.71 14.816C71.446 14.468 71.074 14.108 70.618 13.724L71.074 13.28ZM63.514 7.388C64.342 8.012 65.038 8.624 65.602 9.248L64.99 9.836C64.486 9.248 63.802 8.624 62.926 7.952L63.514 7.388ZM70.582 17.984C69.922 17.984 69.202 17.972 68.434 17.96C67.654 17.948 67.018 17.876 66.538 17.744C66.058 17.6 65.626 17.3 65.266 16.868C65.098 16.664 64.942 16.568 64.786 16.568C64.498 16.568 64.018 17.12 63.334 18.224L62.686 17.636C63.346 16.604 63.922 15.992 64.414 15.8V12.152H62.65V11.36H65.218V15.848C65.314 15.92 65.41 16.004 65.518 16.124C65.806 16.472 66.118 16.724 66.454 16.88C66.838 17.048 67.378 17.144 68.086 17.168C68.722 17.18 69.514 17.192 70.462 17.192C71.014 17.192 71.578 17.18 72.154 17.168C72.718 17.156 73.162 17.144 73.474 17.12L73.258 17.984H70.582ZM82.21 9.728C81.886 10.496 81.502 11.144 81.058 11.672L80.518 11.012C81.262 10.052 81.766 8.744 82.03 7.112L82.894 7.256C82.786 7.832 82.654 8.36 82.51 8.852H85.486V9.728H82.21ZM75.214 7.436C75.862 7.928 76.414 8.42 76.858 8.924L76.246 9.536C75.85 9.056 75.31 8.54 74.614 8L75.214 7.436ZM75.166 10.436C75.85 10.964 76.426 11.492 76.894 12.032L76.27 12.656C75.862 12.128 75.298 11.576 74.578 11L75.166 10.436ZM76.03 13.664L76.786 13.964C76.33 15.404 75.838 16.76 75.286 18.032L74.482 17.684C75.082 16.376 75.598 15.032 76.03 13.664ZM77.95 9.908H76.99V9.08H78.67C78.526 8.432 78.346 7.832 78.154 7.28L79.018 7.124C79.198 7.7 79.366 8.348 79.522 9.08H80.902V9.908H78.79V10.724C78.79 11.048 78.778 11.36 78.766 11.672H80.71C80.71 14.468 80.65 16.196 80.542 16.856C80.47 17.612 80.098 17.996 79.426 17.996C79.258 17.996 78.958 17.972 78.55 17.948L78.346 17.216C78.718 17.228 79.042 17.24 79.318 17.24C79.558 17.24 79.702 17 79.75 16.544C79.834 16.1 79.882 14.756 79.894 12.512H78.718C78.526 15.008 77.998 16.892 77.11 18.164L76.474 17.6C77.434 16.172 77.926 13.88 77.95 10.724V9.908ZM81.862 11H85.114V11.78C84.73 12.284 84.31 12.764 83.866 13.22V13.964H85.534V14.744H83.866V16.916C83.866 17.66 83.554 18.032 82.954 18.032H81.886L81.682 17.24C81.97 17.252 82.294 17.264 82.654 17.264C82.894 17.264 83.026 17.048 83.026 16.628V14.744H81.19V13.964H83.026V13.1C83.53 12.548 83.902 12.104 84.142 11.78H81.862V11ZM98.998 12.068V9.464H99.826V12.788H95.974C95.878 13.088 95.782 13.364 95.686 13.628H100.57V17.204C100.57 17.852 100.234 18.188 99.562 18.188H98.554L98.338 17.372L99.286 17.408C99.586 17.408 99.742 17.276 99.742 17.024V14.408H97.546C98.026 15.14 98.482 15.932 98.902 16.772L98.206 17.12C98.098 16.88 97.99 16.664 97.894 16.46C96.97 16.628 95.506 16.832 93.502 17.06L93.298 16.28C93.49 16.256 93.61 16.208 93.67 16.136C93.982 15.656 94.27 15.08 94.558 14.408H92.278V18.188H91.45V13.628H94.858C94.954 13.364 95.038 13.076 95.134 12.788H92.182V9.464H93.01V12.068H98.998ZM97.282 14.408H95.386C95.098 15.104 94.798 15.692 94.51 16.196C95.566 16.088 96.574 15.956 97.534 15.788C97.294 15.368 97.066 14.984 96.838 14.624L97.282 14.408ZM94.066 9.224C94.822 9.5 95.542 9.812 96.238 10.148C96.73 9.836 97.174 9.5 97.582 9.116L98.194 9.488C97.774 9.872 97.354 10.208 96.946 10.496C97.462 10.76 97.954 11.048 98.434 11.348L98.038 11.948C97.45 11.564 96.862 11.216 96.274 10.916C95.65 11.264 94.87 11.612 93.91 11.948L93.526 11.324C94.27 11.108 94.93 10.856 95.53 10.544C94.918 10.256 94.306 9.992 93.694 9.776L94.066 9.224ZM96.166 7.112C96.31 7.4 96.442 7.736 96.562 8.108H101.146V8.912H90.85V8.108H95.698C95.566 7.796 95.422 7.52 95.278 7.256L96.166 7.112ZM102.526 10.292H103.606V7.256H104.446V10.292H105.514V11.108H104.446V14.756C104.782 14.588 105.106 14.408 105.43 14.216V15.056C104.566 15.56 103.63 15.992 102.622 16.328L102.406 15.512C102.814 15.404 103.222 15.272 103.606 15.128V11.108H102.526V10.292ZM107.002 12.272V12.296C106.954 14.696 106.402 16.628 105.346 18.068L104.71 17.504C105.634 16.256 106.114 14.528 106.162 12.296V9.032H109.642C109.618 8.456 109.618 7.844 109.618 7.208H110.41C110.41 7.856 110.422 8.468 110.446 9.032H113.146V9.812H110.47C110.542 11.3 110.65 12.488 110.818 13.352C110.854 13.592 110.902 13.808 110.95 14.024C111.394 13.124 111.742 12.092 112.006 10.928L112.714 11.228C112.354 12.74 111.862 14.036 111.238 15.092C111.358 15.5 111.502 15.836 111.646 16.112C111.934 16.676 112.174 16.964 112.342 16.964C112.51 16.952 112.654 16.364 112.786 15.212L113.506 15.608C113.266 17.216 112.93 18.02 112.498 18.02C112.09 18.02 111.67 17.66 111.226 16.94C111.034 16.64 110.866 16.292 110.71 15.884C110.026 16.82 109.222 17.528 108.31 18.02L107.794 17.36C108.838 16.82 109.714 16.028 110.41 14.972C110.278 14.564 110.17 14.12 110.074 13.64C109.87 12.62 109.738 11.348 109.666 9.812H107.002V11.54H109.078C109.078 13.7 108.982 15.02 108.814 15.5C108.646 15.956 108.334 16.196 107.89 16.22H107.074L106.858 15.512H107.686C107.95 15.488 108.106 15.284 108.178 14.912C108.25 14.528 108.286 13.652 108.298 12.272H107.002ZM111.85 7.112C112.174 7.58 112.45 8.072 112.69 8.6L112.054 8.876C111.79 8.3 111.514 7.796 111.214 7.364L111.85 7.112ZM114.898 7.82H125.098V8.672H121.186C120.97 9.164 120.718 9.644 120.442 10.1V18.224H119.554V11.372C118.426 12.776 116.95 14.024 115.126 15.116L114.562 14.36C117.274 12.8 119.17 10.904 120.226 8.672H114.898V7.82ZM121.954 11.048C123.334 12.14 124.486 13.232 125.422 14.324L124.762 14.996C123.922 13.94 122.782 12.824 121.33 11.636L121.954 11.048ZM134.998 12.068V9.464H135.826V12.788H131.974C131.878 13.088 131.782 13.364 131.686 13.628H136.57V17.204C136.57 17.852 136.234 18.188 135.562 18.188H134.554L134.338 17.372L135.286 17.408C135.586 17.408 135.742 17.276 135.742 17.024V14.408H133.546C134.026 15.14 134.482 15.932 134.902 16.772L134.206 17.12C134.098 16.88 133.99 16.664 133.894 16.46C132.97 16.628 131.506 16.832 129.502 17.06L129.298 16.28C129.49 16.256 129.61 16.208 129.67 16.136C129.982 15.656 130.27 15.08 130.558 14.408H128.278V18.188H127.45V13.628H130.858C130.954 13.364 131.038 13.076 131.134 12.788H128.182V9.464H129.01V12.068H134.998ZM133.282 14.408H131.386C131.098 15.104 130.798 15.692 130.51 16.196C131.566 16.088 132.574 15.956 133.534 15.788C133.294 15.368 133.066 14.984 132.838 14.624L133.282 14.408ZM130.066 9.224C130.822 9.5 131.542 9.812 132.238 10.148C132.73 9.836 133.174 9.5 133.582 9.116L134.194 9.488C133.774 9.872 133.354 10.208 132.946 10.496C133.462 10.76 133.954 11.048 134.434 11.348L134.038 11.948C133.45 11.564 132.862 11.216 132.274 10.916C131.65 11.264 130.87 11.612 129.91 11.948L129.526 11.324C130.27 11.108 130.93 10.856 131.53 10.544C130.918 10.256 130.306 9.992 129.694 9.776L130.066 9.224ZM132.166 7.112C132.31 7.4 132.442 7.736 132.562 8.108H137.146V8.912H126.85V8.108H131.698C131.566 7.796 131.422 7.52 131.278 7.256L132.166 7.112ZM139.642 13.988H143.566V12.572H144.43V13.988H148.366V14.816H144.43V16.952H149.314V17.78H138.682V16.952H143.566V14.816H139.642V13.988ZM146.614 8.048C147.706 9.368 148.534 10.508 149.11 11.492L148.39 11.984C147.79 10.928 146.962 9.764 145.918 8.492L146.614 8.048ZM143.566 7.22H144.454V12.14H143.566V7.22ZM141.406 8.084L142.15 8.456C141.418 9.836 140.554 11.024 139.546 12.02L138.838 11.516C139.834 10.556 140.686 9.416 141.406 8.084ZM3.39991 36.48V38.772H8.63191V36.48H3.39991ZM8.63191 35.652V33.48H3.39991V35.652H8.63191ZM3.39991 39.588V41.94H8.63191V39.588H3.39991ZM0.675906 41.94H2.52391V32.676H9.50791V41.94H11.3439V42.792H0.675906V41.94ZM22.2279 32.352L22.6239 33.06C21.4359 33.324 20.0439 33.516 18.4599 33.636V35.316H22.3479V36.12H18.4599V37.824H23.4039V38.664H17.0079C16.1919 40.272 15.4839 41.4 14.8839 42.072C16.9239 41.94 18.9519 41.736 20.9679 41.46C20.5839 40.932 20.1639 40.392 19.7079 39.828L20.3799 39.408C21.4479 40.68 22.2639 41.796 22.8399 42.744L22.1319 43.248C21.9399 42.912 21.7239 42.564 21.4839 42.216C19.1199 42.504 16.5519 42.744 13.7679 42.912L13.5759 42.144C13.6599 42.12 13.7199 42.084 13.7559 42.06C14.3559 41.64 15.1479 40.512 16.1319 38.664H12.6279V37.824H17.5719V36.12H13.6839V35.316H17.5719V33.696C16.3239 33.768 14.9559 33.816 13.4919 33.816L13.2279 33.06C16.8399 33.06 19.8399 32.82 22.2279 32.352ZM25.0599 34.596L25.8159 34.656C25.7679 35.868 25.5999 37.02 25.2879 38.112L24.5559 37.908C24.8559 36.864 25.0239 35.76 25.0599 34.596ZM28.7079 33.792L29.1999 34.428C28.7319 35.052 28.1199 35.676 27.3639 36.288V36.756C27.3519 37.428 27.3039 38.064 27.2199 38.664C27.8439 39.324 28.4799 40.068 29.1279 40.908L28.6119 41.664C28.0119 40.74 27.4959 40.02 27.0759 39.516C26.7519 41.04 26.1399 42.24 25.2519 43.104L24.6159 42.54C25.8639 41.34 26.4999 39.408 26.5239 36.756V32.352H27.3639V35.364C27.8919 34.86 28.3479 34.332 28.7079 33.792ZM29.1399 32.7H35.3199V33.492H32.6439C32.5959 33.96 32.5359 34.404 32.4639 34.836H34.8399V40.488H33.9999V35.628H30.4479V40.488H29.6079V34.836H31.5879C31.6719 34.404 31.7319 33.948 31.7799 33.492H29.1399V32.7ZM33.0999 40.536C34.0359 41.232 34.8159 41.94 35.4519 42.636L34.8519 43.236C34.2879 42.564 33.5199 41.844 32.5359 41.088L33.0999 40.536ZM31.7919 36.348H32.6199V38.364C32.5839 39.684 32.2839 40.74 31.7199 41.532C31.1799 42.252 30.2919 42.828 29.0439 43.248L28.5879 42.516C29.7759 42.132 30.6039 41.616 31.0839 40.98C31.5279 40.308 31.7679 39.444 31.7919 38.364V36.348ZM38.0079 43.092H36.8079L36.6279 42.264C36.9999 42.3 37.3599 42.324 37.7079 42.324C38.0199 42.324 38.1879 42.156 38.1879 41.844V38.94C37.7079 39.108 37.2159 39.276 36.7239 39.42L36.5079 38.604C37.0839 38.472 37.6359 38.316 38.1879 38.124V35.328H36.6639V34.5H38.1879V32.232H39.0519V34.5H40.1559V35.328H39.0519V37.8C39.5079 37.608 39.9639 37.392 40.4199 37.164V38.016C39.9759 38.232 39.5199 38.424 39.0519 38.616V42.06C39.0519 42.744 38.7039 43.092 38.0079 43.092ZM40.5759 35.124H42.6999C42.7119 34.884 42.7239 34.644 42.7239 34.404V32.232H43.5519V34.404C43.5519 34.644 43.5399 34.884 43.5279 35.124H47.1519V35.964H44.9319V41.856C44.9319 42.096 45.0279 42.216 45.2319 42.216H46.1439C46.2639 42.216 46.3599 42.144 46.4319 42.012C46.5279 41.832 46.5999 41.196 46.6239 40.092L47.4039 40.344C47.3319 41.616 47.2119 42.396 47.0439 42.66C46.8759 42.876 46.6479 42.996 46.3599 43.008H44.9919C44.3919 43.008 44.0919 42.672 44.0919 42.012V35.964H43.4919C43.2519 39.168 42.3279 41.568 40.7439 43.164L40.1079 42.612C41.5719 41.148 42.4119 38.94 42.6519 35.964H40.5759V35.124ZM45.0039 32.424C45.6759 32.94 46.2519 33.468 46.7079 33.996L46.1199 34.584C45.7119 34.068 45.1599 33.528 44.4399 32.964L45.0039 32.424ZM54.412 34.74H61.6V37.164H54.412V34.74ZM60.772 36.42V35.484H55.24V36.42H60.772ZM57.868 32.172C58.06 32.484 58.24 32.82 58.408 33.204H63.208V34.02H52.792V33.204H57.46C57.28 32.892 57.088 32.592 56.884 32.328L57.868 32.172ZM52.528 40.2H57.784V39.732C58.528 39.444 59.404 39.096 60.412 38.676H53.692V37.896H62.116V38.52C61.108 38.988 59.944 39.468 58.636 39.972V40.2H63.472V40.992H58.636V42.108C58.636 42.828 58.276 43.2 57.568 43.2H55.876L55.648 42.408C56.32 42.444 56.848 42.468 57.232 42.468C57.592 42.468 57.784 42.264 57.784 41.856V40.992H52.528V40.2ZM74.284 32.292L74.704 33.024C72.376 33.384 69.28 33.576 65.428 33.576L65.176 32.796C68.836 32.796 71.872 32.628 74.284 32.292ZM75.016 35.892V38.628H74.176V36.708H65.824V38.628H64.984V35.892H71.812C72.292 35.196 72.7 34.44 73.036 33.648L73.9 33.972C73.516 34.74 73.132 35.376 72.736 35.892H75.016ZM66.676 33.876C67.096 34.368 67.492 34.908 67.852 35.496L67.108 35.868C66.736 35.268 66.34 34.728 65.92 34.26L66.676 33.876ZM69.532 33.744C69.916 34.236 70.3 34.776 70.66 35.376L69.892 35.772C69.532 35.148 69.16 34.596 68.752 34.116L69.532 33.744ZM66.448 37.884H73.48V38.628C72.952 39.588 72.124 40.428 70.996 41.124C72.184 41.664 73.636 42.108 75.352 42.456L74.848 43.224C72.952 42.804 71.38 42.264 70.132 41.616C68.788 42.288 67.132 42.828 65.152 43.236L64.696 42.42C66.508 42.084 68.032 41.652 69.268 41.112C68.176 40.416 67.396 39.6 66.928 38.676H66.448V37.884ZM67.816 38.676C68.308 39.444 69.076 40.116 70.12 40.692C71.176 40.116 71.968 39.444 72.52 38.676H67.816ZM81.028 34.2H83.464V32.244H84.328V34.2H86.8V39.036H84.34V41.784C84.964 41.688 85.54 41.58 86.068 41.472C85.9 40.896 85.708 40.332 85.504 39.792L86.212 39.552C86.62 40.572 86.992 41.736 87.316 43.056L86.524 43.26C86.44 42.9 86.356 42.564 86.272 42.24C84.94 42.54 83.08 42.792 80.692 42.996L80.56 42.12C81.616 42.06 82.588 41.988 83.476 41.892V39.036H81.028V34.2ZM85.96 38.232V35.004H84.328V38.232H85.96ZM83.488 38.232V35.004H81.88V38.232H83.488ZM80.164 32.364L80.872 32.808C80.368 33.588 79.864 34.224 79.36 34.716C79.444 34.884 79.516 35.052 79.588 35.22C79.936 36.18 80.128 37.548 80.164 39.324C80.164 41.22 79.924 42.372 79.444 42.756C79.156 42.96 78.772 43.068 78.268 43.068C77.908 43.068 77.62 43.056 77.404 43.056L77.152 42.252C77.476 42.276 77.788 42.3 78.076 42.3C78.484 42.3 78.748 42.228 78.892 42.096C79.192 41.784 79.348 40.848 79.348 39.276C79.336 38.772 79.312 38.304 79.288 37.884C78.676 38.76 77.944 39.492 77.104 40.08L76.624 39.36C77.704 38.64 78.544 37.764 79.144 36.744C79.06 36.3 78.964 35.916 78.844 35.58C78.796 35.472 78.76 35.376 78.712 35.292C78.244 35.652 77.716 36.024 77.116 36.384L76.648 35.64C77.26 35.34 77.824 34.968 78.328 34.536C77.98 33.972 77.548 33.456 77.02 33L77.692 32.472C78.184 32.964 78.592 33.468 78.928 33.972C79.372 33.492 79.78 32.964 80.164 32.364ZM90.892 32.184L91.744 32.328C91.636 32.928 91.516 33.492 91.372 34.044H94.06V34.812C93.736 36.912 93.124 38.676 92.212 40.092C92.5 40.536 92.8 40.872 93.136 41.112C94.072 41.772 95.56 42.108 97.588 42.132C98.212 42.132 98.836 42.108 99.484 42.072L99.316 42.972H97.996C95.524 42.972 93.736 42.552 92.632 41.736C92.296 41.484 91.996 41.16 91.72 40.776C90.976 41.712 90.112 42.48 89.104 43.08L88.636 42.264C89.668 41.664 90.532 40.884 91.216 39.936C90.82 39.18 90.472 38.256 90.172 37.164C89.86 37.728 89.512 38.232 89.152 38.676L88.564 37.944C89.716 36.516 90.484 34.596 90.892 32.184ZM90.676 36.12C90.988 37.356 91.324 38.376 91.708 39.18C92.416 37.968 92.92 36.528 93.208 34.872H91.132C90.988 35.316 90.832 35.736 90.676 36.12ZM95.668 32.256H96.544V35.304C97.528 36.012 98.524 36.828 99.544 37.752L99.028 38.52C98.056 37.536 97.228 36.756 96.544 36.204V41.196H95.668V32.256ZM110.488 36.708C110.272 37.044 110.044 37.356 109.804 37.644L109.276 37.008C110.212 35.808 110.848 34.188 111.184 32.16L112.036 32.304C111.928 32.916 111.796 33.492 111.64 34.02H115.18V34.848H114.292C114.22 36.864 113.752 38.592 112.888 40.02C113.644 41.1 114.544 41.928 115.576 42.504L115.084 43.236C114.04 42.636 113.14 41.808 112.396 40.752C111.676 41.712 110.764 42.516 109.636 43.164L109.144 42.384C110.296 41.76 111.208 40.968 111.904 39.996C111.34 39.036 110.872 37.944 110.488 36.708ZM111.376 34.848C111.256 35.184 111.124 35.496 110.98 35.796C111.34 37.116 111.808 38.256 112.372 39.228C113.044 37.992 113.404 36.528 113.464 34.848H111.376ZM104.656 34.008H106.948C106.732 33.432 106.468 32.88 106.18 32.34L107.02 32.1C107.356 32.796 107.632 33.432 107.824 34.008H109.624V34.836H106.708V35.94C106.708 36.18 106.696 36.408 106.696 36.624H108.988C108.988 39.54 108.928 41.328 108.82 42C108.7 42.684 108.22 43.032 107.368 43.032C107.212 43.032 106.936 43.008 106.54 42.984L106.348 42.24C106.684 42.264 106.984 42.276 107.248 42.276C107.68 42.276 107.944 42.072 108.028 41.676C108.112 41.22 108.16 39.792 108.172 37.416H106.66C106.492 39.984 105.964 41.904 105.076 43.176L104.404 42.588C105.388 41.208 105.88 38.988 105.904 35.94V34.836H104.656V34.008ZM117.892 38.316H126.112V39.132H122.428V41.976H127.12V42.804H116.884V41.976H121.552V39.132H117.892V38.316ZM123.112 34.944C124.372 35.52 125.524 36.228 126.556 37.056L126.064 37.788C124.96 36.876 123.82 36.156 122.656 35.628L123.112 34.944ZM120.604 35.028L121.144 35.652C120.208 36.492 119.044 37.2 117.652 37.764L117.28 36.972C118.624 36.48 119.728 35.832 120.604 35.028ZM122.044 32.124C122.2 32.496 122.356 32.916 122.5 33.384H127.096V35.796H126.22V34.188H117.784V35.784H116.908V33.384H121.612C121.456 32.976 121.288 32.604 121.108 32.268L122.044 32.124ZM138.028 33.624V43.188H137.152V42.444H130.84V43.188H129.964V33.624H132.532C132.796 33.144 133 32.664 133.12 32.16L133.996 32.28C133.864 32.76 133.672 33.216 133.432 33.624H138.028ZM130.84 41.616H137.152V39.66H130.84V41.616ZM130.84 38.868H137.152V37.032H130.84V38.868ZM130.84 36.24H137.152V34.452H130.84V36.24ZM151.348 39.732C151.228 41.016 151.048 41.856 150.784 42.24C150.532 42.612 150.016 42.804 149.248 42.804H143.02C142.036 42.804 141.556 42.336 141.556 41.424V36.792H149.152V33.672H141.4V32.832H150.016V37.632H142.432V41.124C142.432 41.676 142.744 41.952 143.368 41.976H149.104C149.668 41.976 150.028 41.796 150.196 41.448C150.34 41.112 150.448 40.452 150.508 39.456L151.348 39.732ZM154.996 40.296C155.428 40.296 155.788 40.44 156.1 40.728C156.4 41.016 156.556 41.376 156.556 41.808C156.556 42.228 156.4 42.588 156.1 42.876C155.788 43.164 155.428 43.308 154.996 43.308C154.564 43.308 154.192 43.164 153.892 42.888C153.58 42.6 153.436 42.24 153.436 41.808C153.436 41.376 153.58 41.016 153.892 40.728C154.192 40.44 154.564 40.296 154.996 40.296ZM154.996 40.92C154.744 40.92 154.528 41.004 154.36 41.184C154.168 41.352 154.084 41.556 154.084 41.808C154.084 42.048 154.168 42.252 154.36 42.42C154.528 42.588 154.744 42.684 154.996 42.684C155.236 42.684 155.452 42.588 155.632 42.42C155.812 42.252 155.908 42.048 155.908 41.808C155.908 41.556 155.812 41.352 155.632 41.184C155.452 41.004 155.236 40.92 154.996 40.92ZM38.014 61.528V62.236C37.45 62.284 36.862 62.344 36.25 62.404V63.328H35.458V62.464C34.666 62.512 33.826 62.572 32.962 62.62L32.854 61.852C33.766 61.804 34.642 61.768 35.458 61.72V60.724H33.226L33.034 60.04C33.37 59.656 33.694 59.2 33.982 58.66H32.698V57.892H34.366C34.474 57.628 34.582 57.364 34.678 57.1L35.542 57.244C35.458 57.46 35.374 57.676 35.278 57.892H38.206V58.66H34.918C34.654 59.164 34.366 59.62 34.066 60.016H35.458V59.224H36.25V60.016H38.122V60.724H36.25V61.672C36.874 61.624 37.462 61.576 38.014 61.528ZM39.694 60.736C39.562 61.744 39.238 62.62 38.722 63.364L38.122 62.74C38.65 61.96 38.938 61.036 38.962 59.956V58.072C40.45 57.928 41.626 57.664 42.466 57.28L43.018 57.928C42.13 58.312 41.05 58.588 39.754 58.732V59.98H43.354V60.736H42.082V63.34H41.254V60.736H39.694ZM42.01 63.688V68.2H41.122V67.732H35.026V68.2H34.138V63.688H42.01ZM35.026 66.988H41.122V66.052H35.026V66.988ZM35.026 65.356H41.122V64.42H35.026V65.356ZM48.442 58.096V66.94H47.602V66.136H45.826V67.228H44.986V58.096H48.442ZM45.826 65.332H47.602V62.44H45.826V65.332ZM45.826 61.636H47.602V58.888H45.826V61.636ZM50.17 61.672C50.914 62.8 51.49 63.784 51.886 64.624L51.166 65.128C50.746 64.228 50.182 63.22 49.462 62.116L50.17 61.672ZM52.906 68.08H50.806L50.626 67.24C51.322 67.264 51.982 67.288 52.618 67.288C52.966 67.288 53.146 67.096 53.146 66.724V60.232H48.994V59.404H53.146V57.292H54.022V59.404H55.498V60.232H54.022V66.94C54.022 67.696 53.65 68.08 52.906 68.08ZM57.466 57.388C58.282 58.012 58.966 58.636 59.518 59.26L58.918 59.86C58.414 59.26 57.73 58.624 56.866 57.952L57.466 57.388ZM64.486 67.984C63.814 67.984 63.094 67.972 62.326 67.96C61.534 67.948 60.898 67.876 60.406 67.744C59.926 67.6 59.506 67.3 59.122 66.868C58.954 66.664 58.798 66.568 58.654 66.568C58.366 66.568 57.91 67.12 57.262 68.248L56.614 67.66C57.238 66.64 57.79 66.028 58.27 65.812V62.152H56.626V61.36H59.074V65.848C59.17 65.92 59.278 66.004 59.374 66.124C59.662 66.472 59.986 66.724 60.334 66.88C60.706 67.048 61.258 67.144 61.978 67.168C62.614 67.18 63.406 67.192 64.366 67.192C64.942 67.192 65.518 67.18 66.118 67.168C66.706 67.156 67.162 67.144 67.474 67.12L67.258 67.984H64.486ZM62.182 61.516C62.182 61.372 62.194 61.216 62.194 61.072V57.244H63.034V61.072C62.998 63.556 62.29 65.368 60.922 66.496L60.274 65.932C61.258 65.14 61.87 63.988 62.098 62.452C61.594 62.908 61.042 63.304 60.442 63.64L60.01 62.908C60.826 62.56 61.558 62.092 62.182 61.516ZM66.058 66.34H64.93C64.318 66.34 64.018 66.004 64.018 65.356V57.244H64.858V61.348C65.674 61.756 66.418 62.236 67.102 62.788L66.658 63.484C66.07 62.956 65.47 62.512 64.858 62.152V65.188C64.858 65.404 64.966 65.512 65.194 65.512H65.902C66.094 65.512 66.238 65.452 66.322 65.332C66.418 65.164 66.49 64.708 66.526 63.94L67.306 64.18C67.234 65.2 67.09 65.824 66.898 66.04C66.718 66.232 66.442 66.34 66.058 66.34ZM66.274 58.264L66.994 58.612C66.61 59.476 66.166 60.232 65.638 60.856L65.002 60.4C65.494 59.8 65.914 59.092 66.274 58.264ZM60.814 58.396C61.246 59.08 61.642 59.824 62.014 60.628L61.354 60.964C60.97 60.136 60.55 59.392 60.106 58.732L60.814 58.396ZM77.002 62.068V59.464H77.83V62.788H73.978C73.882 63.088 73.786 63.364 73.69 63.628H78.574V67.204C78.574 67.852 78.238 68.188 77.566 68.188H76.558L76.342 67.372L77.29 67.408C77.59 67.408 77.746 67.276 77.746 67.024V64.408H75.55C76.03 65.14 76.486 65.932 76.906 66.772L76.21 67.12C76.102 66.88 75.994 66.664 75.898 66.46C74.974 66.628 73.51 66.832 71.506 67.06L71.302 66.28C71.494 66.256 71.614 66.208 71.674 66.136C71.986 65.656 72.274 65.08 72.562 64.408H70.282V68.188H69.454V63.628H72.862C72.958 63.364 73.042 63.076 73.138 62.788H70.186V59.464H71.014V62.068H77.002ZM75.286 64.408H73.39C73.102 65.104 72.802 65.692 72.514 66.196C73.57 66.088 74.578 65.956 75.538 65.788C75.298 65.368 75.07 64.984 74.842 64.624L75.286 64.408ZM72.07 59.224C72.826 59.5 73.546 59.812 74.242 60.148C74.734 59.836 75.178 59.5 75.586 59.116L76.198 59.488C75.778 59.872 75.358 60.208 74.95 60.496C75.466 60.76 75.958 61.048 76.438 61.348L76.042 61.948C75.454 61.564 74.866 61.216 74.278 60.916C73.654 61.264 72.874 61.612 71.914 61.948L71.53 61.324C72.274 61.108 72.934 60.856 73.534 60.544C72.922 60.256 72.31 59.992 71.698 59.776L72.07 59.224ZM74.17 57.112C74.314 57.4 74.446 57.736 74.566 58.108H79.15V58.912H68.854V58.108H73.702C73.57 57.796 73.426 57.52 73.282 57.256L74.17 57.112ZM85.57 60.088H81.106V59.236H85.642C85.438 58.6 85.186 57.988 84.898 57.4L85.738 57.172C86.038 57.856 86.266 58.48 86.434 59.056L85.966 59.236H90.91V60.088H86.446V62.92H90.334V63.724H86.446V66.94H91.33V67.792H80.686V66.94H85.57V63.724H81.682V62.92H85.57V60.088ZM96.778 65.812V66.64C95.602 67.096 94.258 67.468 92.746 67.744L92.638 66.904C94.222 66.64 95.602 66.268 96.778 65.812ZM94.642 57.136L95.47 57.46C94.858 59.02 94.234 60.268 93.61 61.204C94.15 61.156 94.69 61.084 95.23 61C95.446 60.568 95.686 60.112 95.926 59.632L96.694 59.92C95.638 61.948 94.75 63.388 94.054 64.24C94.918 64.072 95.782 63.844 96.646 63.556V64.336C95.386 64.744 94.186 65.032 93.034 65.188L92.794 64.396C92.95 64.324 93.082 64.24 93.19 64.144C93.634 63.688 94.174 62.896 94.798 61.78C94.138 61.876 93.466 61.96 92.794 62.044L92.59 61.252C92.722 61.204 92.842 61.096 92.95 60.94C93.598 59.836 94.162 58.564 94.642 57.136ZM102.598 59.32L102.718 60.112L99.634 60.544C99.658 61.12 99.694 61.66 99.742 62.176L102.922 61.672L103.054 62.488L99.838 62.992C99.862 63.208 99.898 63.424 99.934 63.616C100.054 64.24 100.198 64.78 100.366 65.26C101.014 64.66 101.59 63.988 102.094 63.22L102.778 63.688C102.142 64.612 101.458 65.404 100.714 66.052C100.762 66.124 100.798 66.208 100.846 66.28C101.242 66.868 101.59 67.168 101.902 67.168C102.214 67.168 102.49 66.52 102.706 65.236L103.438 65.716C103.102 67.3 102.622 68.104 101.998 68.104C101.422 68.08 100.882 67.72 100.366 67C100.258 66.856 100.162 66.712 100.09 66.556C99.202 67.216 98.242 67.708 97.222 68.02L96.718 67.324C97.822 66.964 98.818 66.46 99.706 65.8C99.478 65.272 99.298 64.696 99.154 64.048C99.082 63.736 99.034 63.436 98.986 63.124L96.826 63.472L96.706 62.656L98.878 62.308C98.818 61.792 98.782 61.24 98.77 60.664L97.042 60.916L96.91 60.124L98.746 59.86V57.196H99.61V59.74L102.598 59.32ZM100.954 57.16C101.566 57.736 102.034 58.228 102.37 58.648L101.698 59.116C101.362 58.648 100.882 58.132 100.282 57.58L100.954 57.16ZM106.894 60.268C106.414 61.36 105.802 62.272 105.058 63.016L104.506 62.308C105.634 61.132 106.402 59.536 106.798 57.532L107.674 57.688C107.542 58.312 107.386 58.888 107.206 59.428H109.774V57.292H110.65V59.428H114.598V60.268H110.65V63.04H114.358V63.88H110.65V66.928H115.366V67.792H104.794V66.928H109.774V63.88H106.246V63.04H109.774V60.268H106.894ZM119.698 60.688H123.13V58.804C122.218 58.888 121.246 58.936 120.214 58.936L119.95 58.156C122.566 58.156 124.75 57.856 126.478 57.268L126.898 58.012C126.058 58.312 125.098 58.54 124.006 58.696V60.688H127.462V61.516H124.006V63.376H126.706V68.188H125.854V67.552H121.354V68.212H120.502V63.376H123.13V61.516H119.698V60.688ZM121.354 66.736H125.854V64.192H121.354V66.736ZM117.526 57.364C118.33 57.892 119.014 58.42 119.566 58.948L118.978 59.536C118.486 59.032 117.802 58.504 116.938 57.928L117.526 57.364ZM117.25 60.232C118.066 60.82 118.762 61.408 119.314 62.008L118.714 62.608C118.21 62.044 117.526 61.444 116.65 60.82L117.25 60.232ZM118.666 63.424L119.446 63.724C118.918 65.26 118.342 66.712 117.718 68.056L116.854 67.684C117.55 66.292 118.162 64.876 118.666 63.424ZM29.392 85.88L30.34 82.544L31.192 82.688L30.508 85.052H32.608C32.848 84.116 33.04 83.144 33.184 82.112L34.06 82.22C33.904 83.228 33.712 84.164 33.496 85.052H39.112V85.88H33.268C33.124 86.36 32.98 86.816 32.812 87.248H37.72V87.992C37.396 89.024 36.748 89.96 35.764 90.8C36.736 91.376 37.924 91.904 39.316 92.384L38.872 93.188C37.336 92.624 36.064 92.012 35.056 91.352C34.072 92.048 32.848 92.672 31.396 93.236L30.94 92.432C32.284 91.94 33.4 91.4 34.3 90.812C33.364 90.092 32.704 89.312 32.308 88.472C31.432 90.368 30.304 91.868 28.936 92.984L28.492 92.192C30.244 90.656 31.528 88.556 32.368 85.88H29.392ZM32.956 88.04C33.364 88.856 34.048 89.612 35.008 90.308C35.896 89.612 36.508 88.856 36.844 88.04H32.956ZM36.076 82.208C36.94 82.868 37.648 83.528 38.224 84.188L37.612 84.8C37.108 84.164 36.4 83.492 35.5 82.772L36.076 82.208ZM50.536 82.676V89.312H49.66V83.504H46.06V89.312H45.208V82.676H50.536ZM50.272 93.008H49.024C48.364 93.008 48.04 92.672 48.04 92.012V89.264H48.904V91.832C48.904 92.084 49.024 92.216 49.276 92.216H50.116C50.308 92.216 50.452 92.144 50.536 92.024C50.632 91.868 50.704 91.412 50.752 90.668L51.556 90.92C51.484 91.904 51.34 92.516 51.136 92.732C50.944 92.912 50.656 93.008 50.272 93.008ZM47.404 84.356H48.232V87.284C48.184 88.892 47.86 90.176 47.26 91.136C46.684 92.024 45.724 92.732 44.38 93.236L43.912 92.504C45.208 92 46.12 91.352 46.636 90.56C47.116 89.72 47.38 88.628 47.404 87.284V84.356ZM40.756 86.636H42.136V83.828H40.6V83H44.536V83.828H43.024V86.636H44.368V87.476H43.024V90.2C43.552 90.02 44.056 89.828 44.56 89.624V90.452C43.372 90.932 42.1 91.328 40.744 91.652L40.54 90.824C41.08 90.728 41.608 90.608 42.136 90.464V87.476H40.756V86.636ZM52.864 82.676H63.148V83.48H58.432V84.524H62.152V89.276H58.288C58.144 90.068 57.916 90.704 57.58 91.184C59.26 91.892 61.252 92.288 63.556 92.36L63.34 93.188C60.928 93.092 58.828 92.624 57.04 91.808C56.2 92.528 54.82 92.984 52.912 93.2L52.54 92.408C54.208 92.276 55.432 91.94 56.2 91.388C55.504 91.004 54.856 90.56 54.268 90.056L54.928 89.6C55.492 90.068 56.116 90.476 56.788 90.824C57.076 90.416 57.292 89.9 57.412 89.276H53.896V84.524H57.568V83.48H52.864V82.676ZM61.3 88.52V87.248H58.432V87.668L58.396 88.52H61.3ZM57.532 88.52C57.556 88.244 57.568 87.956 57.568 87.668V87.248H54.748V88.52H57.532ZM54.748 86.528H57.568V85.268H54.748V86.528ZM58.432 85.268V86.528H61.3V85.268H58.432ZM69.952 82.16L70.72 82.568C70.504 82.808 70.276 83.036 70.036 83.252H73.48V83.936C72.184 86.24 69.772 87.536 66.268 87.812L65.896 87.032C66.976 86.96 67.936 86.804 68.8 86.552C68.428 86.096 68.032 85.676 67.624 85.304L68.38 84.944C68.812 85.352 69.22 85.784 69.604 86.264C70.852 85.76 71.824 85.004 72.496 84.02H68.992C68.056 84.572 66.952 84.992 65.668 85.28L65.164 84.488C67.3 84.08 68.896 83.312 69.952 82.16ZM69.496 89.66C69.952 90.128 70.396 90.632 70.804 91.172C72.136 90.596 73.18 89.768 73.948 88.712H70.396C69.34 89.216 68.092 89.6 66.64 89.852L66.124 89.084C68.74 88.82 70.672 88.016 71.92 86.696L72.664 87.104C72.376 87.392 72.076 87.668 71.74 87.92H75.028V88.604C73.324 91.436 70.156 92.9 65.5 93.008L65.152 92.18C67.024 92.168 68.644 91.94 70 91.484C69.592 90.944 69.172 90.452 68.728 90.02L69.496 89.66ZM80.848 84.272V92.456H80.008V91.772H77.824V92.804H76.984V84.272H78.1C78.34 83.6 78.508 82.904 78.616 82.184L79.48 82.304C79.336 83.012 79.156 83.672 78.916 84.272H80.848ZM77.824 90.968H80.008V88.34H77.824V90.968ZM77.824 87.56H80.008V85.088H77.824V87.56ZM82.936 87.056C83.8 88.052 84.448 88.928 84.904 89.672L84.22 90.152C83.728 89.36 83.068 88.472 82.24 87.488L82.936 87.056ZM87.052 84.284C87.052 88.268 86.992 90.74 86.872 91.676C86.752 92.588 86.2 93.056 85.192 93.056C84.952 93.056 84.544 93.032 83.968 93.008L83.764 92.216C84.268 92.24 84.7 92.252 85.072 92.252C85.636 92.252 85.96 91.94 86.056 91.328C86.128 90.656 86.176 88.58 86.2 85.124H82.9C82.564 85.88 82.168 86.564 81.7 87.176L81.184 86.492C82.024 85.316 82.588 83.876 82.9 82.172L83.752 82.28C83.608 82.988 83.44 83.66 83.224 84.284H87.052ZM93.556 82.244H94.444V83.888H98.56V84.728H94.444V86.852H99.196V87.692H95.236C96.04 89.204 97.432 90.548 99.4 91.736L98.8 92.504C96.76 91.064 95.332 89.468 94.54 87.692H94.444V93.164H93.556V87.692H93.448C92.584 89.66 91.132 91.268 89.092 92.54L88.6 91.736C90.52 90.68 91.912 89.336 92.776 87.692H88.804V86.852H93.556V84.728H89.524V83.888H93.556V82.244ZM110.92 83.468V92.648H110.08V91.88H107.728V92.672H106.9V83.468H110.92ZM107.728 91.076H110.08V84.272H107.728V91.076ZM102.364 84.632C102.064 85.28 101.728 85.88 101.356 86.432L100.6 85.952C101.392 84.8 101.956 83.54 102.316 82.16L103.168 82.34C103.024 82.856 102.868 83.348 102.7 83.804H106.168V84.632H104.416C104.404 85.496 104.356 86.3 104.272 87.02H106.276V87.848H104.152C104.092 88.16 104.032 88.472 103.96 88.76C104.728 89.54 105.52 90.428 106.312 91.412L105.796 92.204C104.98 91.052 104.296 90.176 103.732 89.552C103.24 90.896 102.364 92.024 101.092 92.936L100.528 92.24C101.8 91.316 102.64 90.152 103.048 88.748C103.12 88.46 103.192 88.16 103.252 87.848H100.744V87.02H103.372C103.468 86.3 103.516 85.496 103.528 84.632H102.364ZM112.66 82.916H123.364V83.756H121.78V91.916C121.78 92.708 121.396 93.116 120.628 93.116H118.624L118.432 92.276C119.092 92.3 119.728 92.324 120.328 92.324C120.712 92.324 120.916 92.108 120.916 91.7V83.756H112.66V82.916ZM118.72 85.592V89.996H114.892V91.052H114.052V85.592H118.72ZM114.892 89.204H117.892V86.372H114.892V89.204ZM126.148 89.084V90.2H128.92V89.084H126.148ZM128.92 88.364V87.2H126.148V88.364H128.92ZM126.148 90.932V93.224H125.32V86.444H129.748V92.084C129.748 92.78 129.412 93.14 128.74 93.14H127.78L127.564 92.324L128.464 92.36C128.764 92.36 128.92 92.204 128.92 91.904V90.932H126.148ZM133.96 87.44H131.98C131.248 87.44 130.888 87.044 130.888 86.264V82.232H131.74V83.792C133.06 83.588 134.128 83.372 134.956 83.156L135.232 83.912C134.224 84.164 133.06 84.392 131.74 84.584V86.084C131.74 86.468 131.896 86.66 132.22 86.66H133.792C134.032 86.66 134.2 86.588 134.296 86.468C134.416 86.3 134.488 85.856 134.536 85.112L135.34 85.364C135.256 86.348 135.1 86.948 134.884 87.164C134.692 87.344 134.38 87.44 133.96 87.44ZM131.74 90.152V91.868C131.74 92.108 131.884 92.24 132.196 92.24H133.828C134.068 92.24 134.248 92.18 134.344 92.072C134.476 91.904 134.56 91.46 134.608 90.728L135.388 90.968C135.316 91.94 135.16 92.528 134.932 92.744C134.74 92.924 134.428 93.02 133.996 93.02H131.956C131.236 93.02 130.888 92.696 130.888 92.06V87.896H131.74V89.372C132.94 89.252 134.008 89.048 134.956 88.76L135.232 89.528C134.152 89.84 132.988 90.044 131.74 90.152ZM128.884 83.048C129.604 84.02 130.168 84.86 130.564 85.58L129.856 86.084C129.724 85.82 129.58 85.556 129.424 85.292C128.14 85.496 126.604 85.64 124.828 85.736L124.588 85.016C124.744 84.968 124.876 84.884 124.984 84.788C125.728 84.02 126.352 83.156 126.832 82.196L127.648 82.448C127.096 83.516 126.496 84.356 125.824 84.968C126.832 84.908 127.9 84.812 129.028 84.668C128.776 84.284 128.5 83.876 128.212 83.468L128.884 83.048Z"
        fill="#323D47" />
</svg>