<svg width="33" height="34" viewBox="0 0 33 34" fill="none" xmlns="http://www.w3.org/2000/svg">
    <rect x="14.1172" y="1.47656" width="17.8852" height="31.5246" rx="1.5" stroke="#323D47" />
    <path d="M14.1406 6.22266H31.9767" stroke="#323D47" />
    <path d="M22.0078 4.125H24.1062" stroke="#323D47" stroke-linecap="round" />
    <path d="M18.8594 4.125H18.9643" stroke="#323D47" stroke-linecap="round" />
    <path d="M14.1406 29.3047H31.9767" stroke="#323D47" />
    <path
        d="M14.2876 14.1148L2.5 14.1148C1.39543 14.1148 0.499999 15.0102 0.499999 16.1148L0.5 31C0.5 32.1046 1.39543 33 2.5 33L15.7131 33"
        stroke="#323D47" />
    <path d="M5.74219 32.4766L5.74219 14.6405" stroke="#323D47" />
    <path d="M3.64844 24.6055L3.64844 22.5071" stroke="#323D47" stroke-linecap="round" />
    <path d="M3.64844 27.7539L3.64844 27.649" stroke="#323D47" stroke-linecap="round" />
    <path
        d="M10.7998 2.75C8.02418 2.96786 2.57616 5.1032 2.98939 11.9016M0.679688 9.97534L2.94869 12.1695C2.95255 12.1733 2.95866 12.1733 2.96255 12.1696L5.26054 9.97534"
        stroke="#323D47" stroke-linecap="round" />
</svg>
    