<svg width="20" height="27" viewBox="0 0 20 27" fill="none" xmlns="http://www.w3.org/2000/svg">
<path fill-rule="evenodd" clip-rule="evenodd" d="M2.98066 15.2221L3.00967 15.2733C3.0557 15.3545 3.08304 15.3982 3.10481 15.4289L10.0005 24.6946L16.8954 15.4255C16.9025 15.4154 16.913 15.3997 16.9253 15.3796C16.9386 15.3579 16.9482 15.3404 16.9516 15.3339L16.989 15.2636L17.034 15.1979C18.0357 13.7338 18.5737 11.9871 18.5714 10.195L18.5714 10.1932C18.5714 5.33581 14.6993 1.42857 10 1.42857C5.29992 1.42857 1.42857 5.33573 1.42857 10.1932C1.42857 11.9975 1.96043 13.7248 2.94753 15.1735L2.98066 15.2221ZM18.0469 16.2709L10.7817 26.0379C10.5496 26.3034 10.2817 26.4286 10 26.4286C9.71478 26.4286 9.44869 26.3043 9.25043 26.0796L1.9513 16.2718C1.88261 16.1768 1.82435 16.0791 1.76696 15.9779C0.615652 14.2882 0 12.2798 0 10.1932C0 4.57272 4.48522 0 10 0C15.5139 0 20 4.57272 20 10.1932C20.0027 12.2717 19.3788 14.3006 18.213 16.0045C18.18 16.0667 18.1183 16.1732 18.0469 16.2709Z" fill="#424A52"/>
<path fill-rule="evenodd" clip-rule="evenodd" d="M10 12.8571C11.578 12.8571 12.8571 11.578 12.8571 10C12.8571 8.42204 11.578 7.14286 10 7.14286C8.42204 7.14286 7.14286 8.42204 7.14286 10C7.14286 11.578 8.42204 12.8571 10 12.8571ZM10 14.2857C12.3669 14.2857 14.2857 12.3669 14.2857 10C14.2857 7.63306 12.3669 5.71429 10 5.71429C7.63307 5.71429 5.71429 7.63306 5.71429 10C5.71429 12.3669 7.63307 14.2857 10 14.2857Z" fill="#424A52"/>
</svg>
