<svg width="32" height="32" viewBox="0 0 32 32" fill="none" xmlns="http://www.w3.org/2000/svg">
    <path
        d="M11.75 7.75H5.5C4.90326 7.75 4.33097 7.98705 3.90901 8.40901C3.48705 8.83097 3.25 9.40326 3.25 10V11.309C4.36532 11.488 5.38038 12.0584 6.11312 12.9181C6.84586 13.7778 7.24832 14.8704 7.24832 16C7.24832 17.1296 6.84586 18.2222 6.11312 19.0819C5.38038 19.9416 4.36532 20.512 3.25 20.691V22C3.25 22.5967 3.48705 23.169 3.90901 23.591C4.33097 24.0129 4.90326 24.25 5.5 24.25H11.75V7.75ZM13.25 7.75V24.25H26.5C27.0967 24.25 27.669 24.0129 28.091 23.591C28.5129 23.169 28.75 22.5967 28.75 22V20.691C27.6347 20.512 26.6196 19.9416 25.8869 19.0819C25.1541 18.2222 24.7517 17.1296 24.7517 16C24.7517 14.8704 25.1541 13.7778 25.8869 12.9181C26.6196 12.0584 27.6347 11.488 28.75 11.309V10C28.75 9.40326 28.5129 8.83097 28.091 8.40901C27.669 7.98705 27.0967 7.75 26.5 7.75H13.25ZM2.5 12.75H1.75V10C1.75 9.00544 2.14509 8.05161 2.84835 7.34835C3.55161 6.64509 4.50544 6.25 5.5 6.25H26.5C27.4946 6.25 28.4484 6.64509 29.1517 7.34835C29.8549 8.05161 30.25 9.00544 30.25 10V12.75H29.5C28.638 12.75 27.8114 13.0924 27.2019 13.7019C26.5924 14.3114 26.25 15.138 26.25 16C26.25 16.862 26.5924 17.6886 27.2019 18.2981C27.8114 18.9076 28.638 19.25 29.5 19.25H30.25V22C30.25 22.9946 29.8549 23.9484 29.1517 24.6517C28.4484 25.3549 27.4946 25.75 26.5 25.75H5.5C4.50544 25.75 3.55161 25.3549 2.84835 24.6517C2.14509 23.9484 1.75 22.9946 1.75 22V19.25H2.5C3.36195 19.25 4.1886 18.9076 4.7981 18.2981C5.40759 17.6886 5.75 16.862 5.75 16C5.75 15.138 5.40759 14.3114 4.7981 13.7019C4.1886 13.0924 3.36195 12.75 2.5 12.75Z"
        fill="#424A52" />
    <rect x="11" y="9" width="3" height="2" fill="#424A52" />
    <rect x="11" y="13" width="3" height="2" fill="#424A52" />
    <rect x="11" y="17" width="3" height="2" fill="#424A52" />
    <rect x="11" y="21" width="3" height="2" fill="#424A52" />
</svg>
    