<svg width="32" height="32" viewBox="0 0 32 32" fill="none" xmlns="http://www.w3.org/2000/svg">
    <path
        d="M25.446 16.6132H25.0949C25.3123 16.9867 25.446 17.4152 25.446 17.8786V25.4713C25.446 26.8691 24.3128 28.0023 22.915 28.0023H8.99503C7.59727 28.0023 6.46411 26.8691 6.46411 25.4713V17.8786C6.46411 17.4152 6.59773 16.9867 6.81515 16.6132H6.46411C5.06629 16.6132 3.9332 15.48 3.9332 14.0822V12.8168C3.9332 11.419 5.06629 10.2858 6.46411 10.2858H10.2898L9.27292 9.26667C8.06176 8.05291 8.06176 6.08488 9.27292 4.87109C10.4841 3.65731 12.4478 3.65734 13.6589 4.87109L15.9134 7.13055C15.9279 7.12953 15.9402 7.12214 15.955 7.12214C15.956 7.12214 15.9569 7.12271 15.9579 7.12271L18.2274 4.85337C19.444 3.63677 21.4164 3.63677 22.633 4.85337C23.8496 6.06984 23.8496 8.04232 22.633 9.25899L21.6062 10.2858H25.4459C26.8437 10.2858 27.9768 11.4189 27.9768 12.8168V14.0822C27.9769 15.48 26.8437 16.6132 25.446 16.6132ZM23.5478 26.7368C23.8972 26.7368 24.1805 26.4535 24.1805 26.1041V17.2459C24.1805 16.8964 23.8972 16.6132 23.5478 16.6132H16.5878V26.7368H23.5478ZM7.72957 26.1041C7.72957 26.4535 8.01284 26.7368 8.3623 26.7368H15.3223V16.6132H8.3623C8.01284 16.6132 7.72957 16.8964 7.72957 17.2459V26.1041ZM6.46411 11.5513C5.76522 11.5513 5.19866 12.1179 5.19866 12.8168V14.0823C5.19866 14.7812 5.76518 15.3477 6.46411 15.3477H15.3223V11.5513H6.46411ZM13.048 5.79928C12.2659 5.01716 10.9979 5.01716 10.2158 5.79928C9.4337 6.58133 9.4337 7.84932 10.2158 8.6315L11.8702 10.2858H15.3223V9.64134C15.3223 8.6715 15.3274 8.0787 14.7473 7.49854L13.048 5.79928ZM21.6943 8.6315C22.4764 7.84932 22.4764 6.58133 21.6943 5.79928C20.9122 5.01716 19.6442 5.01716 18.8621 5.79928L17.1628 7.49854C16.5802 8.08117 16.5878 8.65617 16.5878 9.65318V10.2858H20.0399L21.6943 8.6315ZM26.7114 12.8168C26.7114 12.1179 26.1449 11.5513 25.446 11.5513H16.5878V15.3477H25.446C26.1449 15.3477 26.7114 14.7812 26.7114 14.0823V12.8168Z"
        fill="#424A52" />
</svg>
    