<svg width="20" height="25" viewBox="0 0 20 25" fill="none" xmlns="http://www.w3.org/2000/svg">
<path fill-rule="evenodd" clip-rule="evenodd" d="M4.31818 22.969H15.6818C17.3364 22.969 18.75 21.5768 18.75 19.7874V4.42308C18.75 2.63368 17.3364 1.24157 15.6818 1.24157H4.31818C2.66355 1.24157 1.25 2.63368 1.25 4.42308V19.7874C1.25 21.5768 2.66355 22.969 4.31818 22.969ZM4.31818 24.2105H15.6818C18.0628 24.2105 20 22.2263 20 19.7874V4.42308C20 1.98427 18.0628 0 15.6818 0H4.31818C1.93722 0 0 1.98427 0 4.42308V19.7874C0 22.2263 1.93722 24.2105 4.31818 24.2105Z" fill="#424A52"/>
<path fill-rule="evenodd" clip-rule="evenodd" d="M12.3333 14.3559C12.4322 14.4057 12.5416 14.4317 12.6525 14.4317L12.6552 14.4298C12.7571 14.4298 12.8578 14.4079 12.9504 14.3656C13.043 14.3232 13.1253 14.2615 13.1916 14.1846C13.2579 14.1077 13.3066 14.0175 13.3345 13.9201C13.3623 13.8227 13.3686 13.7205 13.3529 13.6205L12.9515 11.0845L14.7985 9.20817C14.8889 9.11645 14.9522 9.00186 14.9815 8.87687C15.0109 8.75189 15.0052 8.6213 14.965 8.49932C14.9248 8.37735 14.8516 8.26867 14.7536 8.18511C14.6555 8.10156 14.5362 8.04633 14.4087 8.02544L11.8403 7.60431L10.6267 5.29498C10.567 5.18133 10.4771 5.0861 10.3667 5.01965C10.2563 4.9532 10.1297 4.91807 10.0007 4.91807C9.87161 4.91807 9.74501 4.9532 9.63463 5.01965C9.52425 5.0861 9.43432 5.18133 9.37461 5.29498L8.15967 7.60431L5.59128 8.02544C5.46379 8.04633 5.34451 8.10156 5.24643 8.18511C5.14835 8.26867 5.07524 8.37735 5.03504 8.49932C4.99484 8.6213 4.98911 8.75189 5.01846 8.87687C5.04782 9.00186 5.11113 9.11645 5.20151 9.20817L7.04985 11.0864L6.64841 13.6223C6.6282 13.75 6.64387 13.8806 6.69367 13.9999C6.74347 14.1193 6.82548 14.2226 6.93066 14.2986C7.03583 14.3746 7.16008 14.4202 7.28972 14.4305C7.41935 14.4408 7.54934 14.4154 7.66533 14.357L9.99932 13.1821L12.3333 14.3559ZM11.9535 12.7732L11.6193 10.662L13.175 9.08152L11.021 8.72834L10.0004 6.78628L8.97867 8.7284L6.82486 9.08155L8.38208 10.664L8.04834 12.7723L9.99906 11.7903L11.9535 12.7732Z" fill="#424A52"/>
<path fill-rule="evenodd" clip-rule="evenodd" d="M5 18.0027C5 17.6599 5.27982 17.3819 5.625 17.3819H14.375C14.7202 17.3819 15 17.6599 15 18.0027C15 18.3455 14.7202 18.6235 14.375 18.6235H5.625C5.27982 18.6235 5 18.3455 5 18.0027Z" fill="#424A52"/>
</svg>
