<svg width="320" height="388" viewBox="0 0 320 388" fill="none" xmlns="http://www.w3.org/2000/svg">
    <mask id="path-1-inside-1_5295_7332" fill="white">
        <path fill-rule="evenodd" clip-rule="evenodd"
            d="M10 0C4.47715 0 0 4.47715 0 10V61.5V63C0 63.3026 0.0134386 63.602 0.0397516 63.8978C1.95504 121.609 72.8384 168 160 168C247.162 168 318.045 121.609 319.96 63.8978C319.987 63.602 320 63.3026 320 63V61.5V10C320 4.47715 315.523 0 310 0H10Z" />
    </mask>
    <path fill-rule="evenodd" clip-rule="evenodd"
        d="M10 0C4.47715 0 0 4.47715 0 10V61.5V63C0 63.3026 0.0134386 63.602 0.0397516 63.8978C1.95504 121.609 72.8384 168 160 168C247.162 168 318.045 121.609 319.96 63.8978C319.987 63.602 320 63.3026 320 63V61.5V10C320 4.47715 315.523 0 310 0H10Z"
        fill="#E5F0F7" />
    <path
        d="M0.0397516 63.8978L2.03865 63.8314L2.03681 63.7759L2.03188 63.7205L0.0397516 63.8978ZM319.96 63.8978L317.968 63.7206L317.963 63.7759L317.961 63.8314L319.96 63.8978ZM2 10C2 5.58172 5.58172 2 10 2V-2C3.37258 -2 -2 3.37258 -2 10H2ZM2 61.5V10H-2V61.5H2ZM2 63V61.5H-2V63H2ZM2.03188 63.7205C2.01081 63.4836 2 63.2433 2 63H-2C-2 63.3618 -1.98393 63.7204 -1.95238 64.075L2.03188 63.7205ZM160 166C116.755 166 77.6339 154.488 49.1447 135.915C20.6392 117.332 2.96789 91.8309 2.03865 63.8314L-1.95915 63.9641C-0.973097 93.6756 17.7548 120.226 46.9602 139.266C76.182 158.316 116.084 170 160 170V166ZM317.961 63.8314C317.032 91.8309 299.361 117.332 270.855 135.915C242.366 154.488 203.245 166 160 166V170C203.916 170 243.818 158.316 273.04 139.266C302.245 120.226 320.973 93.6756 321.959 63.9641L317.961 63.8314ZM318 63C318 63.2433 317.989 63.4836 317.968 63.7206L321.952 64.075C321.984 63.7205 322 63.3619 322 63H318ZM318 61.5V63H322V61.5H318ZM318 10V61.5H322V10H318ZM310 2C314.418 2 318 5.58172 318 10H322C322 3.37258 316.627 -2 310 -2V2ZM10 2H310V-2H10V2Z"
        fill="#C4E8FA" mask="url(#path-1-inside-1_5295_7332)" />
    <path
        d="M223.913 32.9277C225.038 29.423 226.639 26.4652 227.571 23.2528C227.785 22.5075 228.429 22.1402 229.199 22.3688C230.089 22.6311 230.329 23.376 230.183 24.2025C229.93 25.6412 229.226 26.9295 228.717 28.2802C227.938 30.349 227.096 32.3922 226.325 34.463C225.986 35.3753 225.555 36.1102 224.418 35.8366C223.563 35.6308 223.294 34.7805 223.661 33.6272C223.771 33.2806 223.905 32.9447 223.91 32.9266L223.913 32.9277Z"
        fill="#323D47" />
    <path
        d="M240.609 30.9138C241.071 31.0945 241.397 31.4239 241.487 31.9549C241.614 32.7108 241.182 33.1765 240.607 33.5323C237.961 35.1683 235.519 37.0917 233.002 38.9081C232.707 39.1207 232.413 39.3416 232.083 39.4859C231.338 39.8091 230.613 39.7683 230.164 39.0115C229.714 38.2583 230.006 37.6246 230.683 37.1383C233.308 35.2625 235.927 33.3774 238.562 31.5165C239.153 31.103 239.779 30.6879 240.605 30.9127L240.609 30.9138Z"
        fill="#323D47" />
    <path
        d="M236.108 44.3748C235.68 44.2542 235.243 44.1624 234.824 44.0093C234.093 43.741 233.671 43.2214 233.843 42.4294C234.016 41.6338 234.633 41.282 235.391 41.4138C237.26 41.7457 239.12 42.1219 240.97 42.5496C241.805 42.742 242.357 43.3293 242.163 44.2279C241.966 45.1338 241.217 45.4014 240.377 45.2543C238.945 44.9987 237.529 44.67 236.104 44.3738L236.108 44.3748Z"
        fill="#323D47" />
    <g clip-path="url(#clip0_5295_7332)">
        <g filter="url(#filter0_d_5295_7332)">
            <path
                d="M111.831 181.094C110.35 174.312 108.871 167.538 107.39 160.756C107.126 159.546 106.829 158.343 106.549 157.136C106.278 155.97 106.748 155.075 107.898 154.674C108.643 154.419 109.412 154.201 110.179 154.05C110.745 153.943 110.84 153.722 110.71 153.201C109.969 150.193 109.27 147.185 108.529 144.178C108.219 142.911 107.822 141.672 107.489 140.419C107.167 139.213 107.329 138.877 108.416 138.298C109.171 137.9 109.951 137.538 110.782 137.331C113.454 136.648 116.104 135.861 118.843 135.446C120.546 135.182 120.588 135.182 121.409 136.629C121.781 137.29 122.018 137.988 122.195 138.725C123.001 142.185 123.806 145.637 124.612 149.097C124.654 149.288 124.711 149.476 124.769 149.664C124.981 150.401 125.405 150.684 126.221 150.489C126.877 150.329 127.555 150.039 128.25 150.254C129.341 150.583 129.993 151.333 130.296 152.41C130.853 154.381 131.339 156.377 131.793 158.379C133.029 163.847 134.352 169.287 135.61 174.742C137.169 181.532 138.478 188.377 140.071 195.168C140.407 196.595 140.753 198.021 141.216 199.412C141.685 200.828 141.41 201.338 140.028 201.84C138.998 202.215 137.933 202.389 136.862 202.573C134.781 202.919 132.755 203.478 130.731 204.045C127.914 204.836 125.001 205.188 122.146 205.845C121.112 206.087 120.031 206.265 118.964 206.431C117.929 206.591 117.605 206.42 117.338 205.386C117.039 204.25 116.821 203.097 116.53 201.959C115.034 195.956 113.77 189.894 112.45 183.852C112.249 182.929 112.047 182.006 111.845 181.082L111.831 181.094ZM128.85 202.296C130.744 201.983 132.561 201.394 134.375 200.79C135.807 200.56 137.165 200.03 138.563 199.683C139.075 199.555 139.067 199.29 138.93 198.894C138.019 196.266 137.589 193.524 136.974 190.823C135.988 186.502 135.228 182.131 134.212 177.825C133.456 174.595 132.763 171.344 131.895 168.139C131.04 164.998 130.393 161.804 129.65 158.63C129.236 156.853 128.815 155.077 128.395 153.309C128.21 152.54 127.744 152.1 127.173 152.224C125.218 152.643 123.201 152.783 121.275 153.412C120.025 153.819 118.731 154.101 117.447 154.356C114.702 154.898 112.016 155.676 109.29 156.304C108.607 156.454 108.398 156.691 108.567 157.43C110.56 166.093 112.376 174.795 114.321 183.469C115.729 189.766 117.169 196.049 118.648 202.322C119.096 204.218 119.104 204.216 121.066 203.713C122.81 203.407 124.554 203.101 126.298 202.795C127.17 202.738 128.019 202.578 128.84 202.29L128.85 202.296ZM119.88 145.477C119.807 145.493 119.743 145.507 119.671 145.523C119.311 143.875 118.951 142.227 118.589 140.572C118.45 139.935 118.225 139.325 117.936 138.738C117.756 138.377 117.464 138.116 116.991 138.227C116.476 138.339 116.586 138.724 116.588 139.082C116.577 139.919 116.981 140.648 117.146 141.446C117.838 144.689 118.559 147.917 119.452 151.117C119.588 151.587 119.651 151.915 120.256 151.675C120.721 151.49 121.275 151.561 121.047 150.71C120.586 148.984 120.262 147.228 119.881 145.485L119.88 145.477ZM112.956 142.661C112.808 142.134 112.826 141.563 112.502 141.084C112.281 140.765 111.981 140.589 111.583 140.692C111.265 140.778 111.009 141.034 111.09 141.325C111.358 142.284 111.453 143.298 111.896 144.21C112.05 144.527 112.385 144.637 112.738 144.518C113.13 144.383 113.309 144.085 113.23 143.685C113.156 143.343 113.047 143 112.954 142.653L112.956 142.661Z"
                fill="#08090A" />
            <path
                d="M126.3 202.803C124.556 203.109 122.812 203.415 121.068 203.72C120.936 203.424 120.781 203.141 120.665 202.841C119.594 200.056 118.815 197.182 118.02 194.312C117.294 191.685 116.743 189.003 116.104 186.349C114.559 179.889 113.214 173.386 111.814 166.895C111.6 165.916 111.507 164.911 111.382 163.912C111.264 162.912 111.399 161.949 112.162 161.198C112.502 160.865 112.598 160.536 112.593 160.087C112.592 158.694 113.769 157.487 114.913 157.52C114.606 157.812 114.291 158.106 114.347 158.594C114.483 159.757 114.42 160.93 114.406 162.101C114.397 162.87 114.801 163.332 115.392 163.303C116.094 163.275 116.359 162.792 116.396 162.192C116.468 161.092 116.512 159.982 116.39 158.882C116.331 158.345 116.169 157.871 115.723 157.527C116.31 157.132 116.731 157.824 117.272 157.756C117.257 158.343 117.24 158.922 117.225 159.509C117.209 160.088 117.279 160.64 117.92 160.875C118.533 161.1 118.899 160.694 119.226 160.264C119.418 160.523 119.678 160.75 119.798 161.032C120.442 162.593 121.056 164.168 121.686 165.74C119.948 166.228 118.188 166.654 116.504 167.314C115.736 167.615 114.968 167.916 114.309 168.41C113.89 168.727 113.792 169.165 114.036 169.629C114.266 170.063 114.667 170.2 115.124 170.059C115.465 169.959 115.801 169.802 116.121 169.649C118.169 168.727 120.288 168.055 122.507 167.688C122.69 168.565 123.073 169.357 123.45 170.159C123.327 170.211 123.215 170.277 123.09 170.321C121.053 171.057 119.015 171.794 116.974 172.515C116.387 172.718 115.946 173.015 116.098 173.707C116.247 174.392 116.804 174.512 117.397 174.449C117.749 174.406 118.104 174.295 118.438 174.164C120.367 173.434 122.269 172.618 124.276 172.088C124.344 172.399 124.444 172.702 124.568 173C125.391 174.955 126.175 176.928 126.974 178.888C125.464 179.61 123.868 180.092 122.299 180.659C121.346 181.001 120.368 181.306 119.437 181.71C118.753 182.009 118.514 182.612 118.78 183.137C119.103 183.767 119.629 183.744 120.206 183.535C120.978 183.25 121.743 182.974 122.518 182.705C124.278 182.087 126.04 181.477 127.81 180.865C128.111 181.625 128.621 182.306 128.657 183.166C126.156 183.245 124.25 184.695 122.267 185.954C121.868 186.208 121.864 186.692 122.088 187.102C122.298 187.482 122.655 187.612 123.094 187.541C123.59 187.458 124.031 187.245 124.43 186.949C125.558 186.136 126.783 185.535 128.137 185.181C128.878 184.986 129.263 184.551 129.141 183.761C129.443 184.062 129.345 184.5 129.513 184.847C130.798 187.569 131.822 190.406 133.2 193.09C133.549 193.765 133.902 194.571 133.525 195.238C132.725 196.663 133.394 197.877 133.875 199.114C134.089 199.668 134.25 200.216 134.392 200.786C132.578 201.391 130.761 201.979 128.867 202.293C127.592 199.769 126.656 197.104 125.46 194.48C125.192 194.914 125.311 195.263 125.377 195.607C125.55 196.437 125.831 197.26 125.878 198.092C125.969 199.665 126.68 201.186 126.316 202.8L126.3 202.803ZM126.694 191.375C126.947 191.303 127.205 191.247 127.447 191.161C128.049 190.946 128.411 190.525 128.224 189.899C128.037 189.272 127.522 189.076 126.891 189.272C126.293 189.461 125.688 189.51 125.055 189.465C124.508 189.426 124.074 189.679 123.99 190.256C123.91 190.816 124.217 191.182 124.751 191.349C125.393 191.551 126.043 191.517 126.694 191.375ZM122.131 174.683C122.131 174.683 122.132 174.691 122.134 174.699C121.97 174.718 121.806 174.738 121.649 174.755C121.034 174.831 120.548 175.071 120.593 175.778C120.634 176.469 121.144 176.683 121.748 176.71C122.41 176.732 123.048 176.568 123.676 176.397C124.177 176.263 124.457 175.927 124.399 175.389C124.332 174.811 123.952 174.536 123.397 174.54C122.977 174.548 122.557 174.632 122.129 174.675L122.131 174.683Z"
                fill="#C7EBFF" />
            <path
                d="M128.649 183.167C128.613 182.307 128.102 181.627 127.801 180.867C128.603 180.375 129.536 180.288 130.407 179.997C131.097 179.763 131.386 179.308 131.198 178.757C130.993 178.127 130.527 178.036 129.935 178.182C128.945 178.432 127.958 178.656 126.967 178.897C126.168 176.937 125.384 174.965 124.561 173.009C124.435 172.703 124.337 172.408 124.269 172.097C124.574 171.989 124.902 171.909 125.188 171.755C125.686 171.488 126.031 171.104 125.796 170.488C125.584 169.942 125.133 169.807 124.591 169.909C124.202 169.977 123.819 170.077 123.442 170.16C123.056 169.36 122.681 168.566 122.498 167.689C123.58 167.436 124.671 167.189 125.751 166.928C126.344 166.791 126.687 166.432 126.584 165.804C126.487 165.167 126.022 164.968 125.432 165.005C125.141 165.019 124.847 165.099 124.563 165.153C123.603 165.346 122.635 165.541 121.675 165.734C121.053 164.16 120.44 162.584 119.788 161.025C119.667 160.743 119.413 160.506 119.216 160.258C119.045 159.628 119.295 158.998 119.239 158.359C119.191 157.828 119.136 157.306 118.531 157.121C117.936 156.943 117.552 157.268 117.262 157.749C116.721 157.817 116.308 157.123 115.712 157.52C115.443 157.521 115.174 157.521 114.91 157.512C113.774 157.476 112.591 158.694 112.59 160.078C112.589 160.537 112.493 160.867 112.159 161.19C111.405 161.938 111.26 162.896 111.379 163.904C111.504 164.902 111.598 165.908 111.811 166.887C113.212 173.378 114.556 179.881 116.101 186.34C116.732 188.996 117.29 191.668 118.017 194.303C118.812 197.174 119.591 200.047 120.663 202.832C120.779 203.132 120.927 203.425 121.065 203.712C119.103 204.215 119.095 204.217 118.648 202.322C117.168 196.048 115.728 189.758 114.32 183.468C112.376 174.794 110.56 166.092 108.567 157.429C108.396 156.683 108.608 156.461 109.29 156.304C112.016 155.675 114.702 154.897 117.447 154.356C118.739 154.099 120.035 153.824 121.275 153.411C123.201 152.782 125.209 152.644 127.173 152.224C127.743 152.099 128.21 152.539 128.395 153.308C128.816 155.084 129.236 156.852 129.65 158.63C130.393 161.803 131.04 164.998 131.894 168.139C132.763 171.344 133.456 174.595 134.211 177.824C135.228 182.131 135.988 186.501 136.974 190.823C137.589 193.524 138.019 196.265 138.93 198.894C139.067 199.289 139.074 199.554 138.563 199.683C137.157 200.031 135.807 200.56 134.375 200.789C134.235 200.227 134.072 199.671 133.858 199.117C133.377 197.88 132.708 196.666 133.509 195.241C133.885 194.575 133.524 193.769 133.183 193.093C131.805 190.409 130.781 187.572 129.496 184.85C129.328 184.503 129.434 184.063 129.124 183.764C128.963 183.565 128.802 183.367 128.649 183.167ZM121.858 159.013C121.688 158.467 121.312 158.207 120.741 158.332C120.178 158.455 119.916 158.837 120.008 159.409C120.097 159.974 120.622 160.293 121.169 160.14C121.731 159.975 121.932 159.581 121.852 159.023L121.858 159.013ZM123.011 157.619C122.459 157.79 122.174 158.144 122.289 158.711C122.403 159.27 122.781 159.537 123.361 159.453C123.932 159.37 124.268 158.863 124.122 158.311C123.973 157.743 123.576 157.546 123.011 157.619Z"
                fill="#FAFAFA" />
            <path
                d="M119.872 145.478C120.252 147.222 120.579 148.985 121.038 150.703C121.266 151.554 120.703 151.485 120.246 151.668C119.648 151.899 119.579 151.58 119.442 151.11C118.544 147.92 117.828 144.682 117.137 141.439C116.965 140.651 116.567 139.912 116.579 139.076C116.586 138.724 116.477 138.339 116.981 138.22C117.456 138.117 117.755 138.368 117.927 138.731C118.213 139.311 118.439 139.92 118.58 140.565C118.94 142.213 119.299 143.86 119.661 145.516C119.733 145.5 119.798 145.486 119.87 145.471L119.872 145.478Z"
                fill="#FAFAFA" />
            <path
                d="M126.3 202.803C126.663 201.19 125.944 199.67 125.861 198.095C125.814 197.263 125.533 196.441 125.361 195.611C125.286 195.269 125.168 194.919 125.443 194.484C126.639 197.108 127.577 199.781 128.85 202.296C128.027 202.576 127.18 202.745 126.308 202.802L126.3 202.803Z"
                fill="#FAFAFA" />
            <path
                d="M112.956 142.662C113.049 143.008 113.164 143.342 113.232 143.694C113.311 144.094 113.134 144.399 112.74 144.527C112.387 144.646 112.052 144.535 111.898 144.219C111.465 143.313 111.362 142.301 111.091 141.334C111.011 141.043 111.265 140.779 111.585 140.701C111.983 140.597 112.283 140.774 112.504 141.092C112.826 141.564 112.809 142.143 112.958 142.67L112.956 142.662Z"
                fill="#E1E0DE" />
            <path
                d="M126.968 178.905C127.96 178.663 128.947 178.44 129.937 178.19C130.529 178.044 130.987 178.136 131.2 178.765C131.379 179.318 131.091 179.773 130.409 180.005C129.538 180.295 128.605 180.382 127.803 180.874C126.041 181.484 124.279 182.094 122.511 182.714C121.736 182.983 120.972 183.267 120.199 183.544C119.622 183.753 119.09 183.786 118.773 183.146C118.508 182.629 118.746 182.018 119.43 181.719C120.361 181.315 121.331 181.012 122.292 180.669C123.861 180.101 125.458 179.627 126.967 178.897L126.968 178.905Z"
                fill="#08090A" />
            <path
                d="M121.67 165.744C122.63 165.551 123.598 165.357 124.558 165.164C124.848 165.1 125.137 165.037 125.427 165.016C126.009 164.98 126.483 165.185 126.579 165.815C126.674 166.445 126.329 166.795 125.746 166.939C124.666 167.2 123.574 167.447 122.493 167.7C120.274 168.067 118.155 168.739 116.107 169.661C115.777 169.808 115.449 169.963 115.11 170.071C114.651 170.204 114.25 170.067 114.022 169.641C113.778 169.177 113.874 168.731 114.295 168.422C114.954 167.928 115.73 167.625 116.49 167.326C118.174 166.666 119.935 166.248 121.672 165.752L121.67 165.744Z"
                fill="#08090A" />
            <path
                d="M123.436 170.17C123.822 170.086 124.204 169.986 124.586 169.919C125.12 169.819 125.57 169.954 125.79 170.498C126.034 171.112 125.68 171.498 125.183 171.765C124.896 171.919 124.567 171.991 124.263 172.108C122.255 172.63 120.353 173.445 118.425 174.183C118.09 174.306 117.737 174.425 117.384 174.469C116.785 174.541 116.236 174.419 116.085 173.727C115.934 173.034 116.374 172.738 116.962 172.534C119.003 171.814 121.04 171.077 123.077 170.34C123.202 170.296 123.314 170.23 123.438 170.178L123.436 170.17Z"
                fill="#08090A" />
            <path
                d="M128.649 183.167C128.81 183.365 128.972 183.563 129.125 183.763C129.247 184.554 128.87 184.987 128.121 185.184C126.775 185.536 125.542 186.139 124.414 186.952C124.013 187.24 123.571 187.453 123.078 187.544C122.64 187.623 122.283 187.492 122.072 187.105C121.848 186.695 121.844 186.212 122.251 185.957C124.233 184.698 126.14 183.248 128.641 183.169L128.649 183.167Z"
                fill="#08090A" />
            <path
                d="M114.913 157.52C115.182 157.52 115.452 157.519 115.715 157.528C116.153 157.875 116.325 158.354 116.381 158.884C116.504 159.983 116.46 161.094 116.388 162.193C116.351 162.794 116.086 163.277 115.384 163.305C114.791 163.326 114.389 162.872 114.398 162.103C114.411 160.932 114.477 159.767 114.339 158.596C114.283 158.108 114.59 157.816 114.905 157.522L114.913 157.52Z"
                fill="#08090A" />
            <path
                d="M126.694 191.376C126.043 191.518 125.395 191.559 124.751 191.35C124.226 191.181 123.91 190.816 123.99 190.256C124.075 189.679 124.508 189.426 125.055 189.465C125.689 189.51 126.291 189.454 126.892 189.273C127.523 189.076 128.037 189.273 128.224 189.899C128.412 190.525 128.05 190.954 127.447 191.161C127.205 191.247 126.948 191.304 126.694 191.376Z"
                fill="#08090A" />
            <path
                d="M117.264 157.757C117.556 157.284 117.938 156.95 118.533 157.129C119.138 157.314 119.193 157.836 119.242 158.367C119.297 159.006 119.045 159.628 119.218 160.265C118.891 160.695 118.533 161.099 117.911 160.876C117.27 160.641 117.2 160.089 117.217 159.51C117.234 158.931 117.249 158.344 117.264 157.757Z"
                fill="#08090A" />
            <path
                d="M122.132 174.691C122.551 174.641 122.971 174.558 123.4 174.556C123.963 174.55 124.343 174.825 124.402 175.404C124.459 175.934 124.188 176.277 123.679 176.413C123.051 176.583 122.413 176.748 121.751 176.725C121.141 176.709 120.637 176.485 120.596 175.793C120.551 175.086 121.038 174.846 121.653 174.77C121.817 174.751 121.981 174.732 122.138 174.715C122.138 174.715 122.136 174.707 122.134 174.699L122.132 174.691Z"
                fill="#08090A" />
            <path
                d="M121.851 159.016C121.931 159.574 121.732 159.976 121.169 160.132C120.615 160.295 120.096 159.966 120.007 159.402C119.916 158.83 120.177 158.447 120.74 158.325C121.303 158.202 121.68 158.461 121.858 159.006L121.851 159.016Z"
                fill="#08090A" />
            <path
                d="M123.004 157.623C123.569 157.549 123.967 157.754 124.115 158.314C124.261 158.866 123.925 159.373 123.354 159.456C122.774 159.541 122.396 159.273 122.282 158.714C122.167 158.147 122.45 157.785 123.004 157.623Z"
                fill="#08090A" />
        </g>
        <g filter="url(#filter1_d_5295_7332)">
            <path
                d="M151.841 192.269C149.502 191.743 147.24 191.154 144.998 190.495C143.507 190.053 143.23 189.544 143.617 188.036C144.157 185.92 144.686 183.809 145.202 181.686C145.29 181.339 145.377 180.965 145.336 180.624C145.117 179.082 145.528 177.641 145.979 176.21C147.125 172.563 147.739 168.801 148.548 165.076C149.529 160.553 150.597 156.055 151.504 151.521C153.029 143.885 155.091 136.373 156.608 128.735C157.614 123.695 159.064 118.745 159.806 113.64C159.964 112.551 160.131 111.464 160.051 110.342C159.973 109.246 160.87 108.54 161.813 108.897C164.092 109.761 166.461 110.304 168.799 110.957C173.491 112.266 178.205 113.464 183.032 114.169C183.803 114.282 184.534 114.605 185.341 114.619C186.003 114.634 186.328 115.122 186.276 115.768C186.246 116.182 186.12 116.604 185.984 116.997C184.132 122.317 182.24 127.626 180.435 132.959C179.395 136.044 178.597 139.238 177.353 142.224C175.925 145.657 175.219 149.318 173.592 152.67C172.988 153.914 172.777 155.344 172.313 156.67C170.811 160.979 169.584 165.374 168.138 169.698C166.484 174.642 165.262 179.724 163.532 184.637C162.99 186.178 162.423 187.72 161.896 189.273C161.508 190.417 161.17 191.566 160.886 192.739C160.523 194.253 159.873 194.621 158.397 194.218C156.175 193.606 153.948 193.018 151.829 192.283L151.841 192.269ZM154.252 190.827C154.476 191.034 154.737 191.107 155.03 191.07C156.124 191.528 157.29 191.726 158.414 192.074C158.854 192.214 159.09 192.009 158.999 191.603C158.911 191.214 158.957 190.864 159.138 190.584C160.025 189.182 160.167 187.539 160.686 186.017C160.824 185.616 160.691 185.418 160.278 185.336C159.25 185.134 158.226 184.916 157.201 184.697C156.872 184.563 156.555 184.382 156.212 184.294C154.029 183.727 151.845 183.168 149.645 182.631C149.173 182.516 148.675 182.495 148.198 182.429C147.493 182.047 147.188 182.376 147.02 183.039C146.677 184.39 146.278 185.726 145.959 187.083C145.593 188.639 145.617 188.645 147.207 188.979C148.825 189.549 150.513 189.835 152.176 190.214L154.249 190.835L154.252 190.827ZM148.594 180.307C148.745 180.501 148.96 180.587 149.184 180.641C152.028 181.409 154.868 182.16 157.715 182.921C158.711 183.359 159.773 183.597 160.837 183.792C161.655 183.953 161.855 183.789 162.047 182.946C162.146 182.533 162.244 182.121 162.35 181.71C164.347 174.249 166.911 166.962 169.184 159.586C169.928 157.163 170.485 154.679 171.41 152.315C172.929 148.433 174.284 144.497 175.469 140.497C176.331 137.591 177.597 134.831 178.584 131.968C180.283 127.046 182.022 122.134 183.723 117.204C183.938 116.587 183.765 116.378 183.187 116.276C182.087 116.087 180.988 115.89 179.884 115.684C174.192 114.619 168.624 113.023 163.054 111.459C162.404 111.278 162.069 111.286 162.073 112.065C162.077 112.481 161.993 112.906 161.926 113.327C161.251 117.673 160.297 121.949 159.267 126.221C157.996 131.508 157.036 136.874 155.688 142.132C154.291 147.595 153.412 153.161 152.055 158.636C150.407 165.273 149.539 172.086 147.403 178.604C147 179.836 147.286 180.187 148.582 180.287L148.594 180.307Z"
                fill="#08090A" />
            <path
                d="M148.594 180.305C147.298 180.206 147.009 179.863 147.415 178.623C149.551 172.105 150.421 165.284 152.066 158.655C153.422 153.188 154.303 147.614 155.7 142.15C157.05 136.885 158.01 131.519 159.278 126.239C160.309 121.967 161.263 117.691 161.938 113.346C162.004 112.924 162.086 112.507 162.085 112.084C162.073 111.302 162.416 111.296 163.066 111.478C168.633 113.049 174.196 114.636 179.896 115.702C180.992 115.907 182.098 116.106 183.199 116.294C183.769 116.394 183.941 116.603 183.734 117.222C182.035 122.145 180.297 127.057 178.596 131.987C177.609 134.85 176.343 137.609 175.481 140.516C174.296 144.516 172.933 148.45 171.421 152.333C170.496 154.698 169.94 157.181 169.195 159.604C166.922 166.981 164.359 174.267 162.361 181.729C162.247 182.137 162.157 182.552 162.059 182.964C161.866 183.807 161.659 183.969 160.849 183.811C159.786 183.607 158.725 183.37 157.726 182.939C158.243 180.994 158.366 178.964 158.931 177.032C159.682 176.329 159.703 176.132 159.06 175.224C159.695 173.346 159.804 171.363 160.205 169.437C160.622 167.455 160.836 165.434 161.294 163.455C161.834 163.327 162.302 163.119 162.365 162.494C162.421 161.867 161.973 161.573 161.521 161.294C161.64 160.87 161.758 160.447 161.868 160.021C162.373 159.958 162.833 160.146 163.314 160.23C164.12 160.37 164.652 160.087 164.765 159.467C164.876 158.855 164.495 158.385 163.699 158.205C163.225 158.098 162.72 158.101 162.271 157.874C162.491 156.506 162.713 155.13 162.966 153.763C163.534 150.749 163.989 147.712 164.491 144.689C165.08 144.202 165.19 143.623 164.796 142.955C165.195 141.984 165.076 140.91 165.433 139.936C166.138 140.073 166.84 140.193 167.542 140.338C168.463 140.528 168.985 140.343 169.161 139.741C169.339 139.106 168.953 138.651 167.996 138.375C167.275 138.174 166.554 137.973 165.832 137.771C166.081 137.096 165.914 136.348 166.21 135.686C168.036 135.908 169.815 136.388 171.613 136.771C172.435 136.95 172.962 136.683 173.107 136.072C173.252 135.461 172.889 134.987 172.078 134.769C171.761 134.681 171.429 134.647 171.11 134.567C169.615 134.166 168.069 134.014 166.596 133.535C167.099 131.4 167.364 129.224 167.979 127.112C169.43 127.119 170.318 125.988 171.534 125.304C171.467 126.216 171.79 126.864 172.602 127.049C173.461 127.246 174.321 127.012 175.043 126.537C175.674 126.113 175.479 125.187 174.765 124.869C174.53 124.762 174.242 124.876 173.985 124.635C174.092 124.25 174.212 123.852 174.318 123.442C174.463 122.831 174.401 122.255 173.854 121.857C173.31 121.452 172.804 121.733 172.3 122.007C171.779 122.285 171.405 122.798 170.643 123.017C170.979 122.425 171.253 121.994 171.476 121.532C171.754 120.967 171.956 120.363 171.568 119.764C171.155 119.133 170.529 119.356 169.957 119.416C170.01 119.194 170.056 118.97 170.117 118.75C170.454 117.389 169.866 116.193 168.579 115.631C167.276 115.064 165.668 115.469 165.031 116.62C164.738 117.147 164.394 117.677 164.296 118.301C164.221 118.754 164.003 119.014 163.515 119.174C162.496 119.516 161.884 120.242 161.592 121.319C160.569 125.043 159.596 128.773 158.843 132.572C158.394 134.824 157.871 137.063 157.38 139.312C156.935 141.336 156.531 143.364 156.102 145.392C155.476 148.339 154.86 151.28 154.242 154.229C153.786 156.411 153.313 158.597 152.823 160.778C152.343 162.928 151.912 165.083 151.432 167.233C150.933 169.479 150.452 171.722 149.961 173.97C149.497 176.091 149.01 178.205 148.627 180.34L148.594 180.305Z"
                fill="#FAFAFA" />
            <path
                d="M161.831 160.003C161.713 160.426 161.595 160.85 161.484 161.276C160.348 161.094 159.213 160.904 158.08 160.74C157.521 160.661 157.109 160.884 156.932 161.426C156.776 161.891 156.942 162.275 157.343 162.523C157.593 162.668 157.886 162.75 158.174 162.822C159.188 163.105 160.26 163.092 161.267 163.432C160.809 165.41 160.595 167.431 160.178 169.413C159.777 171.34 159.676 173.325 159.032 175.201C157.384 174.741 155.741 174.29 154.09 173.838C153.536 173.683 153.031 173.686 152.819 174.354C152.591 175.078 152.825 175.524 153.575 175.775C154.357 176.036 155.126 176.31 155.917 176.539C156.887 176.827 157.858 177.174 158.906 177.001C158.341 178.933 158.219 180.963 157.701 182.908C154.855 182.147 152.017 181.389 149.171 180.628C148.957 180.568 148.734 180.48 148.581 180.294C148.955 178.157 149.443 176.043 149.914 173.924C150.405 171.676 150.886 169.433 151.385 167.187C151.866 165.037 152.296 162.882 152.777 160.732C153.266 158.551 153.737 156.373 154.195 154.183C154.811 151.242 155.429 148.293 156.055 145.346C156.485 143.318 156.896 141.292 157.334 139.266C157.825 137.017 158.348 134.778 158.797 132.526C159.548 128.735 160.523 124.997 161.545 121.273C161.845 120.198 162.45 119.47 163.468 119.128C163.957 118.969 164.175 118.708 164.25 118.255C164.355 117.633 164.692 117.101 164.984 116.574C165.621 115.424 167.23 115.018 168.532 115.585C169.819 116.147 170.408 117.343 170.071 118.704C170.009 118.924 169.964 119.148 169.91 119.37C167.458 120.75 165.29 122.547 162.824 123.914C161.976 124.379 161.828 125.065 162.231 125.609C162.609 126.121 163.161 126.106 163.965 125.611C165.1 124.913 166.244 124.243 167.463 123.517C167.456 124.031 167.164 124.313 167.015 124.661C166.49 125.868 166.739 126.538 167.939 127.076C167.326 129.18 167.058 131.364 166.556 133.499C165.44 133.365 164.361 133.098 163.266 132.86C162.428 132.677 161.589 132.502 160.739 132.425C160.054 132.37 159.616 132.865 159.608 133.506C159.6 134.087 160.022 134.535 160.659 134.577C162.542 134.688 164.349 135.193 166.159 135.656C165.855 136.315 166.028 137.074 165.782 137.741C165.648 137.729 165.521 137.728 165.392 137.7C163.982 137.425 162.57 137.158 161.165 136.867C160.528 136.731 160.025 136.879 159.812 137.488C159.593 138.12 159.97 138.547 160.524 138.794C160.812 138.926 161.15 138.969 161.461 139.048C162.759 139.359 164.116 139.425 165.379 139.887C165.029 140.864 165.138 141.944 164.741 142.907C164.182 142.615 163.544 142.606 162.958 142.409C162.386 142.224 161.912 142.362 161.658 142.935C161.402 143.514 161.671 143.928 162.164 144.243C162.867 144.693 163.65 144.675 164.439 144.633C163.936 147.656 163.482 150.693 162.914 153.707C162.66 155.074 162.441 156.442 162.219 157.818C160.959 157.619 159.704 157.463 158.554 156.778C157.954 156.417 157.202 156.266 156.497 156.128C155.492 155.932 154.958 156.621 155.225 157.592C155.384 158.186 155.832 158.294 156.301 158.451C158.112 159.066 159.978 159.451 161.808 159.962L161.831 160.003Z"
                fill="#C4E8FA" />
            <path
                d="M148.193 182.419C148.678 182.486 149.168 182.505 149.64 182.62C151.831 183.155 154.016 183.714 156.207 184.283C156.547 184.379 156.866 184.552 157.196 184.687C156.474 185.957 155.267 185.967 154.043 185.82C153.606 185.765 153.32 185.779 153.31 186.275C153.293 187.683 152.998 189.013 152.175 190.188C150.512 189.808 148.824 189.523 147.206 188.953C147.319 186.743 147.736 184.575 148.187 182.408L148.193 182.419Z"
                fill="#C4E8FA" />
            <path
                d="M148.192 182.419C147.733 184.583 147.316 186.751 147.211 188.963C145.621 188.629 145.597 188.623 145.963 187.067C146.282 185.709 146.673 184.372 147.024 183.023C147.19 182.368 147.497 182.031 148.202 182.413L148.192 182.419Z"
                fill="#FAFAFA" />
            <path
                d="M154.244 190.825C154.596 190.602 154.869 190.636 155.022 191.068C154.729 191.104 154.46 191.029 154.244 190.825Z"
                fill="#E1E0DE" />
            <path
                d="M167.95 127.096C166.756 126.568 166.502 125.888 167.027 124.681C167.173 124.341 167.467 124.051 167.474 123.537C166.263 124.264 165.111 124.933 163.976 125.631C163.172 126.125 162.621 126.141 162.243 125.629C161.839 125.085 161.988 124.399 162.835 123.934C165.302 122.567 167.469 120.769 169.922 119.39C170.502 119.332 171.128 119.109 171.533 119.738C171.921 120.337 171.729 120.935 171.441 121.506C171.21 121.966 170.934 122.405 170.608 122.99C171.362 122.769 171.744 122.258 172.265 121.981C172.769 121.707 173.273 121.433 173.819 121.831C174.364 122.237 174.428 122.805 174.283 123.416C174.187 123.82 174.057 124.224 173.95 124.608C174.207 124.849 174.495 124.735 174.73 124.843C175.444 125.161 175.639 126.087 175.008 126.511C174.293 126.988 173.434 127.222 172.567 127.022C171.755 126.838 171.432 126.19 171.499 125.278C170.283 125.962 169.395 127.093 167.944 127.085L167.95 127.096Z"
                fill="#08090A" />
            <path
                d="M166.17 135.676C164.36 135.213 162.553 134.709 160.67 134.598C160.03 134.563 159.611 134.108 159.619 133.526C159.63 132.878 160.065 132.39 160.75 132.446C161.6 132.523 162.441 132.69 163.277 132.881C164.37 133.127 165.451 133.386 166.567 133.52C168.039 133.999 169.586 134.151 171.08 134.552C171.397 134.64 171.729 134.674 172.049 134.754C172.849 134.978 173.222 135.446 173.078 136.057C172.93 136.675 172.405 136.935 171.584 136.756C169.786 136.373 168.006 135.893 166.18 135.671L166.17 135.676Z"
                fill="#08090A" />
            <path
                d="M161.831 160.003C160 159.492 158.127 159.104 156.324 158.491C155.855 158.335 155.409 158.219 155.248 157.633C154.981 156.661 155.515 155.973 156.52 156.169C157.225 156.306 157.977 156.457 158.577 156.819C159.727 157.504 160.98 157.668 162.242 157.859C162.691 158.086 163.196 158.083 163.67 158.19C164.466 158.37 164.857 158.835 164.736 159.452C164.623 160.072 164.091 160.355 163.284 160.214C162.804 160.131 162.333 159.949 161.839 160.005L161.831 160.003Z"
                fill="#08090A" />
            <path
                d="M165.396 139.917C164.125 139.452 162.776 139.389 161.479 139.077C161.167 138.999 160.829 138.955 160.541 138.824C159.987 138.576 159.602 138.148 159.83 137.517C160.042 136.908 160.553 136.763 161.182 136.897C162.587 137.187 163.999 137.455 165.409 137.73C165.538 137.757 165.668 137.751 165.799 137.771C166.52 137.972 167.241 138.174 167.963 138.375C168.922 138.643 169.307 139.097 169.128 139.741C168.959 140.345 168.438 140.529 167.509 140.338C166.806 140.192 166.105 140.073 165.4 139.935L165.396 139.917Z"
                fill="#08090A" />
            <path
                d="M158.909 177.019C157.862 177.191 156.901 176.839 155.92 176.556C155.13 176.327 154.358 176.061 153.579 175.793C152.829 175.541 152.589 175.085 152.822 174.372C153.034 173.704 153.539 173.701 154.094 173.856C155.745 174.308 157.387 174.758 159.036 175.218C159.672 176.123 159.659 176.323 158.907 177.026L158.909 177.019Z"
                fill="#08090A" />
            <path
                d="M161.264 163.44C160.257 163.1 159.188 163.106 158.171 162.83C157.886 162.751 157.59 162.677 157.341 162.531C156.932 162.282 156.774 161.899 156.929 161.435C157.106 160.892 157.519 160.669 158.077 160.749C159.21 160.913 160.345 161.103 161.482 161.285C161.934 161.563 162.389 161.859 162.326 162.485C162.268 163.12 161.792 163.325 161.254 163.446L161.264 163.44Z"
                fill="#08090A" />
            <path
                d="M164.462 144.673C163.675 144.707 162.89 144.733 162.187 144.283C161.694 143.968 161.425 143.555 161.681 142.975C161.934 142.403 162.409 142.264 162.981 142.449C163.566 142.647 164.207 142.648 164.764 142.947C165.166 143.618 165.05 144.186 164.459 144.681L164.462 144.673Z"
                fill="#08090A" />
        </g>
        <path
            d="M186.862 188.785C191.961 188.253 197.068 187.721 202.167 187.189C203.034 187.099 203.243 187.282 203.383 188.299C203.782 191.338 204.238 194.362 204.54 197.411C204.862 200.662 205.484 203.85 206.009 207.063C206.309 208.908 206.257 208.963 204.396 209.206C198.528 209.973 192.67 210.846 186.775 211.436C182.886 211.825 178.992 212.248 175.104 212.653C173.378 212.833 172.914 212.513 172.653 210.804C172.254 208.166 171.985 205.508 171.537 202.876C170.992 199.631 170.455 196.386 170.057 193.126C169.985 192.519 169.97 191.898 169.981 191.283C169.992 190.601 170.434 190.236 171.325 190.135C173.748 189.882 176.162 189.63 178.585 189.378C181.334 189.091 184.076 188.805 186.826 188.518C186.835 188.608 186.844 188.689 186.853 188.778L186.862 188.785ZM175.226 199.697C174.765 199.721 174.31 199.793 173.852 199.767C173.245 199.74 173.049 199.924 173.173 200.559C173.794 203.656 174.097 206.803 174.532 209.936C174.624 210.582 174.865 210.671 175.484 210.656C176.944 210.618 178.345 210.251 179.788 210.125C187.562 209.462 195.28 208.42 203.009 207.409C203.997 207.281 204.003 207.264 203.849 206.256C203.477 203.879 202.942 201.526 202.715 199.117C202.52 197.081 202.503 197.083 200.436 197.495C198.281 197.687 196.128 197.911 193.969 198.071C187.72 198.518 181.465 198.99 175.234 199.688L175.226 199.697ZM186.869 190.758C186.863 190.702 186.857 190.637 186.851 190.58C185.312 190.741 183.773 190.901 182.235 191.062C179.094 191.405 175.938 191.53 172.809 191.987C172.198 192.075 172.04 192.305 172.115 192.87C172.29 194.228 172.473 195.586 172.573 196.943C172.626 197.691 172.954 197.903 173.646 197.798C173.907 197.754 174.172 197.759 174.434 197.732C177.848 197.466 181.239 196.982 184.65 196.765C190.263 196.409 195.851 195.81 201.46 195.414C202.093 195.372 202.315 195.202 202.195 194.526C201.931 193.022 201.739 191.502 201.58 189.978C201.516 189.362 201.289 189.247 200.708 189.307C196.103 189.812 191.485 190.277 186.878 190.758L186.869 190.758Z"
            fill="#08090A" />
        <path
            d="M175.217 199.697C181.448 198.99 187.695 198.527 193.953 198.08C196.113 197.928 198.265 197.696 200.42 197.504C201.277 199.29 201.182 201.242 201.387 203.129C201.48 204.012 200.662 205.212 199.86 205.459C198.369 205.918 196.875 206.507 195.341 206.708C191.995 207.147 188.666 207.675 185.327 208.187C183.218 208.513 181.087 208.539 178.958 208.671C176.936 208.8 175.469 207.666 175.227 205.66C175.113 204.722 175.064 203.777 174.926 202.849C174.764 201.776 174.729 200.723 175.218 199.706L175.217 199.697ZM190.068 202.712C190.074 202.777 190.08 202.833 190.087 202.898C191.528 202.748 192.961 202.607 194.4 202.448C195.317 202.353 196.232 202.241 197.133 202.082C197.751 201.976 198.133 201.592 198.088 200.925C198.043 200.25 197.536 200.229 197.027 200.192C195.968 200.106 194.946 200.466 193.898 200.486C191.199 200.546 188.527 200.866 185.845 201.17C183.621 201.426 181.458 202.02 179.208 202.108C178.376 202.137 177.928 202.528 177.936 203.158C177.946 203.812 178.488 204.247 179.324 204.168C180.47 204.057 181.614 203.913 182.744 203.721C185.174 203.304 187.613 202.976 190.069 202.72L190.068 202.712ZM188.632 206.876C188.632 206.876 188.635 206.9 188.635 206.908C189.094 206.86 189.552 206.812 190.01 206.765C190.763 206.686 191.186 206.298 191.156 205.695C191.136 205.107 190.638 204.692 189.933 204.675C189.768 204.676 189.605 204.702 189.44 204.71C187.271 204.847 185.189 205.596 183.011 205.651C182.491 205.664 182.184 206.049 182.137 206.553C182.092 207.074 182.4 207.411 182.881 207.574C183.326 207.724 183.793 207.675 184.249 207.603C185.704 207.361 187.167 207.11 188.622 206.86L188.632 206.876Z"
            fill="#C7EBFF" />
        <path
            d="M186.861 190.76C191.469 190.28 196.085 189.806 200.691 189.31C201.281 189.248 201.5 189.365 201.564 189.981C201.723 191.504 201.914 193.024 202.179 194.529C202.3 195.212 202.077 195.375 201.444 195.416C195.835 195.813 190.246 196.412 184.633 196.768C181.222 196.984 177.832 197.477 174.417 197.735C174.155 197.762 173.89 197.757 173.63 197.8C172.947 197.912 172.618 197.693 172.556 196.946C172.455 195.58 172.272 194.223 172.098 192.873C172.023 192.307 172.189 192.077 172.792 191.989C175.921 191.532 179.077 191.408 182.218 191.064C183.757 190.904 185.295 190.743 186.834 190.583C186.84 190.639 186.847 190.704 186.853 190.761L186.861 190.76Z"
            fill="#FAFAFA" />
        <path
            d="M190.067 202.714C187.612 202.97 185.173 203.298 182.743 203.715C181.613 203.906 180.47 204.058 179.323 204.162C178.48 204.25 177.937 203.806 177.935 203.151C177.927 202.521 178.375 202.131 179.207 202.101C181.448 202.015 183.62 201.42 185.844 201.163C188.526 200.859 191.198 200.548 193.897 200.479C194.953 200.451 195.967 200.1 197.026 200.186C197.543 200.222 198.042 200.244 198.087 200.919C198.133 201.594 197.75 201.97 197.132 202.075C196.231 202.235 195.315 202.338 194.399 202.442C192.96 202.608 191.527 202.742 190.086 202.892C190.079 202.827 190.073 202.77 190.067 202.705L190.067 202.714Z"
            fill="#08090A" />
        <path
            d="M188.641 206.876C187.186 207.126 185.723 207.376 184.267 207.618C183.812 207.69 183.345 207.739 182.899 207.589C182.419 207.426 182.111 207.09 182.156 206.569C182.193 206.057 182.509 205.672 183.03 205.667C185.216 205.611 187.289 204.862 189.459 204.726C189.623 204.709 189.786 204.692 189.952 204.691C190.657 204.708 191.147 205.123 191.175 205.71C191.197 206.314 190.774 206.702 190.029 206.78C189.571 206.828 189.112 206.876 188.654 206.923C188.653 206.915 188.652 206.899 188.651 206.891L188.641 206.876Z"
            fill="#08090A" />
        <g filter="url(#filter2_d_5295_7332)">
            <path
                d="M189.361 151.749C191.484 149.166 193.401 145.857 195.722 142.832C197.946 139.937 200.198 137.073 202.408 134.168C202.824 133.614 203.15 133.564 203.659 134.037C203.965 134.328 204.353 134.538 204.718 134.75C208.194 136.727 211.193 139.365 214.343 141.789C214.97 142.27 215.031 142.723 214.577 143.411C213.717 144.721 212.691 145.897 211.791 147.178C209.607 150.295 207.16 153.227 204.956 156.33C202.746 159.439 200.436 162.463 198.192 165.536C195.25 169.552 192.245 173.531 189.277 177.528C188.71 178.284 188.182 179.07 187.615 179.826C187.018 180.621 186.56 180.766 185.672 180.303C184.886 179.897 184.13 179.411 183.416 178.896C180.744 176.972 178.103 175.021 175.446 173.079C174.598 172.453 174.568 171.972 175.14 171.087C178.237 166.301 181.954 161.95 185.058 157.169C186.231 155.359 187.773 153.838 189.373 151.748L189.361 151.749ZM181.795 175.215C183.036 176.125 184.271 177.042 185.522 177.939C185.785 178.137 186.1 178.444 186.437 177.995C187.86 176.098 189.278 174.208 190.701 172.312C190.897 172.051 190.883 171.878 190.606 171.67C189.761 171.056 188.928 170.411 188.092 169.784C186.47 168.312 184.652 167.101 182.763 166C181.771 165.306 181.758 165.296 181.095 166.194C179.879 167.828 178.698 169.499 177.469 171.123C177.092 171.625 177.175 171.871 177.672 172.182C178.226 172.527 178.728 172.954 179.248 173.344C179.993 174.107 180.894 174.661 181.805 175.202L181.795 175.215ZM189.354 168.102C190.049 168.807 190.868 169.361 191.638 169.979C191.997 170.269 192.223 170.255 192.505 169.866C193.341 168.711 194.268 167.613 195.11 166.463C199.271 160.753 203.444 155.053 207.69 149.408C209.197 147.401 210.652 145.365 212.138 143.343C212.324 143.095 212.505 142.854 212.158 142.604C210.708 141.588 209.543 140.194 207.93 139.381C206.595 138.227 205.129 137.259 203.591 136.39C203.316 136.235 203.101 136.083 202.871 136.472C202.464 137.165 202.025 137.833 201.605 138.516C198.803 141.976 196.095 145.516 193.61 149.212C190.505 153.83 186.69 157.914 183.717 162.631C182.968 163.821 182.911 163.788 184.217 164.432C185.932 165.657 187.646 166.882 189.354 168.102Z"
                fill="#08090A" />
            <path
                d="M201.594 138.53C202.021 137.851 202.466 137.177 202.861 136.485C203.085 136.104 203.306 136.249 203.58 136.404C205.119 137.273 206.59 138.234 207.92 139.395C207.744 139.629 207.597 139.866 207.505 140.153C207.157 141.165 206.645 142.095 205.998 142.944C205.702 142.803 205.414 142.638 205.107 142.54C204.578 142.368 204.11 142.485 203.86 143.01C203.61 143.535 203.812 143.952 204.28 144.273C204.547 144.453 204.879 144.559 205.062 144.849C204.871 145.103 204.676 145.364 204.485 145.618C204.008 145.281 203.506 145.017 202.987 145.503C202.488 145.963 202.649 146.502 202.914 147.027C203.015 147.235 203.126 147.43 203.236 147.625C203.104 147.801 202.967 147.984 202.835 148.16C201.969 147.642 201.323 147.748 201.12 148.472C200.938 149.14 201.356 149.474 201.875 149.741C201.415 150.354 200.956 150.966 200.508 151.577C199.228 151.473 198.886 151.929 199.308 153.163C198.405 154.818 197.208 156.263 196.103 157.776C195.722 157.531 195.343 157.267 194.942 157.048C194.452 156.782 193.977 156.813 193.63 157.275C193.287 157.731 193.375 158.204 193.778 158.599C194.106 158.916 194.485 159.18 194.838 159.476C194.662 159.71 194.486 159.945 194.31 160.18C194.205 160.019 194.104 159.852 193.977 159.705C193.601 159.26 193.151 159.024 192.624 159.383C192.065 159.758 192.107 160.278 192.377 160.837C192.567 161.214 192.894 161.409 193.228 161.608C192.905 162.039 192.581 162.457 192.252 162.882C191.939 162.668 191.651 162.381 191.212 162.459C190.784 162.535 190.505 162.784 190.431 163.197C190.308 163.869 190.736 164.19 191.294 164.405C190.601 165.617 190.449 167.122 189.343 168.116C187.629 166.891 185.915 165.666 184.207 164.445C184.632 163.838 184.923 163.149 185.364 162.533C188.13 158.71 191.099 155.04 193.753 151.134C195.704 148.258 197.688 145.408 199.628 142.535C200.368 141.439 201.002 140.265 201.696 139.135C201.847 138.892 201.785 138.714 201.589 138.536L201.594 138.53Z"
                fill="#C4E8FA" />
            <path
                d="M196.111 157.781C197.216 156.267 198.413 154.822 199.315 153.167C199.846 153.433 200.383 153.622 200.814 153.048C201.234 152.488 200.976 152.009 200.517 151.593C200.977 150.981 201.436 150.368 201.884 149.757C202.947 149.464 203.089 149.235 202.838 148.17C202.97 147.994 203.107 147.812 203.239 147.636C203.366 147.741 203.486 147.842 203.603 147.96C204.053 148.389 204.562 148.588 205.073 148.126C205.584 147.664 205.431 147.142 205.065 146.643C204.837 146.329 204.586 146.019 204.488 145.629C204.678 145.375 204.874 145.114 205.065 144.86C205.357 144.978 205.491 145.251 205.682 145.476C206.065 145.926 206.545 146.123 207.06 145.766C207.624 145.385 207.578 144.841 207.276 144.299C206.965 143.739 206.444 143.379 206.005 142.948C206.646 142.094 207.165 141.17 207.513 140.158C207.612 139.875 207.752 139.634 207.928 139.399C209.54 140.212 210.704 141.594 212.155 142.622C212.514 142.871 212.326 143.107 212.135 143.361C210.649 145.383 209.194 147.418 207.688 149.426C203.442 155.071 199.268 160.771 195.108 166.481C194.265 167.631 193.339 168.729 192.503 169.884C192.219 170.262 191.999 170.28 191.636 169.997C190.865 169.379 190.046 168.825 189.351 168.12C190.457 167.127 190.604 165.628 191.302 164.41C192.279 164.053 192.356 163.937 192.264 162.88C192.587 162.45 192.911 162.032 193.241 161.606C194.078 161.491 194.435 161.015 194.316 160.173C194.492 159.938 194.668 159.703 194.844 159.469C194.876 159.482 194.905 159.484 194.936 159.497C195.543 159.799 196.155 160.258 196.757 159.539C197.174 159.037 196.989 158.572 196.099 157.782L196.111 157.781Z"
                fill="#FAFAFA" />
            <path
                d="M182.766 166.011C184.655 167.113 186.471 168.312 188.094 169.795C187.302 170.851 186.482 171.876 185.571 172.843C184.62 173.85 183.802 175.009 182.206 174.983C182.031 174.984 181.913 175.099 181.802 175.22C180.892 174.679 179.99 174.125 179.246 173.362C179.484 173.073 179.354 172.751 179.337 172.432C179.284 171.639 179.439 170.87 179.894 170.223C180.87 168.826 181.977 167.528 182.777 166.009L182.766 166.011Z"
                fill="#C4E8FA" />
            <path
                d="M201.595 138.529C201.784 138.702 201.852 138.885 201.701 139.128C201.007 140.258 200.378 141.426 199.634 142.527C197.695 145.412 195.711 148.263 193.758 151.126C191.104 155.033 188.135 158.703 185.369 162.526C184.928 163.142 184.642 163.824 184.212 164.438C182.906 163.794 182.963 163.827 183.712 162.637C186.685 157.921 190.5 153.836 193.605 149.219C196.09 145.522 198.8 141.993 201.6 138.522L201.595 138.529Z"
                fill="#C4E8FA" />
            <path
                d="M206.005 142.948C206.45 143.384 206.964 143.74 207.275 144.299C207.573 144.848 207.623 145.385 207.059 145.766C206.537 146.119 206.064 145.927 205.682 145.477C205.491 145.252 205.356 144.978 205.064 144.86C204.874 144.565 204.544 144.47 204.283 144.284C203.814 143.963 203.612 143.547 203.862 143.021C204.112 142.496 204.58 142.379 205.109 142.552C205.416 142.65 205.704 142.815 206 142.955L206.005 142.948Z"
                fill="#08090A" />
            <path
                d="M196.11 157.782C196.999 158.571 197.185 159.037 196.768 159.538C196.166 160.258 195.549 159.805 194.947 159.497C194.921 159.477 194.886 159.482 194.855 159.468C194.496 159.179 194.118 158.915 193.795 158.592C193.393 158.209 193.306 157.736 193.647 157.268C193.994 156.805 194.469 156.775 194.959 157.041C195.36 157.26 195.734 157.53 196.12 157.769L196.11 157.782Z"
                fill="#08090A" />
            <path
                d="M204.485 145.618C204.584 146.007 204.828 146.313 205.062 146.631C205.429 147.13 205.582 147.652 205.071 148.114C204.56 148.576 204.057 148.382 203.601 147.948C203.479 147.837 203.359 147.736 203.237 147.624C203.131 147.423 203.02 147.228 202.914 147.026C202.656 146.506 202.495 145.968 202.988 145.502C203.507 145.016 204.008 145.28 204.485 145.618Z"
                fill="#08090A" />
            <path
                d="M194.316 160.173C194.433 161.004 194.077 161.491 193.24 161.606C192.906 161.407 192.579 161.212 192.389 160.835C192.119 160.276 192.066 159.758 192.636 159.381C193.169 159.027 193.624 159.257 193.989 159.703C194.116 159.85 194.212 160.023 194.322 160.178L194.316 160.173Z"
                fill="#08090A" />
            <path
                d="M192.269 162.874C192.361 163.931 192.291 164.052 191.307 164.403C190.748 164.188 190.327 163.872 190.444 163.195C190.522 162.775 190.797 162.533 191.224 162.457C191.663 162.379 191.945 162.661 192.264 162.88L192.269 162.874Z"
                fill="#C4E8FA" />
            <path
                d="M200.514 151.583C200.974 151.999 201.227 152.484 200.811 153.038C200.381 153.612 199.844 153.422 199.313 153.157C198.886 151.93 199.228 151.473 200.513 151.571L200.514 151.583Z"
                fill="#08090A" />
            <path
                d="M202.836 148.16C203.087 149.224 202.945 149.454 201.882 149.746C201.363 149.479 200.938 149.14 201.127 148.477C201.325 147.76 201.971 147.653 202.842 148.165L202.836 148.16Z"
                fill="#08090A" />
        </g>
    </g>
    <path fill-rule="evenodd" clip-rule="evenodd"
        d="M0 63V378C0 383.523 4.47715 388 10 388H310C315.523 388 320 383.523 320 378V63C320 63.3026 319.987 63.602 319.96 63.8978C318.045 121.609 247.162 168 160 168C72.8384 168 1.95504 121.609 0.0397516 63.8978C0.0134386 63.602 0 63.3026 0 63Z"
        fill="url(#paint0_radial_5295_7332)" />
    <path fill-rule="evenodd" clip-rule="evenodd"
        d="M0 62V63.5V65C0 65.3026 0.0134386 65.602 0.0397516 65.8978C1.95504 123.609 72.8384 170 160 170C247.162 170 318.045 123.609 319.96 65.8978C319.987 65.602 320 65.3026 320 65V63.5V62C320 62.3026 319.987 62.602 319.96 62.8978C318.045 120.609 247.162 167 160 167C72.8384 167 1.95504 120.609 0.0397516 62.8978C0.0134386 62.602 0 62.3026 0 62Z"
        fill="#C4E8FA" />
    <defs>
        <filter id="filter0_d_5295_7332" x="104.474" y="130.312" width="36.9536" height="76.1714"
            filterUnits="userSpaceOnUse" color-interpolation-filters="sRGB">
            <feFlood flood-opacity="0" result="BackgroundImageFix" />
            <feColorMatrix in="SourceAlpha" type="matrix"
                values="0 0 0 0 0 0 0 0 0 0 0 0 0 0 0 0 0 0 127 0" result="hardAlpha" />
            <feOffset dx="-2" dy="-5" />
            <feComposite in2="hardAlpha" operator="out" />
            <feColorMatrix type="matrix"
                values="0 0 0 0 0.658333 0 0 0 0 0.658333 0 0 0 0 0.658333 0 0 0 0.31 0" />
            <feBlend mode="normal" in2="BackgroundImageFix" result="effect1_dropShadow_5295_7332" />
            <feBlend mode="normal" in="SourceGraphic" in2="effect1_dropShadow_5295_7332"
                result="shape" />
        </filter>
        <filter id="filter1_d_5295_7332" x="141.46" y="103.803" width="44.8221" height="90.5664"
            filterUnits="userSpaceOnUse" color-interpolation-filters="sRGB">
            <feFlood flood-opacity="0" result="BackgroundImageFix" />
            <feColorMatrix in="SourceAlpha" type="matrix"
                values="0 0 0 0 0 0 0 0 0 0 0 0 0 0 0 0 0 0 127 0" result="hardAlpha" />
            <feOffset dx="-2" dy="-5" />
            <feComposite in2="hardAlpha" operator="out" />
            <feColorMatrix type="matrix"
                values="0 0 0 0 0.658333 0 0 0 0 0.658333 0 0 0 0 0.658333 0 0 0 0.31 0" />
            <feBlend mode="normal" in2="BackgroundImageFix" result="effect1_dropShadow_5295_7332" />
            <feBlend mode="normal" in="SourceGraphic" in2="effect1_dropShadow_5295_7332"
                result="shape" />
        </filter>
        <filter id="filter2_d_5295_7332" x="172.753" y="128.714" width="42.1198" height="51.8506"
            filterUnits="userSpaceOnUse" color-interpolation-filters="sRGB">
            <feFlood flood-opacity="0" result="BackgroundImageFix" />
            <feColorMatrix in="SourceAlpha" type="matrix"
                values="0 0 0 0 0 0 0 0 0 0 0 0 0 0 0 0 0 0 127 0" result="hardAlpha" />
            <feOffset dx="-2" dy="-5" />
            <feComposite in2="hardAlpha" operator="out" />
            <feColorMatrix type="matrix"
                values="0 0 0 0 0.658333 0 0 0 0 0.658333 0 0 0 0 0.658333 0 0 0 0.31 0" />
            <feBlend mode="normal" in2="BackgroundImageFix" result="effect1_dropShadow_5295_7332" />
            <feBlend mode="normal" in="SourceGraphic" in2="effect1_dropShadow_5295_7332"
                result="shape" />
        </filter>
        <radialGradient id="paint0_radial_5295_7332" cx="0" cy="0" r="1"
            gradientUnits="userSpaceOnUse"
            gradientTransform="translate(160 170) rotate(90) scale(218 214.646)">
            <stop stop-color="white" />
            <stop offset="0.729167" stop-color="white" />
            <stop offset="1" stop-color="#F1F1F1" stop-opacity="1" />
        </radialGradient>
        <clipPath id="clip0_5295_7332">
            <rect width="125" height="123" fill="white"
                transform="translate(117.29 81) rotate(13.2973)" />
        </clipPath>
    </defs>
</svg>