<svg width="32" height="32" viewBox="0 0 32 32" fill="none" xmlns="http://www.w3.org/2000/svg">
<circle cx="16" cy="16" r="16" fill="#F6F6F6"/>
<path d="M14.9833 16.0075L10.2709 11.5459C10.0959 11.3763 9.99853 11.1481 10 10.911C10.0015 10.6738 10.1017 10.4467 10.2788 10.279C10.4559 10.1113 10.6957 10.0165 10.9462 10.0151C11.1967 10.0137 11.4377 10.1058 11.6169 10.2715L16.3293 14.7331L21.0417 10.2715C21.1297 10.1862 21.2347 10.1183 21.3506 10.0717C21.4666 10.0251 21.5911 10.0007 21.7171 10C21.843 9.99931 21.9679 10.0223 22.0844 10.0676C22.2009 10.1129 22.3067 10.1796 22.3958 10.264C22.4848 10.3483 22.5553 10.4485 22.6032 10.5588C22.651 10.6691 22.6753 10.7873 22.6745 10.9065C22.6738 11.0258 22.6481 11.1437 22.5988 11.2535C22.5496 11.3632 22.4779 11.4626 22.3878 11.5459L17.6753 16.0075L22.3878 20.4691C22.5628 20.6388 22.6601 20.867 22.6586 21.1041C22.6571 21.3413 22.557 21.5683 22.3798 21.736C22.2027 21.9037 21.9629 21.9986 21.7124 22C21.4619 22.0014 21.2209 21.9092 21.0417 21.7435L16.3293 17.2819L11.6169 21.7435C11.4377 21.9092 11.1967 22.0014 10.9462 22C10.6957 21.9986 10.4559 21.9037 10.2788 21.736C10.1017 21.5683 10.0015 21.3413 10 21.1041C9.99853 20.867 10.0959 20.6388 10.2709 20.4691L14.9833 16.0075Z" fill="#424A52"/>
</svg>
