<svg width="20" height="25" viewBox="0 0 20 25" fill="none" xmlns="http://www.w3.org/2000/svg">
<path fill-rule="evenodd" clip-rule="evenodd" d="M4.31818 23.125H15.6818C17.3364 23.125 18.75 21.7234 18.75 19.9219V4.45312C18.75 2.65157 17.3364 1.25 15.6818 1.25H4.31818C2.66355 1.25 1.25 2.65157 1.25 4.45312V19.9219C1.25 21.7234 2.66355 23.125 4.31818 23.125ZM4.31818 24.375H15.6818C18.0628 24.375 20 22.3772 20 19.9219V4.45312C20 1.99775 18.0628 0 15.6818 0H4.31818C1.93722 0 0 1.99775 0 4.45312V19.9219C0 22.3772 1.93722 24.375 4.31818 24.375Z" fill="#424A52"/>
<path fill-rule="evenodd" clip-rule="evenodd" d="M5.625 2.73189e-08C5.97018 1.22307e-08 6.25 0.279822 6.25 0.625L6.25 23.125C6.25 23.4702 5.97018 23.75 5.625 23.75C5.27982 23.75 5 23.4702 5 23.125L5 0.625C5 0.279822 5.27982 4.24072e-08 5.625 2.73189e-08Z" fill="#424A52"/>
<path fill-rule="evenodd" clip-rule="evenodd" d="M9.375 4.6875V0.3125H10.625V4.6875L11.75 3.84375C12.1944 3.51042 12.8056 3.51042 13.25 3.84375L14.375 4.6875V0.3125H15.625V4.6875C15.625 5.71756 14.449 6.30553 13.625 5.6875L12.5 4.84375L11.375 5.6875C10.551 6.30553 9.375 5.71756 9.375 4.6875Z" fill="#424A52"/>
</svg>
