<svg width="13" height="11" viewBox="0 0 13 11" fill="none" xmlns="http://www.w3.org/2000/svg">
    <path
        d="M1.01597 6.10833H8.7482L5.8725 8.75145C5.47442 9.11733 5.47442 9.71152 5.8725 10.0774C6.06994 10.2589 6.33108 10.3525 6.59222 10.3525C6.85336 10.3525 7.1145 10.2618 7.31194 10.0774L11.9296 5.83319L11.9647 5.80099C11.971 5.79514 11.9742 5.78928 11.9806 5.78343C11.987 5.77758 11.9933 5.77172 11.9965 5.76587C12.0029 5.76001 12.0092 5.75123 12.0156 5.74538C12.0188 5.73952 12.0252 5.7366 12.0284 5.73074C12.0347 5.72196 12.0411 5.71318 12.0475 5.70733C12.0506 5.7044 12.0538 5.69854 12.057 5.69562L12.0761 5.66927C12.0793 5.66635 12.0825 5.66049 12.0857 5.65757C12.092 5.64879 12.0952 5.64 12.1016 5.63122C12.1048 5.62537 12.108 5.62244 12.1112 5.61659C12.1143 5.60781 12.1207 5.59903 12.1239 5.59317L12.1334 5.57561C12.1366 5.56683 12.1398 5.56097 12.143 5.55219C12.1462 5.54634 12.1494 5.53756 12.1526 5.5317C12.1557 5.52585 12.1589 5.51707 12.1621 5.51121C12.1653 5.50243 12.1685 5.49658 12.1717 5.4878C12.1748 5.48194 12.1748 5.47609 12.178 5.47024L12.1876 5.44389C12.1908 5.43804 12.1908 5.43218 12.194 5.42926C12.1971 5.42048 12.2003 5.4117 12.2035 5.39999C12.2035 5.39413 12.2067 5.39121 12.2067 5.38535C12.2099 5.37657 12.2131 5.36486 12.2131 5.35608C12.2131 5.35023 12.2162 5.3473 12.2162 5.34145C12.2194 5.33266 12.2194 5.32096 12.2226 5.31218C12.2226 5.30632 12.2258 5.30047 12.2258 5.29461C12.2258 5.28583 12.229 5.27705 12.229 5.26827C12.229 5.25949 12.229 5.25364 12.2322 5.24485C12.2322 5.23607 12.2322 5.23022 12.2354 5.22144V5.12777C12.2354 5.11899 12.2354 5.11314 12.2322 5.10436C12.2322 5.09558 12.2322 5.08972 12.229 5.08094C12.229 5.07216 12.2258 5.06338 12.2258 5.0546C12.2258 5.04874 12.2258 5.04289 12.2226 5.03703C12.2226 5.02825 12.2194 5.01655 12.2162 5.00776C12.2162 5.00191 12.2131 4.99898 12.2131 4.99313C12.2099 4.98435 12.2099 4.97264 12.2067 4.96386C12.2067 4.958 12.2035 4.95508 12.2035 4.94922C12.2003 4.94044 12.1971 4.93166 12.194 4.91995C12.1908 4.9141 12.1908 4.90825 12.1876 4.90532L12.178 4.87897C12.1748 4.87312 12.1748 4.86727 12.1717 4.86141C12.1685 4.85263 12.1653 4.84678 12.1621 4.83799C12.1589 4.83214 12.1557 4.82336 12.1526 4.81751C12.1494 4.81165 12.1462 4.80287 12.143 4.79702C12.1398 4.78824 12.1366 4.78238 12.1334 4.7736L12.1239 4.75604C12.1207 4.74726 12.1143 4.73848 12.1112 4.73262C12.108 4.72677 12.1048 4.72384 12.1016 4.71799C12.0952 4.70921 12.092 4.70042 12.0857 4.69164C12.0825 4.68872 12.0793 4.68286 12.0761 4.67994L12.057 4.65359C12.0538 4.65066 12.0506 4.64481 12.0475 4.64188C12.0411 4.6331 12.0347 4.62432 12.0284 4.61847C12.0252 4.61261 12.0188 4.60969 12.0156 4.60383C12.0092 4.59798 12.0029 4.5892 11.9965 4.58334C11.9901 4.57749 11.9838 4.57163 11.9806 4.56578C11.9742 4.55993 11.971 4.55407 11.9647 4.54822C11.9519 4.53651 11.9424 4.5248 11.9296 4.51602L7.31513 0.27474C7.11768 0.0932636 6.85654 -0.000402451 6.59541 -0.000402451C6.33427 -0.000402451 6.07313 0.0903368 5.87568 0.27474C5.47761 0.64062 5.47761 1.23481 5.87568 1.60069L8.7482 4.23503H1.01915C0.455474 4.23503 7.43866e-05 4.65359 7.43866e-05 5.17168C-0.00310993 5.68976 0.455475 6.10833 1.01597 6.10833Z"
        fill="white" />
</svg>
    